<?xml version="1.0" encoding="utf-8"?>
<!-- Generator: Adobe Illustrator 15.0.0, SVG Export Plug-In  -->
<!DOCTYPE svg PUBLIC "-//W3C//DTD SVG 1.1//EN" "http://www.w3.org/Graphics/SVG/1.1/DTD/svg11.dtd" [
	<!ENTITY ns_flows "http://ns.adobe.com/Flows/1.0/">
]>
<svg version="1.1"
	 xmlns="http://www.w3.org/2000/svg" xmlns:xlink="http://www.w3.org/1999/xlink" xmlns:a="http://ns.adobe.com/AdobeSVGViewerExtensions/3.0/"
	 x="0px" y="0px" width="300px" height="300px" viewBox="-4.333 -4.333 300 300" enable-background="new -4.333 -4.333 300 300"
	 xml:space="preserve">
<defs>
</defs>
<rect fill="#F2F2F2" width="292" height="292"/>
<path fill="#727272" d="M54.306,178.967h25.635v-68.135H54.306V89.919h76.23v20.913h-25.635v68.135h25.635v20.913h-76.23V178.967z"
	/>
<path fill="#727272" d="M152.291,145.575c0-9.107,1.35-17.229,4.048-24.37c2.698-7.139,6.409-13.182,11.131-18.13
	c4.723-4.946,10.288-8.712,16.697-11.3c6.408-2.585,13.266-3.879,20.575-3.879c7.083,0,13.35,1.434,18.805,4.301
	c5.452,2.867,10.035,6.101,13.745,9.697l-13.661,15.348c-2.588-2.361-5.396-4.272-8.433-5.734c-3.035-1.46-6.521-2.192-10.456-2.192
	c-3.937,0-7.534,0.817-10.794,2.445c-3.262,1.631-6.101,3.963-8.517,6.999c-2.419,3.036-4.301,6.746-5.65,11.131
	c-1.349,4.385-2.023,9.333-2.023,14.841c0,11.358,2.585,20.154,7.758,26.394c5.171,6.24,11.917,9.36,20.238,9.36
	c3.935,0,7.505-0.899,10.71-2.699c3.204-1.797,6.155-4.158,8.854-7.083l13.661,15.01c-9.221,10.794-20.802,16.19-34.742,16.19
	c-7.084,0-13.774-1.209-20.069-3.626c-6.299-2.416-11.806-5.986-16.528-10.709c-4.722-4.723-8.462-10.596-11.215-17.624
	C153.667,162.919,152.291,154.795,152.291,145.575z"/>
</svg>
