<?xml version="1.0" encoding="utf-8"?>
<!-- Generator: Adobe Illustrator 15.0.0, SVG Export Plug-In  -->
<!DOCTYPE svg PUBLIC "-//W3C//DTD SVG 1.1//EN" "http://www.w3.org/Graphics/SVG/1.1/DTD/svg11.dtd" [
	<!ENTITY ns_flows "http://ns.adobe.com/Flows/1.0/">
]>
<svg version="1.1"
	 xmlns="http://www.w3.org/2000/svg" xmlns:xlink="http://www.w3.org/1999/xlink" xmlns:a="http://ns.adobe.com/AdobeSVGViewerExtensions/3.0/"
	 x="0px" y="0px" width="1134px" height="1134px" viewBox="0 0 1134 1134" enable-background="new 0 0 1134 1134"
	 xml:space="preserve">
<defs>
</defs>
<g>
	<defs>
		<rect id="SVGID_1_" width="1134" height="1134"/>
	</defs>
	<clipPath id="SVGID_12_">
		<use xlink:href="#SVGID_1_"  overflow="visible"/>
	</clipPath>
	<rect x="90.713" y="99.282" clip-path="url(#SVGID_12_)" fill="#FAFAFA" width="470.553" height="420.984"/>
	<g clip-path="url(#SVGID_12_)">
		<defs>
			<rect id="SVGID_11_" width="1134" height="1134"/>
		</defs>
		<clipPath id="SVGID_13_">
			<use xlink:href="#SVGID_11_"  overflow="visible"/>
		</clipPath>
		<path clip-path="url(#SVGID_13_)" fill="#E0E0E0" d="M561.268,520.267c0,0-0.079-2.7-0.12-7.814
			c-0.028-5.166-0.069-12.718-0.123-22.557c-0.063-19.767-0.156-48.656-0.277-85.457c-0.132-73.556-0.322-178.662-0.548-305.157
			l1.068,1.065c-135.518,0.055-297.244,0.121-470.513,0.19h-0.041l1.257-1.256c-0.054,153.16-0.106,297.28-0.149,420.984
			l-1.107-1.107c140.376,0.229,257.866,0.424,340.338,0.559c41.263,0.125,73.749,0.225,95.991,0.292
			c11.079,0.057,19.594,0.1,25.411,0.13c2.848,0.026,5.023,0.05,6.554,0.063C560.486,520.224,561.268,520.267,561.268,520.267
			s-0.699,0.042-2.134,0.063c-1.501,0.013-3.638,0.034-6.432,0.061c-5.768,0.032-14.209,0.073-25.195,0.13
			c-22.187,0.07-54.589,0.167-95.745,0.292c-82.644,0.136-200.379,0.329-341.048,0.56l-1.106,0.002v-1.109
			c-0.045-123.704-0.095-267.824-0.151-420.984v-1.259h1.258h0.041c173.269,0.071,334.995,0.136,470.513,0.19h1.068l-0.002,1.069
			c-0.227,126.776-0.416,232.116-0.549,305.832c-0.117,36.697-0.21,65.507-0.277,85.216c-0.052,9.75-0.093,17.235-0.122,22.353
			C561.348,517.724,561.268,520.267,561.268,520.267"/>
		<path clip-path="url(#SVGID_13_)" fill="#E0E0E0" d="M271.141,174.083c0,0.693-24.766,1.258-55.311,1.258
			c-30.557,0-55.319-0.565-55.319-1.258c0-0.694,24.762-1.257,55.319-1.257C246.375,172.825,271.141,173.388,271.141,174.083"/>
		<path clip-path="url(#SVGID_13_)" fill="#E0E0E0" d="M470.521,205.691c0,0.695-68.042,1.258-151.958,1.258
			c-83.947,0-151.976-0.563-151.976-1.258c0-0.694,68.029-1.257,151.976-1.257C402.479,204.435,470.521,204.997,470.521,205.691"/>
		<rect x="161.32" y="259.234" clip-path="url(#SVGID_13_)" fill="#E0E0E0" width="19.825" height="19.825"/>
		<rect x="210.117" y="259.234" clip-path="url(#SVGID_13_)" fill="#E0E0E0" width="19.824" height="19.825"/>
		<rect x="259.815" y="258.334" clip-path="url(#SVGID_13_)" fill="#E0E0E0" width="19.824" height="19.825"/>
		<rect x="307.715" y="259.234" clip-path="url(#SVGID_13_)" fill="#E0E0E0" width="19.825" height="19.825"/>
		<rect x="356.513" y="259.234" clip-path="url(#SVGID_13_)" fill="#E0E0E0" width="19.825" height="19.825"/>
		<rect x="405.312" y="259.234" clip-path="url(#SVGID_13_)" fill="#E0E0E0" width="19.825" height="19.825"/>
		<rect x="454.108" y="259.234" clip-path="url(#SVGID_13_)" fill="#EBEBEB" width="19.824" height="19.825"/>
		<rect x="161.32" y="301.378" clip-path="url(#SVGID_13_)" fill="#EBEBEB" width="19.825" height="19.825"/>
		<rect x="210.117" y="301.378" clip-path="url(#SVGID_13_)" fill="#E0E0E0" width="19.824" height="19.825"/>
		<rect x="258.917" y="301.378" clip-path="url(#SVGID_13_)" fill="#EBEBEB" width="19.824" height="19.825"/>
		<rect x="307.715" y="301.378" clip-path="url(#SVGID_13_)" fill="#E0E0E0" width="19.825" height="19.825"/>
		<rect x="356.513" y="301.378" clip-path="url(#SVGID_13_)" fill="#E0E0E0" width="19.825" height="19.825"/>
		<rect x="406.21" y="300.48" clip-path="url(#SVGID_13_)" fill="#E0E0E0" width="19.825" height="19.825"/>
		<rect x="454.108" y="301.378" clip-path="url(#SVGID_13_)" fill="#E0E0E0" width="19.824" height="19.825"/>
		<rect x="161.32" y="343.524" clip-path="url(#SVGID_13_)" fill="#E0E0E0" width="19.825" height="19.825"/>
		<rect x="211.017" y="342.624" clip-path="url(#SVGID_13_)" fill="#E0E0E0" width="19.825" height="19.825"/>
		<rect x="258.917" y="343.524" clip-path="url(#SVGID_13_)" fill="#E0E0E0" width="19.824" height="19.825"/>
		<rect x="307.715" y="343.524" clip-path="url(#SVGID_13_)" fill="#EBEBEB" width="19.825" height="19.825"/>
		<rect x="356.513" y="343.524" clip-path="url(#SVGID_13_)" fill="#E0E0E0" width="19.825" height="19.825"/>
		<rect x="405.312" y="343.524" clip-path="url(#SVGID_13_)" fill="#E0E0E0" width="19.825" height="19.825"/>
		<rect x="454.108" y="343.524" clip-path="url(#SVGID_13_)" fill="#E0E0E0" width="19.824" height="19.825"/>
		<rect x="161.32" y="385.671" clip-path="url(#SVGID_13_)" fill="#E0E0E0" width="19.825" height="19.825"/>
		<rect x="210.117" y="385.671" clip-path="url(#SVGID_13_)" fill="#E0E0E0" width="19.824" height="19.825"/>
		<rect x="258.917" y="385.671" clip-path="url(#SVGID_13_)" fill="#E0E0E0" width="19.824" height="19.825"/>
		<rect x="308.616" y="384.771" clip-path="url(#SVGID_13_)" fill="#E0E0E0" width="19.824" height="19.825"/>
		<rect x="356.513" y="385.671" clip-path="url(#SVGID_13_)" fill="#E0E0E0" width="19.825" height="19.825"/>
		<rect x="405.312" y="385.671" clip-path="url(#SVGID_13_)" fill="#EBEBEB" width="19.825" height="19.825"/>
		<rect x="454.108" y="385.671" clip-path="url(#SVGID_13_)" fill="#E0E0E0" width="19.824" height="19.825"/>
		<rect x="161.32" y="427.815" clip-path="url(#SVGID_13_)" fill="#E0E0E0" width="19.825" height="19.825"/>
		<rect x="210.117" y="427.815" clip-path="url(#SVGID_13_)" fill="#EBEBEB" width="19.824" height="19.825"/>
		<rect x="258.917" y="427.815" clip-path="url(#SVGID_13_)" fill="#E0E0E0" width="19.824" height="19.825"/>
		<rect x="307.715" y="427.815" clip-path="url(#SVGID_13_)" fill="#E0E0E0" width="19.825" height="19.825"/>
		<rect x="356.513" y="427.815" clip-path="url(#SVGID_13_)" fill="#E0E0E0" width="19.825" height="19.825"/>
		<rect x="406.21" y="426.915" clip-path="url(#SVGID_13_)" fill="#E0E0E0" width="19.825" height="19.825"/>
		<rect x="454.108" y="427.815" clip-path="url(#SVGID_13_)" fill="#E0E0E0" width="19.824" height="19.825"/>
		<path clip-path="url(#SVGID_13_)" fill="#EBEBEB" d="M975.654,665.157c20.966-10.817,45.654-12.224,68.933-8.374
			c12.503,2.068,25.541,5.808,34.051,15.202c8.51,9.392,10.124,25.923,0.353,33.994c-5.816,4.806-13.928,5.534-21.471,5.448
			c-18.222-0.21-38.443-3.42-52.999,7.544c-8.309,6.255-13.834,16.653-23.766,19.731c-9.714,3.008-20.678-2.724-25.832-11.494
			c-5.149-8.769-5.322-19.73-2.921-29.608C952.002,697.601,954.531,676.059,975.654,665.157"/>
		<path clip-path="url(#SVGID_13_)" fill="#EBEBEB" d="M927.616,572.427c12.819,18.31,37.739,12.248,49.292,1.074
			c11.552-11.18,16.436-27.38,20.881-42.828c10.16-35.297,20.398-72.322,12.847-108.265c-2.26-10.749-6.275-21.465-13.825-29.436
			c-7.553-7.973-19.163-12.714-29.781-9.912c-12.563,3.32-20.372,15.627-26.018,27.333c-16.587,34.409-25.371,72.556-25.502,110.755
			C915.448,538.988,917.552,557.699,927.616,572.427"/>
		<path clip-path="url(#SVGID_13_)" fill="#EBEBEB" d="M892.407,598.701c13.922-16.522,16.563-40.619,10.367-61.314
			c-6.192-20.7-20.188-38.305-36.314-52.682c-18.91-16.854-41.139-29.967-65.032-38.37c-9.406-3.307-19.324-5.915-29.249-4.969
			c-9.923,0.948-19.914,6.021-24.543,14.851c-6.844,13.052-0.281,28.885,6.815,41.802c12.505,22.757,26.8,44.525,42.716,65.043
			c12.799,16.505,27.464,32.787,46.979,40.246c19.509,7.458,39.778,6.583,50.117-6.95"/>
		<path clip-path="url(#SVGID_13_)" fill="#E0E0E0" d="M926.748,848.653c0.237,0.015,0.627-2.953,1.158-8.321
			c0.59-6.056,1.331-13.657,2.209-22.707c1.059-9.555,2.453-20.924,5.109-33.307c2.645-12.353,6.786-25.739,12.106-39.312
			c5.51-13.495,12.226-25.763,20.075-35.572c7.792-9.854,16.854-16.985,25.378-21.099c8.491-4.192,16.11-5.898,21.375-6.655
			c5.309-0.543,8.279-0.964,8.281-1.198c0.002-0.239-2.975-0.275-8.43-0.131c-5.402,0.358-13.333,1.729-22.288,5.801
			c-8.979,3.979-18.594,11.225-26.769,21.28c-8.241,10.015-15.202,22.554-20.809,36.285c-5.413,13.814-9.492,27.338-12.02,39.958
			c-2.521,12.596-3.673,24.093-4.428,33.73c-0.722,9.641-0.997,17.448-1.125,22.846C926.451,845.651,926.511,848.64,926.748,848.653
			"/>
		<path clip-path="url(#SVGID_13_)" fill="#E0E0E0" d="M928.312,831.18c0.12-0.007,0.193-1.335,0.224-3.858
			c-0.006-2.901-0.018-6.558-0.028-11.041c-0.029-9.583-0.024-23.448,0.491-40.571c0.849-34.246,3.797-71.101,9.488-123.059
			c5.394-48.859,12.634-105.718,20.273-142.687c1.637-8.406,3.289-15.976,4.841-22.598c1.479-6.64,2.744-12.365,3.965-16.997
			c1.05-4.361,1.9-7.913,2.578-10.732c0.554-2.465,0.791-3.776,0.676-3.81c-0.113-0.034-0.571,1.212-1.343,3.619
			c-0.841,2.778-1.9,6.28-3.204,10.58c-1.423,4.588-2.878,10.277-4.543,16.891c-1.729,6.597-3.551,14.145-5.345,22.542
			c-7.559,33.499-15.562,80.315-21.313,132.397c-5.703,52.068-8.274,99.479-8.503,133.808c-0.201,17.167,0.164,31.063,0.599,40.648
			c0.274,4.483,0.5,8.136,0.678,11.037C928.037,829.866,928.192,831.187,928.312,831.18"/>
		<path clip-path="url(#SVGID_13_)" fill="#E0E0E0" d="M928.542,739.742c0.235-0.009,0.197-4.106-0.082-11.535
			c-0.425-7.41-1.443-18.124-3.532-31.244c-2.213-13.092-5.307-28.634-10.162-45.528c-2.104-7.722-7.054-26.222-19.039-53.867
			c-15.791-37.461-37.244-68.086-55.904-87.056c-4.381-5.035-9.254-8.668-13.154-12.227c-2.02-1.706-3.803-3.407-5.619-4.755
			c-1.824-1.259-3.525-2.43-5.103-3.516c-6.145-4.201-9.581-6.416-9.71-6.216c-0.549,0.749,13.761,9.169,31.827,28.393
			c17.996,19.181,38.849,49.596,54.514,86.739c8.731,20.146,14.824,38.119,19.146,53.375c4.99,16.727,8.308,32.113,10.813,45.072
			c2.379,12.99,3.761,23.599,4.594,30.941C927.813,735.672,928.305,739.751,928.542,739.742"/>
		<polygon clip-path="url(#SVGID_13_)" fill="#E0E0E0" points="840.161,901.041 849.324,1026.569 1010.584,1026.569 
			1019.747,901.041 		"/>
		<rect x="824.586" y="851.563" clip-path="url(#SVGID_13_)" fill="#E0E0E0" width="214.401" height="49.478"/>
		<polygon clip-path="url(#SVGID_13_)" fill="#EBEBEB" points="824.586,1021.763 824.586,1035.478 834.657,1035.478 
			1035.443,1035.478 1035.443,1021.763 		"/>
		<polygon clip-path="url(#SVGID_13_)" fill="#E0E0E0" points="844.533,1059.614 834.657,1035.478 1027.765,1035.478 
			1016.243,1059.614 		"/>
		<path clip-path="url(#SVGID_13_)" fill="#F5F5F5" d="M1016.753,942.063c0.035,0.033-0.224,0.424-0.753,1.156
			c-0.641,0.849-1.436,1.9-2.412,3.194c-2.288,2.93-5.434,6.957-9.391,12.024l-0.421,0.531l-0.401-0.558
			c-5.904-8.167-13.794-19.077-23.081-31.919h1.329c-6.868,9.719-14.514,20.548-22.725,32.171l-0.711,1.013l-0.799-0.948
			c-8.384-9.98-17.493-20.815-26.948-32.066l1.555-0.021c-0.468,0.59-0.975,1.228-1.481,1.865
			c-8.356,10.479-16.445,20.618-24.096,30.21l-0.804,1.004l-0.742-1.048c-8.182-11.572-15.825-22.39-22.735-32.164l1.322,0.06
			c-11.2,12.767-20.702,23.591-27.995,31.9l-0.497,0.567l-0.381-0.638c-3.691-6.199-6.635-11.146-8.766-14.729
			c-0.917-1.6-1.659-2.889-2.248-3.921c-0.496-0.898-0.733-1.373-0.687-1.399c0.039-0.024,0.36,0.396,0.937,1.242
			c0.655,0.995,1.473,2.237,2.489,3.774c2.239,3.52,5.327,8.374,9.2,14.461l-0.874-0.071c7.178-8.409,16.526-19.368,27.55-32.285
			l0.695-0.817l0.629,0.877c6.971,9.734,14.683,20.498,22.936,32.02l-1.542-0.037c7.63-9.608,15.699-19.761,24.035-30.255
			c0.51-0.641,1.015-1.276,1.484-1.865l0.767-0.959l0.788,0.941c9.429,11.27,18.51,22.126,26.875,32.126l-1.511,0.058
			c8.293-11.567,16.014-22.341,22.95-32.011l0.674-0.939l0.655,0.939c9.09,12.981,16.811,24.011,22.592,32.264l-0.822-0.022
			c4.12-4.935,7.389-8.861,9.774-11.714c1.061-1.229,1.923-2.229,2.615-3.03C1016.388,942.372,1016.713,942.035,1016.753,942.063"/>
		<path clip-path="url(#SVGID_13_)" fill="#F5F5F5" d="M1021.991,900.212c0,0.554-40.408,1.004-90.239,1.004
			c-49.853,0-90.249-0.45-90.249-1.004c0-0.556,40.396-1.001,90.249-1.001C981.583,899.211,1021.991,899.656,1021.991,900.212"/>
		<path clip-path="url(#SVGID_13_)" fill="#F5F5F5" d="M1030.137,1036.83c0,0.554-43.913,1.004-98.07,1.004
			c-54.182,0-98.082-0.45-98.082-1.004c0-0.551,43.9-1.001,98.082-1.001C986.224,1035.829,1030.137,1036.279,1030.137,1036.83"/>
	</g>
	<g clip-path="url(#SVGID_12_)">
		<defs>
			<rect id="SVGID_10_" width="1134" height="1134"/>
		</defs>
		<clipPath id="SVGID_14_">
			<use xlink:href="#SVGID_10_"  overflow="visible"/>
		</clipPath>
	</g>
	<g clip-path="url(#SVGID_12_)">
		<defs>
			<rect id="SVGID_5_" width="1134" height="1134"/>
		</defs>
		<clipPath id="SVGID_15_">
			<use xlink:href="#SVGID_5_"  overflow="visible"/>
		</clipPath>
		<path clip-path="url(#SVGID_15_)" fill="#E8505B" d="M448.526,560.511l-18.138,9.734l-40.151,30.91
			c0,0-122.994,16.334-127.718,19.876c-4.724,3.544-65.89,32.587-74.157,71.562c-8.267,38.97-25.277,293.256-25.277,293.256
			l22.32,75.133l447.95,0.695l105.052-1.493c0,0,40.368-94.274,40.368-120.257s-11.81-220.842-11.81-220.842l-125.976-88.831
			L448.526,560.511z"/>
		<path clip-path="url(#SVGID_15_)" fill="#263238" d="M389.076,599.319c0.032,0.026-0.184,0.385-0.624,1.052
			c-0.526,0.769-1.177,1.717-1.971,2.873c-1.769,2.451-4.16,6.117-6.96,10.727c-1.352,2.336-2.902,4.853-4.325,7.691
			c-1.528,2.777-2.974,5.848-4.472,9.079c-2.912,6.509-5.73,13.834-8.143,21.707c-4.749,15.783-7.189,30.557-8.829,41.234
			c-0.749,5.225-1.365,9.517-1.819,12.68c-0.208,1.389-0.376,2.529-0.515,3.448c-0.131,0.784-0.219,1.196-0.258,1.192
			c-0.041-0.005-0.032-0.424,0.022-1.221c0.078-0.928,0.175-2.075,0.292-3.476c0.272-3.012,0.757-7.37,1.452-12.739
			c1.429-10.727,3.747-25.582,8.526-41.464c2.424-7.921,5.293-15.289,8.282-21.814c1.535-3.242,3.023-6.314,4.599-9.092
			c1.467-2.835,3.071-5.342,4.475-7.661c2.907-4.58,5.413-8.19,7.3-10.563c0.867-1.107,1.579-2.011,2.155-2.746
			C388.766,599.607,389.045,599.295,389.076,599.319"/>
		<g opacity="0.3" clip-path="url(#SVGID_15_)">
			<g>
				<defs>
					<rect id="SVGID_9_" x="352.49" y="667.805" width="74.363" height="72.571"/>
				</defs>
				<clipPath id="SVGID_16_">
					<use xlink:href="#SVGID_9_"  overflow="visible"/>
				</clipPath>
				<path clip-path="url(#SVGID_16_)" d="M391.871,674.067c-0.745-2.392-1.71-5.096-4.037-6.033
					c-1.828-0.732-1.093,0.445-2.915,1.196c-17.015,7.017-25.227,22.746-32.428,40.465l0.409-0.423
					c-1.066,2.716,0.054,6.629,2.785,8.222c3.835,2.237,8.765,1.03,12.707-1.012c3.942-2.038,7.551-4.871,11.851-5.976
					c9.317-2.384,18.577,3.99,25.151,11.012c6.575,7.021,12.494,15.378,21.459,18.855
					C411.283,720.65,399.363,698.055,391.871,674.067"/>
			</g>
		</g>
		<path clip-path="url(#SVGID_15_)" fill="#263238" d="M351.159,711.003c0,0,2.023-5.411,7.199-14.424
			c2.617-4.482,6.046-9.867,10.802-15.528c2.43-2.781,5.165-5.656,8.474-8.268c3.329-2.536,7.289-4.886,11.975-5.747l0.349-0.064
			l0.132,0.339c2.852,7.426,5.843,15.523,9.294,24.053c3.465,8.517,7.446,17.469,12.68,26.26c5.2,8.802,11.681,17.401,19.505,25.211
			c7.804,7.834,16.878,14.868,26.712,21.181c3.278,1.944,6.461,3.998,9.742,5.812c3.309,1.761,6.588,3.509,9.83,5.236l-0.588,0.04
			c5.562-3.843,11.025-7.612,16.373-11.305c2.673-1.843,5.32-3.668,7.934-5.471c2.63-1.787,5.194-3.581,7.618-5.488
			c9.732-7.591,18.15-15.825,25.411-23.885l0.036-0.042l0.039-0.027c10.093-7.754,17.917-16.633,23.299-25.428
			c5.499-8.747,8.648-17.276,10.504-24.421c1.838-7.168,2.421-12.978,2.671-16.927c0.14-1.976,0.1-3.497,0.155-4.518
			c0.033-1.023,0.088-1.551,0.088-1.551s0.047,0.525,0.064,1.551c-0.004,1.023,0.084,2.547-0.007,4.531
			c-0.148,3.967-0.64,9.816-2.411,17.057c-1.783,7.209-4.884,15.843-10.373,24.704c-5.371,8.91-13.225,17.923-23.385,25.794
			l0.075-0.07c-7.286,8.157-15.692,16.43-25.484,24.108c-2.444,1.934-5.021,3.743-7.643,5.53c-2.613,1.81-5.258,3.642-7.934,5.493
			c-5.349,3.701-10.814,7.483-16.377,11.333l-0.286,0.199l-0.304-0.161c-3.259-1.734-6.555-3.486-9.882-5.254
			c-3.297-1.825-6.502-3.887-9.797-5.845c-9.895-6.353-19.04-13.444-26.903-21.358c-7.884-7.891-14.411-16.591-19.63-25.471
			c-5.25-8.874-9.221-17.891-12.662-26.442c-3.426-8.567-6.375-16.685-9.181-24.117l0.481,0.274
			c-4.479,0.797-8.355,3.043-11.639,5.513c-3.266,2.536-5.997,5.359-8.426,8.095c-4.764,5.57-8.242,10.893-10.91,15.32
			c-2.657,4.443-4.51,8.021-5.739,10.456c-0.585,1.186-1.041,2.106-1.376,2.786C351.347,710.694,351.18,711.012,351.159,711.003"/>
		<path clip-path="url(#SVGID_15_)" fill="#263238" d="M604.661,655.16c0,0,0.755,13.235-1.639,34.591
			c-1.194,10.665-3.349,23.315-6.917,37.121c-3.542,13.808-8.592,28.718-15.015,43.949l-0.861,2.051l-0.271-2.222
			c-0.155-1.326-0.283-2.762-0.496-4.195c-1.13-8.376-3.105-16.432-5.719-23.957c-1.305-3.766-2.773-7.402-4.367-10.889
			c-0.791-1.745-1.628-3.446-2.483-5.116c-0.878-1.668-1.686-3.32-2.774-4.73c-1.065-1.413-2.366-2.676-3.896-3.25
			c-1.529-0.589-3.207-0.203-4.462,0.842c-1.272,1.023-2.329,2.426-3.46,3.673c-1.115,1.273-2.211,2.524-3.288,3.756
			c-4.31,4.917-8.327,9.502-11.998,13.69c-7.319,8.297-13.262,15.032-17.439,19.77c-2.032,2.266-3.633,4.049-4.786,5.338
			c-0.52,0.558-0.937,1.008-1.268,1.364c-0.29,0.303-0.446,0.454-0.462,0.44c-0.017-0.011,0.111-0.19,0.371-0.521
			c0.309-0.376,0.697-0.853,1.18-1.444c1.112-1.319,2.657-3.151,4.618-5.481c4.11-4.793,9.957-11.614,17.155-20.014
			c3.64-4.217,7.621-8.835,11.892-13.785c1.068-1.237,2.157-2.496,3.261-3.776c1.132-1.253,2.141-2.64,3.582-3.824
			c1.394-1.214,3.61-1.766,5.467-1.03c1.856,0.695,3.254,2.102,4.398,3.595c1.169,1.506,2.016,3.218,2.893,4.879
			c0.87,1.684,1.721,3.397,2.527,5.156c1.617,3.516,3.107,7.179,4.434,10.979c2.654,7.59,4.654,15.721,5.792,24.179
			c0.22,1.449,0.348,2.896,0.508,4.235l-1.132-0.173c6.405-15.176,11.471-30.018,15.059-43.761
			c3.612-13.736,5.845-26.323,7.143-36.948c1.315-10.622,1.841-19.263,2.077-25.227c0.153-2.979,0.155-5.301,0.233-6.869
			c0.028-0.73,0.058-1.315,0.077-1.785C604.617,655.368,604.639,655.16,604.661,655.16"/>
		<path clip-path="url(#SVGID_15_)" fill="#263238" d="M435.503,592.502c0.015,0.016-0.102,0.166-0.342,0.447
			c-0.291,0.332-0.649,0.735-1.084,1.227c-1.011,1.025-2.311,2.705-3.984,4.855c-3.237,4.385-7.326,11.209-10.871,20.304
			c-3.622,9.047-6.646,20.36-8.143,33.162c-1.411,12.796-1.256,27.135,1.815,41.69c1.446,7.293,3.675,14.234,6.341,20.706
			c2.574,6.523,5.906,12.439,9.319,17.89c7.035,10.8,15.2,19.223,22.687,25.444c3.661,3.233,7.38,5.637,10.487,7.951
			c3.302,2.035,6.083,3.892,8.458,5.245c2.327,1.277,4.168,2.292,5.516,3.034c0.573,0.327,1.041,0.596,1.422,0.813
			c0.318,0.19,0.476,0.297,0.467,0.316c-0.009,0.019-0.186-0.053-0.522-0.208c-0.394-0.19-0.88-0.425-1.476-0.711
			c-1.374-0.693-3.254-1.644-5.634-2.846c-2.416-1.294-5.244-3.104-8.593-5.092c-3.162-2.277-6.936-4.645-10.655-7.858
			c-7.607-6.182-15.913-14.62-23.068-25.5c-3.475-5.485-6.86-11.45-9.479-18.035c-2.703-6.534-4.964-13.544-6.427-20.908
			c-3.1-14.7-3.218-29.169-1.74-42.058c1.57-12.899,4.7-24.272,8.448-33.349c3.672-9.121,7.907-15.938,11.279-20.269
			c1.744-2.126,3.107-3.761,4.177-4.741c0.474-0.463,0.86-0.84,1.175-1.15C435.345,592.61,435.49,592.486,435.503,592.502"/>
		<path clip-path="url(#SVGID_15_)" fill="#263238" d="M242.535,810.413c0.028-0.015,0.175,0.197,0.45,0.651
			c0.322,0.559,0.717,1.24,1.215,2.1l-0.335,0.118c-1.617-7.615-6.023-30.988-11.022-58.625
			c-3.012-17.021-5.735-32.426-7.741-43.774c-0.916-5.488-1.665-9.986-2.216-13.289c-0.219-1.466-0.398-2.664-0.542-3.623
			c-0.111-0.831-0.149-1.268-0.111-1.276c0.04-0.007,0.158,0.417,0.344,1.236c0.202,0.948,0.453,2.131,0.762,3.583
			c0.642,3.283,1.515,7.764,2.583,13.223c2.095,11.332,4.939,26.711,8.083,43.713c4.998,27.634,9.06,51.071,10.213,58.767
			l0.171,1.158l-0.507-1.044c-0.433-0.89-0.779-1.601-1.06-2.182C242.602,810.668,242.509,810.427,242.535,810.413"/>
		<path clip-path="url(#SVGID_15_)" fill="#263238" d="M237.071,805.758c-0.294,0.142-6.005-11.354-12.755-25.663
			c-6.752-14.321-11.983-26.036-11.688-26.173c0.294-0.142,6.005,11.349,12.757,25.665
			C232.134,793.899,237.366,805.618,237.071,805.758"/>
		<g opacity="0.3" clip-path="url(#SVGID_15_)">
			<g>
				<defs>
					<rect id="SVGID_8_" x="234.749" y="786.549" width="219.37" height="270.614"/>
				</defs>
				<clipPath id="SVGID_17_">
					<use xlink:href="#SVGID_8_"  overflow="visible"/>
				</clipPath>
				<path clip-path="url(#SVGID_17_)" d="M234.749,1055.111c14.22,7.147,47.175-5.466,59.159-21.187
					c11.984-15.717,15.452-36.153,18.053-55.75c3.919-29.526,6.717-59.205,8.383-88.95c24.396,17.858,54.974,27.096,85.174,25.723
					c19.24-0.872,41.167-8.516,47.119-26.833c5.887-18.117-6.789-36.744-19.955-50.512c-12.532-13.111-26.222-25.116-40.853-35.831
					c-9.608-7.037-20.122-13.706-31.961-14.997c-12.769-1.397-25.684,3.836-35.392,12.248c-9.707,8.41-16.488,19.748-21.459,31.595
					c-15.17,36.157-14.352,76.653-17.447,115.746c-3.097,39.09-7.245,79.586-41.879,105.032"/>
			</g>
		</g>
		<path clip-path="url(#SVGID_15_)" fill="#263238" d="M235.668,1055.265c-0.009-0.026,0.324-0.188,0.973-0.474
			c0.723-0.313,1.671-0.718,2.859-1.234c2.375-1.333,5.893-3.289,9.708-6.671c7.737-6.58,17.272-17.792,26.204-32.667l-0.063,0.188
			c2.076-15.539,4.495-33.668,7.068-52.955c4.159-30.571,7.845-58.254,10.806-78.243c1.835-9.869,3.326-17.888,4.375-23.544
			c0.528-2.7,0.946-4.835,1.247-6.388c0.145-0.669,0.261-1.216,0.356-1.656c0.086-0.372,0.141-0.561,0.158-0.559
			c0.021,0.007,0.007,0.201-0.041,0.583c-0.063,0.442-0.143,0.994-0.238,1.672c-0.25,1.563-0.594,3.712-1.029,6.428
			c-0.962,5.667-2.328,13.703-4.003,23.59c-2.688,20.117-6.382,47.752-10.463,78.284c-2.626,19.275-5.093,37.393-7.209,52.928
			l-0.016,0.108l-0.051,0.082c-9.09,14.943-18.781,26.104-26.71,32.618c-3.908,3.342-7.518,5.242-9.961,6.491
			c-1.277,0.517-2.277,0.857-2.944,1.099C236.025,1055.183,235.675,1055.293,235.668,1055.265"/>
		<path clip-path="url(#SVGID_15_)" fill="#263238" d="M453.974,1060.184c-0.02,0.005-0.091-0.234-0.21-0.711
			c-0.129-0.543-0.296-1.242-0.508-2.128c-0.392-1.879-1.147-4.621-1.749-8.222c-1.342-7.177-2.727-17.688-3.123-30.749
			c-0.372-13.052,0.251-28.645,2.445-45.774c2.086-17.143,5.561-35.813,9.591-55.302c3.87-19.542,8.743-37.903,12.689-54.667
			c4.003-16.756,6.585-32.093,7.273-45.09c0.677-12.999-0.138-23.551-1.129-30.76c-0.388-3.621-1.009-6.386-1.263-8.29
			c-0.136-0.899-0.246-1.612-0.327-2.157c-0.068-0.492-0.093-0.742-0.073-0.747c0.019-0.002,0.084,0.239,0.19,0.721
			c0.114,0.542,0.259,1.251,0.443,2.139c0.328,1.892,1.026,4.649,1.487,8.272c1.129,7.212,2.078,17.797,1.504,30.864
			c-0.586,13.067-3.096,28.501-7.046,45.291c-3.897,16.82-8.726,35.141-12.593,54.663c-4.028,19.477-7.527,38.105-9.667,55.198
			c-2.246,17.078-2.954,32.604-2.69,45.619c0.29,13.017,1.542,23.506,2.74,30.688c0.532,3.608,1.212,6.358,1.528,8.253
			c0.163,0.89,0.295,1.604,0.392,2.146C453.963,1059.932,453.995,1060.18,453.974,1060.184"/>
		<path clip-path="url(#SVGID_15_)" fill="#263238" d="M492.141,804.446c-0.286-0.19,3.629-6.432,7.975-14.39
			c4.365-7.951,7.516-14.608,7.829-14.472c0.145,0.066-0.458,1.816-1.64,4.561c-1.182,2.746-2.964,6.479-5.155,10.479
			c-2.194,4-4.375,7.511-6.051,9.986C493.422,803.082,492.272,804.535,492.141,804.446"/>
		<g opacity="0.3" clip-path="url(#SVGID_15_)">
			<g>
				<defs>
					<rect id="SVGID_7_" x="498.17" y="715.639" width="80.218" height="79.391"/>
				</defs>
				<clipPath id="SVGID_18_">
					<use xlink:href="#SVGID_7_"  overflow="visible"/>
				</clipPath>
				<path clip-path="url(#SVGID_18_)" d="M499.451,795.029c11.823-13.834,24.64-26.815,38.32-38.817
					c3.74-3.282,7.807-6.62,12.717-7.436c5.997-0.994,12.086,2.096,16.244,6.529c4.156,4.435,6.737,10.082,9.244,15.615
					c5.942-14.618-0.224-31.077-6.346-45.624c-1.991-4.73-5.447-10.35-10.525-9.59c-2.711,0.407-4.745,2.609-6.535,4.682
					c-19.645,22.807-37.828,46.869-54.398,71.996"/>
			</g>
		</g>
		<g opacity="0.3" clip-path="url(#SVGID_15_)">
			<g>
				<defs>
					<rect id="SVGID_6_" x="658.298" y="679.811" width="41.409" height="192.854"/>
				</defs>
				<clipPath id="SVGID_19_">
					<use xlink:href="#SVGID_6_"  overflow="visible"/>
				</clipPath>
				<path clip-path="url(#SVGID_19_)" d="M698.858,686.996l0.849-7.188c-8.638,0.828-19.259,1.845-26.16,7.101
					c-8.049,6.138-11.22,16.594-13.931,26.346c-6.166,22.195,11.326,136.391,10.438,159.407c7.658-3.25,13.036-52.258,14.412-60.464
					c3.353-19.986-3.429-32.463-1.376-38.028c2.051-5.566,2-11.646,2.169-17.575C686.006,730.102,688.635,711.45,698.858,686.996"/>
			</g>
		</g>
		<path clip-path="url(#SVGID_15_)" fill="#263238" d="M586.13,320.483c-10.981-13.612-7.387-35.351,5.181-47.514
			c12.564-12.163,31.681-15.664,48.926-12.764c24.963,4.196,47.433,21.153,58.316,44.008c5.878,12.35,9.085,26.951,19.883,35.355
			c9.49,7.385,22.531,8.036,33.333,13.322c14.479,7.09,23.81,22.247,27.123,38.023c3.315,15.776,1.325,32.191-2.016,47.961
			c-3.063,14.474-7.151,30.115-0.935,43.539c6.061,13.091,20.224,20.224,29.549,31.235c17.537,20.715,13.559,55.968-8.155,72.251
			c-6.926,5.191-15.675,9.141-18.981,17.137c-3.021,7.305-0.445,15.583-0.603,23.483c-0.4,20.339-22.823,37.072-42.437,31.661
			c-9.897-2.729-19.021-10.035-29.198-8.642c-10.106,1.384-16.853,10.722-25.067,16.772c-16.157,11.902-40.906,10.075-55.137-4.07
			c-5.957-5.923-10.746-13.987-18.865-16.145c-8.104-2.148-16.627,2.505-24.935,1.373c-10.871-1.481-18.017-12.276-21.227-22.771
			c-3.209-10.494-4.073-21.867-9.5-31.404c-7.105-12.487-20.634-19.56-32.001-28.348c-25.091-19.396-41.192-49.97-42.988-81.631
			c-1.799-31.662,10.738-63.863,33.471-85.976"/>
		<path clip-path="url(#SVGID_15_)" fill="#EF9D78" d="M434.006,592.553c-21.698,24.886-30.252,60.622-22.174,92.634
			c8.076,32.009,34.853,78.788,65.759,90.398c20.044-14.688,45.806-35.209,64.497-51.59c12.098-10.601,18.512-26.096,24.505-41.02
			c3.456-8.608,6.967-17.916,4.796-26.937c-1.595-6.643-6.095-12.184-10.831-17.107c-30.41-31.626-76.754-47.083-120.059-40.045"/>
		<path clip-path="url(#SVGID_15_)" fill="#EF9D78" d="M525.796,362.145L525.796,362.145c11.495-23.311,37.738-35.394,62.923-28.977
			l77.38,19.726c38.671,12.465,68.946,72.301,46.148,124.724c-18.002,41.394-36.443,93.402-54.943,121.969
			c-37.196,57.442-88.04,44.317-88.04,44.317l-27.449,61.223L429.62,599.91L525.796,362.145z"/>
		<path clip-path="url(#SVGID_15_)" fill="#263238" d="M656.427,493.806c1.459-0.549,5.251,6.688,13.656,10.73
			c8.339,4.157,16.592,2.824,17.006,4.293c0.226,0.671-1.647,2.032-5.278,2.684c-3.583,0.668-8.999,0.376-14.219-2.177
			c-5.216-2.56-8.683-6.616-10.257-9.811C655.713,496.295,655.727,494.032,656.427,493.806"/>
		<path clip-path="url(#SVGID_15_)" fill="#263238" d="M568.81,453.912c1.65-0.304,5.397,7.746,14.428,13.332
			c8.959,5.694,18.164,5.765,18.529,7.339c0.206,0.723-1.938,1.792-6,1.824c-4.003,0.059-9.979-1.179-15.584-4.695
			c-5.605-3.52-9.183-8.265-10.729-11.8C567.873,456.334,568.025,454.021,568.81,453.912"/>
		<path clip-path="url(#SVGID_15_)" fill="#263238" d="M605.941,539.473c0.173-0.501,5.883,0.934,14.959,3.64
			c2.274,0.741,4.529,1.223,5.555-0.102c1.209-1.348,1.338-4.099,1.406-7.1c0.288-6.177,0.594-12.647,0.906-19.434
			c1.52-27.572,3.652-49.853,4.762-49.781c1.107,0.071,0.779,22.477-0.742,50.049c-0.43,6.772-0.828,13.234-1.225,19.411
			c-0.272,2.843-0.098,6.275-2.655,9.047c-1.31,1.368-3.434,1.839-4.992,1.597c-1.586-0.193-2.819-0.712-3.93-1.125
			C611.138,542.31,605.76,539.971,605.941,539.473"/>
		<path clip-path="url(#SVGID_15_)" fill="#D37A57" d="M569.164,644.055c0,0-44.812-16.805-75.023-59.813
			c0,0,1.695,52.515,68.155,75.199L569.164,644.055z"/>
		<path clip-path="url(#SVGID_15_)" fill="#263238" d="M575.835,424.836c1.427-2.292,10.288,0.814,21.267,1.787
			c10.962,1.193,20.258-0.114,21.207,2.413c0.406,1.197-1.592,3.21-5.59,4.876c-3.965,1.667-9.971,2.779-16.549,2.136
			c-6.576-0.658-12.246-2.923-15.808-5.334C576.766,428.301,575.201,425.931,575.835,424.836"/>
		<path clip-path="url(#SVGID_15_)" fill="#263238" d="M674.708,449.8c2.868-0.019,6.396,7.036,12.509,13.789
			c5.907,6.936,12.468,11.379,12.045,14.188c-0.262,1.301-2.645,1.853-6.403,0.738c-3.723-1.076-8.693-4.045-12.826-8.75
			c-4.126-4.706-6.403-9.992-6.961-13.79C672.486,452.134,673.368,449.875,674.708,449.8"/>
		<path clip-path="url(#SVGID_15_)" fill="#D37A57" d="M586.275,563.173c0,0,5.265-2.752,2.824-12.853
			c-2.443-10.106-15.296-19.267-23.434-10.955c0,0-8.219,0.635-4.987,10.109c3.234,9.475,21.958,22.855,25.451,15.236"/>
		<path clip-path="url(#SVGID_15_)" fill="#263238" d="M583.215,570.892c-1.499-0.257,0.782-10.122-6.026-19.089
			c-6.786-8.984-17.557-10.327-17.313-11.724c0.004-0.65,2.785-1.369,7.25-0.455c4.388,0.864,10.417,3.744,14.583,9.228
			c4.148,5.493,5.027,11.734,4.418,15.858C585.543,568.92,583.875,571.108,583.215,570.892"/>
		<path clip-path="url(#SVGID_15_)" fill="#263238" d="M459.629,329.919c-12.031,9.226-19.185,24.48-18.586,39.632
			c0.335,8.479,2.404,18.489-3.845,24.231c-6.356,5.845-16.368,2.711-25.006,2.754c-15.028,0.079-28.987,12.591-30.707,27.524
			c-0.615,5.357,0.084,11.154-2.649,15.801c-2.844,4.841-8.548,7.009-13.347,9.918c-11.924,7.226-19.537,21.057-19.267,34.998
			c0.268,13.941,8.412,27.465,20.604,34.226c5.548,3.079,12.045,5.001,16.097,9.882c4.646,5.599,4.824,13.528,7.099,20.441
			c4.363,13.25,17.724,22.989,31.674,23.091c13.951,0.102,27.45-9.442,32.009-22.628"/>
		<path clip-path="url(#SVGID_15_)" fill="#263238" d="M585.051,308.217c-4.547,13.251-2.884,28.493,4.408,40.454
			c7.291,11.963,20.079,20.421,33.938,22.455c10.758,1.579,23.593,0.216,30.531,8.58c7.303,8.8,2.978,22.83,8.751,32.698
			c8.251,14.102,22.317,25.354,35.664,34.778c10.31,7.278-1.482,27.542,3.008,39.333c4.496,11.79,22.983,38.699,35.595,39.18
			c2.755-10.548,18.454-56.867,18.729-67.766c0.274-10.897-2.18-22.219-8.924-30.785c-3.696-4.695-8.567-8.442-11.77-13.488
			c-6.91-10.897-4.587-25.009-6.828-37.716c-2.896-16.382-14.235-31.036-29.369-37.946c-12.587-5.75-27.352-6.387-38.979-13.896
			c-8.596-5.553-14.737-14.432-23.647-19.464c-17.347-9.799-39.085-2.331-57.013,6.364"/>
		<path clip-path="url(#SVGID_15_)" fill="#263238" d="M501.516,440.053c-1.794-1.196-13.685,7.809-1.944,14.989
			c20.566,12.583,38.236-29.924,37.479-44.049c10.479-4.425,21.084-8.922,30.311-15.93c9.225-7.009,23.029-29.959,25.497-41.562
			c7.869,3.188,45.892,3.476,42.594,1.195c-7.504-5.194-22.691-16.333-24.704-25.052c-4.382-18.936-17.832-35.405-35.598-40.359
			c-17.764-4.951-39.167,3.153-48.972,20.36c-21.156-6.988-46.235-0.703-63.116,15.812c-16.881,16.518-24.879,42.6-20.133,65.641
			c1.246,6.032,3.283,12.333,1.348,18.313c-2.395,7.412-9.832,11.411-15.749,16.207c-16.14,13.082-23.088,36.202-21.102,57.072
			c1.987,20.871,5.545,29.174,15.878,36.714c20.213,14.76-21.793,52.454,15.835,65.194"/>
		<path clip-path="url(#SVGID_15_)" fill="#455A64" d="M782.376,584.132c-0.103-0.15,1.329-0.935,3.541-3.006
			c2.171-2.062,5.312-5.396,7.577-10.664c2.316-5.152,3.898-12.35,2.124-20.231c-1.77-7.901-7.731-15.434-15.723-21.852
			c-7.757-6.673-17.947-12.617-25.159-23.106c-7.295-10.537-8.493-24.887-6.19-38.493c2.272-13.814,8.027-27.231,11.717-41.538
			c1.854-7.144,3.021-14.575,2.775-22.118c-0.246-7.494-1.916-15.146-5.93-21.632c-3.988-6.496-10.137-11.34-16.874-14.617
			c-6.763-3.307-14.064-5.246-21.32-6.494c-7.276-1.216-14.718-1.898-21.781-4.177c-7.029-2.099-13.747-6.728-16.937-13.344
			c-3.298-6.481-4.009-13.368-5.453-19.597c-1.278-6.294-3.65-11.978-7.333-16.664c-7.212-9.498-17.896-14.765-27.779-16.622
			c-10.037-1.824-19.446,0.134-26.901,3.237c-7.495,3.188-13.202,7.466-17.435,11.34c-8.395,7.945-11.181,13.955-11.513,13.708
			c-0.042-0.026,0.121-0.394,0.489-1.089c0.39-0.679,0.891-1.749,1.759-3.017c1.619-2.608,4.301-6.31,8.463-10.439
			c4.188-4.078,9.92-8.598,17.581-12.03c7.612-3.345,17.369-5.558,27.918-3.783c10.363,1.815,21.604,7.169,29.373,17.189
			c3.942,4.895,6.592,11.158,7.93,17.59c1.497,6.377,2.306,13.088,5.335,18.911c2.908,5.885,8.714,9.902,15.376,11.905
			c6.662,2.126,13.947,2.794,21.391,4.007c7.451,1.261,15.013,3.237,22.14,6.709c7.092,3.436,13.764,8.637,18.106,15.715
			c4.359,7.055,6.108,15.244,6.353,23.1c0.25,7.899-0.995,15.647-2.91,22.936c-3.823,14.597-9.58,27.902-11.837,41.267
			c-2.299,13.206-1.185,26.794,5.546,36.673c6.645,9.925,16.643,16.008,24.459,22.864c8.038,6.62,14.276,14.654,15.989,23.102
			c1.714,8.371-0.145,15.814-2.698,21.072c-2.509,5.38-5.892,8.681-8.234,10.636C783.92,583.545,782.376,584.132,782.376,584.132"/>
		<path clip-path="url(#SVGID_15_)" fill="#455A64" d="M712.808,447.184c0.262,0.106-1.107,3.245-2.489,9.187
			c-1.327,5.911-2.554,14.817-0.802,25.547c0.854,5.339,2.445,11.104,5.134,16.851c2.598,5.834,6.571,11.24,11.114,17.012
			c2.194,2.93,4.43,6.07,6.053,9.729c1.663,3.623,2.489,7.866,2.138,12.035c-0.667,8.43-4.807,15.917-7.898,23.548
			c-3.235,7.554-5.052,15.645-2.091,22.66c2.767,7.001,8.374,12.341,13.473,17.436c5.172,5.078,10.173,10.199,13.325,16.182
			c1.497,3.001,2.533,6.184,2.859,9.32c0.203,3.129,0.084,6.175-0.674,8.932c-2.804,11.247-10.657,17.666-16.224,20.227
			c-2.899,1.235-5.298,1.77-6.935,1.909c-1.642,0.104-2.492,0.106-2.496,0.002c-0.064-0.354,3.511-0.234,8.917-2.952
			c5.167-2.746,12.348-9.128,14.687-19.652c1.189-5.179,0.688-11.163-2.316-16.634c-3.004-5.483-7.83-10.35-13.062-15.377
			c-5.123-5.053-11.09-10.49-14.274-18.337c-1.56-3.883-2.096-8.309-1.513-12.567c0.543-4.272,1.965-8.345,3.57-12.273
			c3.203-7.816,7.147-15.099,7.745-22.64c0.8-7.582-3.207-14.212-7.486-19.908c-4.385-5.683-8.587-11.553-11.16-17.633
			c-2.698-6.022-4.22-12.025-4.968-17.557c-1.533-11.115,0.064-20.215,1.761-26.145c0.866-2.98,1.723-5.239,2.43-6.709
			C712.31,447.894,712.715,447.143,712.808,447.184"/>
		<path clip-path="url(#SVGID_15_)" fill="#455A64" d="M372.51,518.383c-0.043,0.047-0.481-0.275-1.295-0.956
			c-0.831-0.659-1.956-1.773-3.291-3.342c-2.617-3.137-6.04-8.428-7.536-16.112c-1.521-7.489-0.935-17.875,5.561-26.932
			c6.241-8.893,18.053-16.283,31.907-15.618l-1.254,1.662c-2.538-7.121-4.454-15.111-3.82-23.594
			c0.491-8.403,4.505-17.377,12.132-22.777c3.706-2.755,8.388-4.506,13.271-4.538c4.941,0.022,9.494,1.928,13.703,3.878
			c4.223,1.945,8.349,4.146,12.697,4.89c4.32,0.771,8.772-0.447,11.994-3.555c4.828-4.52,7.009-11.243,7.433-17.837
			c0.533-6.672-0.118-13.465,0.578-20.249c1.383-13.606,7.906-25.775,16.709-34.374c8.808-8.748,20.118-13.467,30.701-14.91
			c10.658-1.435,20.717,0.22,28.838,3.625l-1.283,0.508c3.58-7.401,9.845-11.967,15.612-14.324c5.838-2.425,11.388-2.77,15.71-2.346
			c4.367,0.458,7.535,1.783,9.56,2.776c1.969,1.136,2.917,1.834,2.872,1.9c-0.142,0.39-4.011-2.913-12.522-3.593
			c-4.184-0.242-9.495,0.251-15.004,2.701c-5.447,2.385-11.234,6.838-14.413,13.719l-0.4,0.859l-0.886-0.354
			c-7.864-3.136-17.548-4.588-27.742-3.093c-10.139,1.51-20.825,6.088-29.14,14.463c-8.321,8.237-14.46,19.872-15.718,32.724
			c-0.655,6.417,0.009,13.175-0.523,20.2c-0.449,6.958-2.744,14.542-8.362,19.793c-3.751,3.686-9.475,5.257-14.497,4.293
			c-5.043-0.892-9.298-3.244-13.458-5.152c-4.13-1.936-8.292-3.619-12.469-3.64c-4.163,0.014-8.26,1.488-11.595,3.945
			c-6.882,4.856-10.578,12.832-11.108,20.688c-0.656,7.904,1.084,15.597,3.484,22.535l0.612,1.775l-1.872-0.111
			c-12.794-0.764-24.093,6.017-30.101,14.313c-6.25,8.405-7.044,18.226-5.788,25.489c1.231,7.436,4.338,12.688,6.713,15.899
			C370.952,516.838,372.644,518.238,372.51,518.383"/>
		<path clip-path="url(#SVGID_15_)" fill="#455A64" d="M584.121,325.295c0.146,0.521-4.414-0.221-10.23,3.973
			c-5.794,4.101-10.811,14.028-12.285,26.622l-0.127,1.082l-1.068-0.089c-10.709-0.885-24.248,3.285-33.403,13.955
			c-2.205,2.652-4.144,5.756-5.367,9.043c-1.164,3.376-1.751,7.124-2.325,10.975c-0.583,3.849-1.112,7.852-2.324,11.88
			c-1.053,3.996-3.631,8.168-7.156,10.711c-7.525,5.875-16.77,6.893-24.851,8.178c-8.241,1.114-15.978,2.482-22.654,5.866
			c-13.484,6.532-22.355,17.876-26.246,28.414c-4.034,10.643-3.885,20.187-3.095,26.46c0.807,6.35,2.152,9.705,1.871,9.793
			c-0.095,0.037-0.47-0.777-1.098-2.374c-0.561-1.613-1.359-4.023-1.918-7.242c-1.157-6.355-1.67-16.189,2.265-27.367
			c3.799-11.076,12.896-23.135,27.012-30.146c6.992-3.64,15.27-5.153,23.438-6.289c8.081-1.284,16.852-2.422,23.431-7.627
			c6.478-4.566,7.178-13.149,8.438-20.698c0.598-3.863,1.208-7.748,2.524-11.501c1.438-3.764,3.521-6.987,5.945-9.865
			c9.983-11.392,24.355-15.522,35.708-14.361l-1.191,0.991c1.804-13.112,7.333-23.277,13.771-27.409
			c3.139-2.08,6.054-2.793,7.972-2.978C583.113,325.184,584.118,325.186,584.121,325.295"/>
		<path clip-path="url(#SVGID_15_)" fill="#EF9D78" d="M505.896,446.509c6.469-12.671-2.22-28.609-16.447-28.577
			c-7.811,0.016-16.211,4.25-23.195,17.638c-18.618,35.703,21.065,47.03,21.662,46.041
			C488.282,480.994,498.323,461.349,505.896,446.509"/>
		<path clip-path="url(#SVGID_15_)" fill="#D37A57" d="M484.063,462.396c-0.098-0.196-0.851,0.11-2.152,0.045
			c-1.27-0.067-3.2-0.66-4.7-2.33c-3.048-3.352-3.102-10.995,0.082-17.521c1.601-3.297,3.896-6.037,6.384-7.997
			c2.452-2.043,5.092-2.989,7.167-2.333c2.116,0.548,2.866,2.385,2.781,3.619c-0.041,1.248-0.64,1.841-0.484,2.001
			c0.055,0.141,1.08-0.197,1.561-1.824c0.222-0.784,0.244-1.846-0.238-2.969c-0.492-1.143-1.567-2.154-2.963-2.701
			c-2.854-1.245-6.652-0.004-9.386,2.146c-2.889,2.086-5.544,5.123-7.345,8.826c-3.523,7.314-3.35,15.967,1.031,20.149
			c2.171,1.963,4.661,2.299,6.183,2.021C483.548,463.226,484.154,462.525,484.063,462.396"/>
		<path clip-path="url(#SVGID_15_)" fill="#263238" d="M470.327,942.332c-3.153-5.858-11.266-9.467-11.266-9.467l-6.758-16.671
			c0,0,2.704-5.858,0-13.067c-2.704-7.212-22.53-49.118-22.079-50.468l-5.133-0.303c0,0,18.276,44.35,20.077,46.603
			c1.803,2.252,4.434,15.448-0.072,17.249c-4.507,1.803-14.082-3.074-18.137-7.13c-4.055-4.056-16.971-34.569-19.224-40.879
			c-2.255-6.309,1.76-15.093,1.76-15.093l3.607-8.56h-4.958c0,0-3.155,9.012-4.956,17.574c-1.803,8.561,18.475,45.96,21.628,50.016
			c3.154,4.058,13.97,7.212,19.828,11.268c5.858,4.055,4.956,16.673,4.956,16.673s-4.956,6.758-5.406,14.868
			c-0.452,8.111,17.573,46.414,29.74,54.525c12.166,8.11,26.586,2.252,27.937,2.706c1.352,0.447,4.507-6.313,4.507-6.313
			S473.481,948.19,470.327,942.332 M486.937,1009.307c-6.493-0.519-13.171-4.966-16.737-9.675
			c-1.479-1.953-17.252-29.406-19.287-34.519c-3.551-8.921-1.095-13.864,0.197-19.089c1.876-7.586,13.599-3.141,13.599-3.141
			s34.514,59.637,33.734,61.457C497.664,1006.157,493.431,1009.827,486.937,1009.307"/>
		<path clip-path="url(#SVGID_15_)" fill="#263238" d="M506.375,1005.864c0,0,100.502-38.245,105.192-42.578
			c4.695-4.332,21.661-29.24,21.661-29.24s8.301,1.446,7.22,3.612c-1.085,2.164-16.968,27.07-33.931,34.291
			c-16.969,7.22-104.648,40.226-104.648,40.226L506.375,1005.864z"/>
		<path clip-path="url(#SVGID_15_)" fill="#E8505B" d="M188.36,690.728l-41.402,238.714c0,0-15.241,46.447-13.063,56.607
			c2.177,10.161,9.877,53.993,33.101,67.782c23.223,13.79,69.228,4.791,78.661-4.642c9.435-9.436,28.028-26.727,30.205-34.714
			c2.177-7.979,17.445-129.364,17.445-129.364l6.053-34.049c0,0-22.498,7.261-36.285-2.175
			c-13.79-9.436-31.931-50.075-31.931-50.075l-20.321,31.205L188.36,690.728z"/>
		<path clip-path="url(#SVGID_15_)" fill="#263238" d="M231.143,798.813c0.035,0.024-0.24,0.484-0.791,1.349
			c-0.629,0.952-1.443,2.19-2.456,3.726c-2.138,3.233-5.215,7.922-8.916,13.78c-7.446,11.69-17.387,28.058-28.25,46.208
			c-10.864,18.158-20.663,34.618-27.951,46.421c-3.632,5.909-6.631,10.654-8.748,13.903c-1.02,1.534-1.839,2.772-2.472,3.723
			c-0.576,0.842-0.894,1.273-0.93,1.254c-0.033-0.022,0.218-0.496,0.731-1.385c0.583-0.977,1.34-2.252,2.281-3.834
			c2.062-3.448,4.921-8.229,8.423-14.091c7.14-12.033,16.884-28.454,27.652-46.6c10.866-18.155,20.926-34.466,28.563-46.054
			c3.794-5.803,6.983-10.427,9.238-13.588c1.088-1.483,1.966-2.682,2.639-3.604C230.771,799.204,231.11,798.788,231.143,798.813"/>
		<path clip-path="url(#SVGID_15_)" fill="#263238" d="M294.157,880.341c0.03,0.028-0.265,0.367-0.855,0.992
			c-0.608,0.603-1.433,1.572-2.662,2.646c-2.396,2.199-6.133,5.203-11.444,7.736c-2.672,1.196-5.722,2.332-9.147,2.882
			c-3.402,0.622-7.153,0.804-11.014,0.268c-3.858-0.498-7.849-1.53-11.749-3.171c-3.887-1.664-7.727-3.768-11.412-6.337
			c-3.616-2.66-6.811-5.679-9.6-8.849c-2.715-3.24-5.033-6.604-6.922-9.993c-3.76-6.793-5.813-13.553-6.87-19.296
			c-1.036-5.763-1.101-10.522-0.928-13.776c0.056-1.628,0.272-2.886,0.356-3.736c0.106-0.851,0.182-1.293,0.222-1.289
			c0.107,0.009-0.038,1.805-0.12,5.041c-0.03,3.233,0.163,7.936,1.29,13.604c1.145,5.646,3.252,12.277,6.999,18.922
			c1.882,3.315,4.176,6.603,6.849,9.77c2.747,3.094,5.877,6.044,9.412,8.645c3.595,2.507,7.373,4.589,11.17,6.228
			c3.808,1.619,7.689,2.643,11.438,3.163c3.753,0.545,7.393,0.405,10.71-0.157c3.342-0.489,6.333-1.555,8.969-2.678
			c5.246-2.383,9.02-5.242,11.485-7.322C292.789,881.523,294.08,880.263,294.157,880.341"/>
		<path clip-path="url(#SVGID_15_)" fill="#EF9D78" d="M231.143,798.813l30.968-19.914c0,0,82.568-33.544,90.954-35.479
			c8.386-1.934,18.062-5.805,22.575,0c4.519,5.808,51.607,39.993,51.607,39.993s27.738,52.248,27.738,59.345s7.741,16.18,0,18.735
			l-7.741,2.554c0,0-2.581,12.651-12.257,14.064c-9.674,1.415-12.902,0-12.902,0s-0.644,12.653-8.384,11.871
			c-7.741-0.779-20.642-11.871-20.642-11.871s-5.806,6.576-10.321,6.576c-4.516,0-18.707-9.675-18.707-9.675l-27.439-23.869
			l-24.165-8.386l-13.064,8.306c0,0-27.911,2.374-32.099,0.1C263.075,848.888,231.143,798.813,231.143,798.813"/>
		<path clip-path="url(#SVGID_15_)" fill="#D37A57" d="M389.681,880.341c-0.079,0.024-0.58-1.282-1.422-3.657
			c-0.406-1.195-0.92-2.645-1.625-4.292c-0.69-1.647-1.382-3.566-2.382-5.584c-0.935-2.044-1.97-4.278-3.257-6.589
			c-1.184-2.365-2.68-4.762-4.203-7.312c-3.188-5.01-7.015-10.316-11.512-15.492c-4.547-5.132-9.31-9.619-13.863-13.436
			c-2.331-1.841-4.51-3.639-6.703-5.116c-2.123-1.579-4.203-2.897-6.111-4.091c-1.868-1.254-3.679-2.188-5.225-3.085
			c-1.539-0.915-2.911-1.615-4.04-2.173c-2.245-1.141-3.474-1.81-3.443-1.888c0.034-0.075,1.324,0.454,3.642,1.474
			c1.166,0.498,2.575,1.138,4.153,2.004c1.586,0.849,3.437,1.738,5.348,2.955c1.949,1.156,4.072,2.447,6.237,4
			c2.237,1.459,4.459,3.244,6.832,5.076c4.631,3.805,9.466,8.314,14.062,13.502c4.541,5.227,8.38,10.608,11.55,15.696
			c1.508,2.591,2.987,5.025,4.144,7.433c1.256,2.351,2.259,4.623,3.152,6.707c0.958,2.053,1.599,4.002,2.235,5.688
			c0.651,1.675,1.106,3.156,1.444,4.377C389.404,878.97,389.76,880.318,389.681,880.341"/>
		<path clip-path="url(#SVGID_15_)" fill="#D37A57" d="M422.026,879.546c-0.033,0.02-0.271-0.321-0.695-0.99
			c-0.407-0.681-1.067-1.659-1.768-2.995c-1.433-2.657-3.252-6.645-5.035-11.738c-1.806-5.088-3.534-11.267-5.581-18.064
			c-2.101-6.762-4.546-14.224-8.719-21.211c-4.092-7.044-9.827-12.481-15.515-16.634c-5.718-4.166-11.216-7.52-15.409-10.955
			c-4.23-3.375-7.165-6.73-8.76-9.309c-0.782-1.303-1.351-2.33-1.642-3.076c-0.319-0.725-0.469-1.116-0.433-1.132
			c0.125-0.058,0.762,1.49,2.456,3.951c1.69,2.463,4.652,5.656,8.895,8.91c4.208,3.309,9.719,6.569,15.534,10.731
			c5.795,4.154,11.701,9.7,15.888,16.905c4.262,7.143,6.694,14.7,8.748,21.504c1.996,6.84,3.636,13.019,5.327,18.108
			c1.672,5.097,3.357,9.097,4.657,11.801C421.31,878.033,422.113,879.497,422.026,879.546"/>
		<path clip-path="url(#SVGID_15_)" fill="#D37A57" d="M445.295,864.589c-0.041,0.009-0.158-0.379-0.349-1.123
			c-0.209-0.877-0.463-1.951-0.774-3.261c-0.303-1.422-0.7-3.149-1.288-5.129c-0.569-1.982-1.106-4.272-1.98-6.718
			c-0.796-2.472-1.682-5.172-2.839-7.996c-1.037-2.868-2.422-5.82-3.815-8.952c-2.963-6.18-6.61-12.788-11.026-19.354
			c-4.484-6.522-9.295-12.341-13.95-17.371c-2.402-2.444-4.636-4.821-6.927-6.839c-2.199-2.115-4.384-3.93-6.389-5.582
			c-1.955-1.709-3.885-3.05-5.521-4.306c-1.625-1.275-3.088-2.281-4.298-3.087c-1.102-0.767-2.009-1.399-2.749-1.914
			c-0.622-0.451-0.937-0.704-0.916-0.739c0.02-0.035,0.379,0.15,1.043,0.538c0.773,0.463,1.721,1.039,2.874,1.732
			c1.253,0.75,2.762,1.703,4.431,2.932c1.681,1.214,3.657,2.519,5.659,4.195c2.051,1.617,4.28,3.408,6.525,5.508
			c2.336,2.003,4.616,4.368,7.057,6.813c4.737,5.025,9.616,10.879,14.136,17.455c4.456,6.62,8.103,13.305,11.038,19.56
			c1.377,3.167,2.74,6.154,3.743,9.063c1.126,2.862,1.972,5.593,2.725,8.094c0.824,2.478,1.309,4.797,1.819,6.804
			c0.528,2.004,0.864,3.761,1.1,5.198c0.222,1.329,0.406,2.425,0.558,3.313C445.295,864.181,445.336,864.582,445.295,864.589"/>
		<path clip-path="url(#SVGID_15_)" fill="#D37A57" d="M323.777,776.535c0.032,0.192-1.604,0.44-3.984,1.471
			c-2.368,1.008-5.479,2.961-7.852,6.091c-2.37,3.134-3.409,6.662-3.735,9.214c-0.346,2.571-0.141,4.21-0.335,4.234
			c-0.125,0.027-0.636-1.597-0.495-4.316c0.121-2.682,1.086-6.491,3.625-9.843c2.537-3.351,5.939-5.312,8.491-6.155
			C322.067,776.355,323.771,776.407,323.777,776.535"/>
		<path clip-path="url(#SVGID_15_)" fill="#D37A57" d="M346.78,754.682c0.188,0.306-3.817,2.839-7.763,7.045
			c-3.986,4.175-6.298,8.313-6.611,8.14c-0.274-0.108,1.631-4.629,5.754-8.95C342.247,756.564,346.659,754.416,346.78,754.682"/>
		<path clip-path="url(#SVGID_15_)" fill="#EF9D78" d="M670.446,485.363c-3.922,1.619-4.718,6.307-4.657,10.55
			c0.077,5.311,1.415,6.176,5.752,15.073c7.085,14.54,15.565,42.107,15.565,42.107s-6.952,69.629-2.374,85.974
			c4.131,14.756,18.073,18.532,18.073,18.532l-6.348,53.783h75.953c0,0-2.702-52.054-4.334-67.921
			c-1.724-16.781-0.574-118.279-0.574-118.279l-7.464-54.198l-17.59-30.415c0,0-9.154,5.501-5.188,16.651s6.582,32.535,6.582,32.535
			l-43.973-66.194c0,0-8.645,2.068-9.165,18.064c0,0-12.791,8.324-4.561,21.834c9.187,15.084,18.742,60.409,15.387,60.409
			l-27.289-40.076L670.446,485.363z"/>
		<path clip-path="url(#SVGID_15_)" fill="#D37A57" d="M696.458,711.381c0,0,0.091-1.211,0.339-3.562
			c0.266-2.383,0.65-5.864,1.153-10.418c1.052-9.17,2.592-22.609,4.565-39.836l0.212,0.316c-3.399-1.072-6.697-2.875-9.672-5.366
			c-2.983-2.47-5.562-5.722-7.261-9.573c-1.82-3.827-2.285-8.25-2.664-12.682c-0.264-4.461-0.374-9.079-0.325-13.832
			c0.208-19.025,1.683-40.29,3.827-63.382l0.02,0.188c-3.56-11.199-7.492-23.018-12.437-34.991
			c-1.244-2.989-2.575-5.965-4.073-8.908c-1.413-2.99-3.251-5.765-4.339-9.132c-0.484-1.708-0.558-3.467-0.544-5.188
			c0.039-1.731,0.199-3.495,0.753-5.208c0.531-1.693,1.555-3.392,3.181-4.389c0.819-0.512,1.647-0.789,2.434-1.128l2.407-0.999
			l0.41-0.167l0.246,0.365c9.052,13.275,18.624,27.32,28.474,41.768l-1.027,0.208c0.436-3.358,0.239-6.972-0.14-10.492
			c-0.423-3.536-0.985-7.092-1.814-10.617c-1.576-7.071-3.787-14.095-6.354-21.065c-2.502-7.019-5.649-13.805-8.715-20.815
			c-1.455-3.566-2.217-7.652-1.229-11.549c0.899-3.9,3.242-7.361,6.494-9.791l-0.257,0.422c0.432-3.357,1.081-6.852,2.421-10.226
			c0.669-1.686,1.532-3.33,2.662-4.824c1.165-1.473,2.491-2.865,4.54-3.522l0.37-0.117l0.248,0.369
			c0.159,0.241,0.332,0.504,0.507,0.768c14.88,22.398,29.42,44.289,43.458,65.429l-1.055,0.393
			c-1.165-8.823-2.569-17.536-4.642-25.935c-0.529-2.096-1.114-4.166-1.806-6.183c-0.693-2.08-1.205-4.293-1.097-6.529
			c0.173-4.518,2.758-8.637,6.428-11.091l0.477-0.318l0.297,0.517c6.009,10.399,11.864,20.54,17.574,30.428l0.056,0.093l0.014,0.104
			c2.596,18.959,5.074,37.049,7.422,54.204l0.004,0.036v0.036c-0.316,28.073-0.48,53.759-0.445,76.49
			c0.024,11.369,0.087,21.998,0.351,31.81c0.137,4.913,0.414,9.577,0.868,14.071c0.376,4.487,0.655,8.769,0.93,12.83
			c1.05,16.244,1.697,28.995,2.138,37.679c0.204,4.321,0.358,7.642,0.465,9.914c0.096,2.241,0.104,3.399,0.104,3.399
			s-0.113-1.151-0.255-3.393c-0.142-2.271-0.346-5.586-0.613-9.902c-0.541-8.681-1.276-21.427-2.41-37.661
			c-0.297-4.056-0.598-8.335-0.994-12.812c-0.472-4.46-0.771-9.2-0.931-14.105c-0.301-9.825-0.396-20.454-0.46-31.823
			c-0.109-22.742-0.003-48.428,0.259-76.507l0.004,0.072c-2.372-17.148-4.879-35.235-7.504-54.188l0.064,0.197
			c-5.719-9.881-11.588-20.018-17.607-30.41l0.772,0.199c-3.309,2.223-5.752,6.07-5.876,10.182
			c-0.098,2.064,0.372,4.099,1.037,6.105c0.713,2.064,1.309,4.159,1.843,6.278c2.1,8.479,3.508,17.198,4.682,26.073l0.33,2.476
			l-1.387-2.086c-14.049-21.135-28.594-43.024-43.475-65.419c-0.175-0.262-0.353-0.523-0.51-0.766l0.613,0.252
			c-1.439,0.455-2.837,1.736-3.854,3.082c-1.039,1.381-1.86,2.933-2.498,4.545c-1.287,3.229-1.925,6.641-2.348,9.927l-0.033,0.254
			l-0.229,0.168c-2.933,2.186-5.2,5.488-6,9.077c-0.919,3.605-0.222,7.425,1.169,10.839c3.023,6.919,6.22,13.821,8.718,20.854
			c2.581,7.012,4.802,14.08,6.39,21.219c0.833,3.558,1.402,7.155,1.825,10.743c0.377,3.607,0.603,7.171,0.115,10.837l-0.186,1.438
			l-0.838-1.229c-9.831-14.457-19.395-28.513-28.427-41.8l0.653,0.198c-1.555,0.685-3.345,1.275-4.687,2.034
			c-1.355,0.825-2.244,2.259-2.735,3.81c-0.508,1.554-0.672,3.233-0.705,4.895c-0.018,1.671,0.052,3.333,0.496,4.882
			c0.973,3.078,2.84,5.968,4.253,8.953c1.499,2.963,2.844,5.98,4.089,8.981c4.945,12.041,8.856,23.866,12.398,35.104l0.029,0.091
			l-0.01,0.097c-2.192,23.059-3.719,44.317-3.988,63.292c-0.064,4.744,0.031,9.34,0.274,13.775c0.363,4.412,0.8,8.718,2.556,12.452
			c3.289,7.577,9.982,12.519,16.459,14.656l0.241,0.079l-0.026,0.239c-2.091,17.212-3.726,30.641-4.838,39.806
			c-0.568,4.54-1.005,8.02-1.302,10.396C696.652,710.183,696.458,711.381,696.458,711.381"/>
		<path clip-path="url(#SVGID_15_)" fill="#D37A57" d="M730.025,529.696c-0.082,0.011-0.369-1.327-0.823-3.754
			c-0.417-2.431-1.156-5.924-2.136-10.217c-2.028-8.563-5.52-20.275-11.225-32.446c-5.656-12.197-12.186-22.521-17.109-29.831
			c-2.459-3.66-4.498-6.588-5.923-8.607c-1.415-2.023-2.168-3.164-2.104-3.213c0.063-0.05,0.94,1,2.474,2.941
			c1.539,1.935,3.689,4.797,6.243,8.405c5.112,7.208,11.792,17.523,17.491,29.807c5.745,12.26,9.139,24.111,10.97,32.761
			c0.875,4.339,1.495,7.871,1.772,10.329C729.971,528.327,730.104,529.685,730.025,529.696"/>
		<path clip-path="url(#SVGID_15_)" fill="#D37A57" d="M753.616,512.795c-0.304,0.124-2.789-5.15-5.553-11.785
			c-2.767-6.636-4.767-12.115-4.463-12.24c0.301-0.126,2.784,5.148,5.551,11.788C751.917,507.188,753.915,512.667,753.616,512.795"
			/>
		<path clip-path="url(#SVGID_15_)" fill="#E8505B" d="M690.394,689.115L690.394,689.115
			c-13.322,117.646-30.685,242.889-50.638,372.998h154.611c29.065-64.366,11.289-120.525,3.537-200.57l-25.493-181.734
			L690.394,689.115z"/>
		<path clip-path="url(#SVGID_15_)" fill="#263238" d="M639.756,1062.113c-0.022-0.003-0.003-0.262,0.053-0.767
			c0.07-0.565,0.162-1.303,0.276-2.23c0.279-2.035,0.674-4.903,1.179-8.567c1.088-7.504,2.645-18.236,4.564-31.466
			c3.912-26.625,9.298-63.285,15.25-103.776c5.833-40.554,10.762-77.313,14.011-103.958c1.652-13.32,2.903-24.111,3.75-31.568
			c0.432-3.67,0.766-6.55,1.008-8.585c0.119-0.933,0.215-1.668,0.292-2.232c0.071-0.501,0.115-0.758,0.138-0.756
			c0.021,0.003,0.015,0.262-0.021,0.769c-0.042,0.567-0.102,1.308-0.175,2.242c-0.187,2.044-0.447,4.928-0.782,8.608
			c-0.706,7.476-1.834,18.284-3.38,31.619c-3.038,26.678-7.84,63.467-13.67,104.029c-5.838,40.547-11.477,77.205-15.595,103.732
			c-2.075,13.207-3.758,23.918-4.938,31.413c-0.596,3.646-1.063,6.507-1.394,8.529c-0.164,0.926-0.297,1.654-0.396,2.215
			C639.831,1061.865,639.775,1062.115,639.756,1062.113"/>
	</g>
	<g clip-path="url(#SVGID_12_)">
		<defs>
			<rect id="SVGID_4_" width="1134" height="1134"/>
		</defs>
		<clipPath id="SVGID_20_">
			<use xlink:href="#SVGID_4_"  overflow="visible"/>
		</clipPath>
		<path clip-path="url(#SVGID_20_)" fill="#455A64" d="M974.746,1061.083H533.857l56.888-309.425
			c2.021-10.977,11.588-18.945,22.749-18.945h396.153c14.517,0,25.442,13.218,22.711,27.477L974.746,1061.083z"/>
		<path clip-path="url(#SVGID_20_)" fill="#455A64" d="M533.857,1061.083H366.633l0.671-0.503
			c14.917-11.185,32.927-17.49,51.566-18.044l119.585-3.518L533.857,1061.083z"/>
		<path clip-path="url(#SVGID_20_)" fill="#263238" d="M639.756,733.136c-0.021,0.115-1.228-0.229-3.566-0.242
			c-2.321-0.018-5.827,0.459-9.796,2.43c-3.938,1.94-8.337,5.423-11.748,10.691c-3.408,5.289-5.721,12.192-7.2,19.998
			c-1.439,7.825-2.704,16.519-4.266,25.787c-1.595,9.27-3.296,19.174-5.245,29.566c-3.843,20.797-8.395,43.597-13.342,67.488
			c-9.956,47.79-19.172,90.992-25.199,122.395c-3.032,15.696-5.37,28.421-6.956,37.218c-0.782,4.311-1.398,7.699-1.842,10.131
			c-0.212,1.081-0.385,1.945-0.521,2.629c-0.124,0.59-0.204,0.893-0.233,0.889c-0.027-0.005-0.002-0.317,0.068-0.917
			c0.093-0.687,0.213-1.563,0.358-2.651c0.372-2.447,0.887-5.856,1.541-10.186c1.39-8.833,3.556-21.595,6.443-37.327
			c5.736-31.473,14.773-74.735,24.729-122.51c4.945-23.89,9.543-46.667,13.461-67.438c1.989-10.379,3.739-20.264,5.39-29.515
			c1.621-9.263,2.945-17.898,4.474-25.785c1.565-7.863,3.998-14.899,7.568-20.277c3.59-5.378,8.159-8.857,12.243-10.767
			c4.113-1.931,7.726-2.308,10.08-2.184C638.572,732.688,639.756,733.136,639.756,733.136"/>
		<path clip-path="url(#SVGID_20_)" fill="#F5F5F5" d="M825.953,889.936c0,11.771-9.544,21.315-21.316,21.315
			c-11.775,0-21.319-9.544-21.319-21.315c0-11.77,9.544-21.313,21.319-21.313C816.409,868.622,825.953,878.166,825.953,889.936"/>
	</g>
	<g clip-path="url(#SVGID_12_)">
		<defs>
			<rect id="SVGID_3_" width="1134" height="1134"/>
		</defs>
		<clipPath id="SVGID_21_">
			<use xlink:href="#SVGID_3_"  overflow="visible"/>
		</clipPath>
		<path clip-path="url(#SVGID_21_)" fill="#263238" d="M1083.242,1061.441c0,0.328-232.164,0.592-518.486,0.592
			c-286.419,0-518.533-0.264-518.533-0.592c0-0.327,232.114-0.591,518.533-0.591
			C851.078,1060.851,1083.242,1061.114,1083.242,1061.441"/>
	</g>
	<polygon clip-path="url(#SVGID_12_)" fill="#E8505B" points="468.515,249.044 462.459,192.091 433.408,198.65 408.379,154.431 
		423.977,214.219 453.441,207.462 	"/>
	<polygon clip-path="url(#SVGID_12_)" fill="#E8505B" points="456.689,259.808 429.696,232.025 416.971,247.64 385.193,234.553 
		418.449,259.864 431.311,243.97 	"/>
	<polygon clip-path="url(#SVGID_12_)" fill="#E8505B" points="748.449,284.368 772.979,239.731 794.558,255.09 830.278,227.418 
		796.947,271.103 775.098,255.437 	"/>
	<polygon clip-path="url(#SVGID_12_)" fill="#E8505B" points="793.47,309.833 818.837,299.013 822.898,312.766 847.363,312.911 
		818.564,320.386 814.491,306.41 	"/>
	<g clip-path="url(#SVGID_12_)">
		<defs>
			<rect id="SVGID_2_" width="1134" height="1134"/>
		</defs>
		<clipPath id="SVGID_22_">
			<use xlink:href="#SVGID_2_"  overflow="visible"/>
		</clipPath>
		<path clip-path="url(#SVGID_22_)" fill="#263238" d="M617.423,136.42c0,0,1.017-0.651,3.053-1.885
			c2.06-1.177,5.155-2.917,9.455-4.743c8.503-3.624,22.062-8.079,40.126-7.396c2.241,0.109,4.559,0.245,6.912,0.565
			c2.361,0.256,4.787,0.637,7.212,1.316c2.416,0.673,4.861,1.569,7.154,2.911c2.261,1.352,4.445,3.144,5.829,5.604
			c1.457,2.409,1.909,5.43,1.404,8.308c-0.559,2.896-2.188,5.527-4.197,7.768c-4.146,4.443-9.816,7.562-15.936,9.648
			c-12.148,4.473-26.178,6.875-40.988,5.865c-14.769-0.963-30.379-5.186-44.671-13.708l-0.325-0.193l0.196-0.322
			c5.458-8.919,13.766-16.37,23.551-21.627c9.792-5.273,21.046-8.517,32.802-9.394c11.761-0.885,23.94,0.29,36.056,2.917
			c6.068,1.301,12.146,2.911,18.215,4.79c6.056,1.874,12.234,3.841,18.042,6.906c5.776,3.021,11.176,7.384,14.534,13.3
			c1.647,2.937,2.854,6.205,3.156,9.639c0.36,3.424-0.304,6.935-1.664,10.113c-2.839,6.434-8.636,10.999-14.741,14.243
			c-6.178,3.295-12.99,5.356-19.867,6.964c-27.5,6.748-57.549,7.847-87.407,2.228c-1.871-0.311-3.721-0.76-5.588-1.148
			c-1.865-0.378-3.723-0.818-5.577-1.301c-3.71-0.887-7.459-1.894-11.05-3.386c-3.593-1.458-7.083-3.343-10.093-5.919
			c-2.988-2.554-5.442-6.051-6.102-10.084c-0.747-3.998,0.32-8.228,2.535-11.585c2.182-3.409,5.221-6.133,8.463-8.461
			c3.27-2.329,6.849-4.171,10.468-5.858c1.785-0.905,3.63-1.688,5.479-2.463c1.838-0.81,3.696-1.567,5.6-2.236
			c15.08-5.652,31.335-8.808,47.852-9.057c8.254-0.138,16.571,0.424,24.819,1.729c2.066,0.305,4.131,0.654,6.175,1.117
			c2.051,0.422,4.108,0.831,6.135,1.397c4.073,0.993,8.153,2.18,12.047,3.894c3.892,1.684,7.657,3.824,10.891,6.687
			c3.223,2.833,5.86,6.573,6.866,10.871l0.332,1.61l0.133,1.642c0.15,1.093-0.026,2.193-0.073,3.291
			c-0.332,2.164-0.877,4.328-1.898,6.275c-1.885,3.982-4.919,7.251-8.208,10.068c-3.313,2.824-7.017,5.14-10.879,7.135
			c-1.925,1.015-3.923,1.887-5.916,2.731c-1.984,0.878-4,1.686-6.026,2.467c-8.1,3.157-16.472,5.737-25.021,7.687
			c-17.09,3.96-34.901,5.466-52.702,4.348c-8.895-0.563-17.934-2.42-25.918-6.815c-3.94-2.223-7.633-5.167-10.131-9.074
			c-2.467-3.908-3.626-8.619-3.271-13.244c0.308-3.798,1.701-7.434,3.686-10.613c1.987-3.191,4.51-6.001,7.289-8.459
			c5.572-4.932,12.138-8.578,18.899-11.372c13.5-5.746,27.876-9.14,42.311-10.197c7.216-0.533,14.451-0.483,21.609,0.149
			c3.58,0.313,7.139,0.764,10.667,1.384c3.521,0.574,7.065,1.308,10.452,2.517c3.382,1.195,6.697,2.684,9.628,4.809
			c2.921,2.088,5.548,4.81,6.933,8.23c1.473,3.365,1.52,7.278,0.35,10.712c-1.156,3.454-3.354,6.45-6.016,8.831
			c-5.433,4.806-12.474,6.816-19.153,8.446c-6.749,1.602-13.456,3.194-20.169,4.672c-13.411,2.962-26.844,5.459-40.313,6.525
			c-13.45,1.127-26.952,0.636-39.951-1.926c-12.973-2.585-25.447-7.411-36.163-14.747l-0.584-0.398l0.532-0.467
			c18.651-16.416,41.892-26.243,65.24-29.605c23.396-3.388,47.104-0.338,67.661,8.736c2.521,1.264,4.955,2.733,7.079,4.609
			c2.133,1.839,3.958,4.15,4.905,6.872c0.904,2.735,0.758,5.77-0.396,8.383c-1.188,2.604-3.165,4.701-5.356,6.366
			c-4.43,3.367-9.643,5.156-14.69,6.857c-5.104,1.635-10.293,2.859-15.497,3.684c-10.428,1.593-20.904,1.612-30.988,0.011
			c-2.51-0.467-5.101-1.182-7.16-2.895c-2.094-1.673-3.119-4.536-2.616-7.151c0.563-2.605,2.166-4.74,3.972-6.475
			c1.81-1.759,3.92-3.143,6.121-4.283c17.965-8.089,37.318-10.626,55.265-8.665c4.485,0.501,8.944,1.333,13.077,3.01
			c4.119,1.643,7.944,4.216,10.527,7.787c2.591,3.504,4.104,7.882,3.609,12.201c-0.474,4.363-3.218,8.017-6.348,10.65
			c-3.151,2.708-6.724,4.659-10.182,6.644c-3.525,1.873-7.071,3.61-10.695,5.012c-7.218,2.88-14.547,4.852-21.774,6.017
			c-14.467,2.334-28.449,1.376-40.802-1.775l-0.421-0.107l0.255-0.349c6.003-8.254,14.29-13.851,22.695-16.94
			c8.437-3.088,17.099-3.807,24.771-2.439c3.841,0.612,7.486,1.861,10.47,3.928c1.475,1.043,2.762,2.313,3.705,3.781
			c0.901,1.48,1.518,3.119,1.67,4.779c0.368,3.343-0.854,6.47-2.496,8.929c-1.63,2.506-3.736,4.449-5.845,6.055
			c-4.281,3.228-8.857,4.59-12.545,6.094c-3.75,1.422-6.847,2.754-9.189,4.087c-2.341,1.347-3.949,2.624-4.935,3.569
			c-0.514,0.447-0.84,0.85-1.086,1.086c-0.243,0.248-0.367,0.365-0.367,0.365s0.425-0.547,1.399-1.511
			c0.968-0.965,2.571-2.272,4.908-3.646c2.344-1.363,5.439-2.722,9.186-4.17c3.686-1.527,8.234-2.915,12.442-6.122
			c2.078-1.597,4.153-3.529,5.743-5.999c1.602-2.424,2.773-5.475,2.403-8.695c-0.15-1.601-0.751-3.182-1.626-4.606
			c-0.917-1.415-2.166-2.642-3.61-3.656c-2.912-2.005-6.505-3.229-10.306-3.822c-7.597-1.333-16.17-0.596-24.514,2.481
			c-8.313,3.08-16.494,8.637-22.398,16.794l-0.166-0.455c12.285,3.106,26.184,4.028,40.552,1.682
			c7.176-1.169,14.454-3.143,21.614-6.017c3.597-1.397,7.109-3.127,10.606-4.992c3.432-1.972,6.986-3.928,10.045-6.572
			c3.054-2.578,5.637-6.064,6.075-10.167c0.463-4.075-0.981-8.276-3.481-11.647c-2.483-3.426-6.166-5.9-10.19-7.503
			c-4.04-1.631-8.424-2.448-12.868-2.937c-17.79-1.933-37.044,0.637-54.773,8.638c-2.124,1.105-4.168,2.452-5.896,4.138
			c-1.729,1.66-3.209,3.685-3.703,5.999c-0.432,2.292,0.445,4.781,2.313,6.276c1.839,1.537,4.295,2.24,6.731,2.687
			c9.951,1.568,20.36,1.545,30.678-0.044c5.156-0.824,10.294-2.04,15.344-3.663c5.011-1.692,10.151-3.475,14.396-6.718
			c2.106-1.599,3.958-3.59,5.041-5.981c1.055-2.396,1.186-5.164,0.361-7.666c-0.87-2.493-2.571-4.67-4.622-6.434
			c-2.033-1.796-4.405-3.225-6.866-4.46c-20.297-8.936-43.872-11.977-67.059-8.592c-23.161,3.35-46.202,13.113-64.664,29.381
			l-0.055-0.866c10.578,7.23,22.904,12,35.756,14.556c12.884,2.532,26.271,3.017,39.646,1.892
			c13.389-1.063,26.771-3.554,40.157-6.514c6.693-1.479,13.406-3.073,20.14-4.671c6.646-1.618,13.504-3.62,18.653-8.19
			c2.536-2.268,4.611-5.119,5.683-8.336c1.088-3.194,1.039-6.784-0.318-9.894c-1.273-3.156-3.734-5.727-6.538-7.729
			c-2.809-2.037-6.031-3.488-9.329-4.655c-3.312-1.179-6.76-1.896-10.271-2.469c-3.495-0.61-7.023-1.057-10.569-1.368
			c-7.094-0.626-14.266-0.673-21.422-0.145c-14.306,1.047-28.556,4.415-41.936,10.111c-6.711,2.771-13.121,6.345-18.574,11.167
			c-5.359,4.754-9.979,11.034-10.58,18.295c-0.332,4.363,0.758,8.813,3.083,12.502c2.363,3.697,5.896,6.527,9.717,8.682
			c7.747,4.271,16.645,6.119,25.417,6.67c17.68,1.112,35.378-0.383,52.359-4.315c8.501-1.937,16.815-4.499,24.861-7.635
			c2.018-0.775,4.021-1.578,5.991-2.449c1.987-0.842,3.949-1.699,5.841-2.697c3.801-1.959,7.439-4.234,10.664-6.986
			c3.203-2.742,6.131-5.908,7.914-9.684c0.97-1.848,1.475-3.88,1.796-5.908c0.033-1.029,0.208-2.057,0.064-3.084l-0.124-1.54
			l-0.311-1.51c-0.94-4.024-3.408-7.551-6.509-10.279c-3.105-2.749-6.767-4.845-10.583-6.491c-3.812-1.686-7.815-2.849-11.867-3.838
			c-2.009-0.564-4.049-0.97-6.084-1.39c-2.024-0.46-4.073-0.805-6.119-1.11c-8.185-1.296-16.435-1.857-24.625-1.723
			c-16.388,0.24-32.519,3.365-47.481,8.965c-1.885,0.663-3.732,1.411-5.555,2.214c-1.839,0.769-3.668,1.544-5.44,2.442
			c-3.601,1.679-7.109,3.484-10.301,5.759c-3.17,2.268-6.113,4.917-8.18,8.149c-2.102,3.192-3.074,7.092-2.388,10.808
			c0.609,3.735,2.88,7.002,5.739,9.454c2.881,2.465,6.272,4.312,9.794,5.74c3.52,1.468,7.191,2.458,10.899,3.346
			c1.843,0.48,3.689,0.92,5.548,1.299c1.854,0.386,3.694,0.835,5.56,1.143c29.698,5.609,59.599,4.54,86.972-2.152
			c6.859-1.601,13.56-3.629,19.642-6.863c6.005-3.178,11.612-7.632,14.314-13.763c1.303-3.032,1.94-6.374,1.6-9.637
			c-0.284-3.275-1.436-6.417-3.028-9.257c-3.24-5.725-8.467-9.973-14.148-12.951c-5.698-3.018-11.829-4.984-17.874-6.86
			c-6.048-1.876-12.097-3.488-18.133-4.79c-12.051-2.627-24.142-3.806-35.807-2.941c-11.648,0.853-22.793,4.052-32.487,9.255
			c-9.688,5.185-17.898,12.531-23.294,21.318l-0.122-0.515c14.164,8.473,29.661,12.699,44.33,13.682
			c14.716,1.032,28.658-1.327,40.744-5.746c6.094-2.063,11.664-5.126,15.741-9.465c1.969-2.186,3.546-4.731,4.089-7.501
			c0.487-2.752,0.066-5.65-1.327-7.964c-1.319-2.365-3.431-4.114-5.646-5.445c-2.236-1.32-4.643-2.211-7.029-2.885
			c-2.395-0.679-4.791-1.062-7.146-1.327c-2.344-0.327-4.645-0.469-6.879-0.585c-17.98-0.741-31.516,3.631-40.024,7.185
			c-4.306,1.79-7.413,3.498-9.489,4.644C618.479,135.83,617.423,136.42,617.423,136.42"/>
	</g>
</g>
</svg>
