<?xml version="1.0" encoding="utf-8"?>
<!-- Generator: Adobe Illustrator 15.0.0, SVG Export Plug-In . SVG Version: 6.00 Build 0)  -->
<!DOCTYPE svg PUBLIC "-//W3C//DTD SVG 1.1//EN" "http://www.w3.org/Graphics/SVG/1.1/DTD/svg11.dtd">
<svg version="1.1" id="Layer_1" xmlns="http://www.w3.org/2000/svg" xmlns:xlink="http://www.w3.org/1999/xlink" x="0px" y="0px"
	 width="519px" height="109px" viewBox="0 0 519 109" enable-background="new 0 0 519 109" xml:space="preserve">
<rect width="311.965" height="109.188"/>
<path fill="#FFFFFF" d="M29.562,23.671v63.09h-8.238v-63.09H29.562z"/>
<path fill="#FFFFFF" d="M44.44,53.72c0-4.774-0.094-8.519-0.374-12.263h7.301l0.469,7.489h0.186
	c2.248-4.212,7.489-8.424,14.977-8.424c6.271,0,16.007,3.744,16.007,19.283v26.957h-8.238V60.646
	c0-7.303-2.714-13.387-10.483-13.387c-5.336,0-9.548,3.838-11.046,8.424c-0.374,1.03-0.562,2.435-0.562,3.838v27.239H44.44V53.72z"
	/>
<path fill="#FFFFFF" d="M98.349,41.457l8.893,25.366c1.498,4.213,2.714,7.956,3.65,11.7h0.281c1.03-3.744,2.34-7.486,3.838-11.7
	l8.798-25.366h8.612l-17.785,45.305h-7.862L89.551,41.457H98.349z"/>
<path fill="#FFFFFF" d="M180.246,63.734c0,16.756-11.7,24.057-22.56,24.057c-12.168,0-21.716-8.986-21.716-23.307
	c0-15.071,10.015-23.963,22.465-23.963C171.447,40.521,180.246,49.975,180.246,63.734z M144.395,64.203
	c0,9.922,5.617,17.411,13.667,17.411c7.862,0,13.76-7.396,13.76-17.599c0-7.676-3.838-17.316-13.573-17.316
	C148.607,46.698,144.395,55.686,144.395,64.203z"/>
<path fill="#FFFFFF" d="M199.8,28.726c0,2.809-1.965,5.055-5.241,5.055c-2.995,0-4.961-2.246-4.961-5.055
	c0-2.808,2.06-5.148,5.149-5.148C197.742,23.578,199.8,25.826,199.8,28.726z M190.627,86.762V41.457h8.237v45.305H190.627z"/>
<path fill="#FFFFFF" d="M244.818,85.171c-2.151,1.029-6.925,2.62-13.009,2.62c-13.666,0-22.558-9.268-22.558-23.121
	c0-13.946,9.548-24.149,24.337-24.149c4.867,0,9.172,1.217,11.419,2.434l-1.875,6.271c-1.965-1.03-5.053-2.153-9.545-2.153
	c-10.391,0-16.006,7.768-16.006,17.129c0,10.483,6.739,16.942,15.724,16.942c4.681,0,7.769-1.123,10.109-2.152L244.818,85.171z"/>
<path fill="#FFFFFF" d="M258.479,65.605c0.187,11.141,7.208,15.728,15.539,15.728c5.897,0,9.549-1.031,12.543-2.34l1.496,5.897
	c-2.898,1.31-7.955,2.9-15.162,2.9c-13.946,0-22.277-9.268-22.277-22.934c0-13.667,8.049-24.336,21.247-24.336
	c14.884,0,18.724,12.917,18.724,21.249c0,1.685-0.094,2.9-0.281,3.836H258.479z M282.629,59.71
	c0.096-5.149-2.15-13.293-11.419-13.293c-8.425,0-11.981,7.583-12.637,13.293H282.629z"/>
<path d="M386.048,85.076c-2.529,1.217-8.521,2.715-16.101,2.715c-21.813,0-33.045-13.666-33.045-31.639
	c0-21.528,15.353-33.417,34.447-33.417c7.395,0,13.013,1.405,15.538,2.809l-2.995,11.232c-2.809-1.217-6.835-2.34-11.98-2.34
	c-11.233,0-20.033,6.833-20.033,20.875c0,12.637,7.49,20.594,20.127,20.594c4.398,0,9.079-0.844,11.981-2.061L386.048,85.076z"/>
<path d="M395.489,24.514c4.588-0.748,11.326-1.31,19.003-1.31c9.36,0,15.913,1.403,20.405,4.96
	c3.837,2.995,5.896,7.488,5.896,13.292c0,7.956-5.711,13.479-11.14,15.444v0.281c4.399,1.778,6.834,5.896,8.424,11.7
	c1.968,7.208,3.84,15.445,5.057,17.879h-14.604c-0.936-1.872-2.526-6.927-4.307-14.696c-1.777-7.957-4.49-10.015-10.389-10.109
	h-4.212v24.806h-14.136L395.489,24.514L395.489,24.514z M409.625,51.66h5.615c7.113,0,11.326-3.557,11.326-9.081
	c0-5.71-3.931-8.705-10.482-8.705c-3.464,0-5.429,0.188-6.459,0.468V51.66L409.625,51.66z"/>
<path d="M504.342,62.611c-0.278-7.582-0.562-16.755-0.562-25.928h-0.188c-2.059,8.05-4.681,17.037-7.114,24.43l-7.676,24.619
	h-11.138l-6.739-24.338c-2.061-7.488-4.119-16.475-5.711-24.71h-0.187c-0.282,8.518-0.655,18.253-1.03,26.116l-1.217,23.964h-13.198
	l4.025-63.091h19l6.18,21.062c2.059,7.301,3.931,15.164,5.336,22.559h0.373c1.686-7.301,3.839-15.632,5.99-22.653l6.646-20.968
	h18.723l3.368,63.091H505.37L504.342,62.611z"/>
</svg>
