<?xml version="1.0" encoding="utf-8"?>
<!-- Generator: Adobe Illustrator 15.0.0, SVG Export Plug-In  -->
<!DOCTYPE svg PUBLIC "-//W3C//DTD SVG 1.1//EN" "http://www.w3.org/Graphics/SVG/1.1/DTD/svg11.dtd" [
	<!ENTITY ns_flows "http://ns.adobe.com/Flows/1.0/">
]>
<svg version="1.1"
	 xmlns="http://www.w3.org/2000/svg" xmlns:xlink="http://www.w3.org/1999/xlink" xmlns:a="http://ns.adobe.com/AdobeSVGViewerExtensions/3.0/"
	 x="0px" y="0px" width="645px" height="876px" viewBox="0 0 645 876" enable-background="new 0 0 645 876" xml:space="preserve">
<defs>
</defs>
<g>
	<defs>
		<rect id="SVGID_5_" x="245.471" y="829.584" width="299.926" height="46.416"/>
	</defs>
	<clipPath id="SVGID_6_">
		<use xlink:href="#SVGID_5_"  overflow="visible"/>
	</clipPath>
	<path clip-path="url(#SVGID_6_)" fill="#353535" d="M545.397,852.793c0,12.815-67.143,23.207-149.964,23.207
		c-82.823,0-149.964-10.392-149.964-23.207c0-12.816,67.141-23.209,149.964-23.209C478.255,829.584,545.397,839.977,545.397,852.793
		"/>
</g>
<path fill="#0B4BAA" d="M364.671,225.03l-16.833,94.354c-34.932,47.74-53.435,81.728-99.128,76.901
	c-57.316-6.068-88.688-89.713-88.688-89.713l11.142-10.549c0,0,1.915,2.753,5.15,7.094c11.004,14.918,37.17,48.633,52.841,54.866
	c22.172,8.819,48.553-5.263,73.233-59.963C334.54,226.784,364.671,225.03,364.671,225.03"/>
<path fill="#1678FB" d="M466.93,451.366c-117.286,47.653-172.248,2.882-172.248,2.882c-1.336-102.546,54.939-221.163,67.297-228.476
	c8.596-5.095,17.169-8.382,25.504-10.358c22.673-5.383,43.559-0.811,58.203,4.69c13.1,4.929,21.243,10.622,21.243,10.622
	C517.416,266.59,466.93,451.366,466.93,451.366"/>
<path fill="#404041" d="M450.736,510.306c-8.049,8.739-19.886,15.313-37.174,17.075c-1.501,0.143-3.002,0.287-4.479,0.43
	c-6.715,0.593-13.169,0.976-19.336,1.141c-8.741,0.238-16.957,0.024-24.603-0.641c-32.408-2.857-54.96-14.05-66.011-35.557
	c-2.693-5.235-4.714-11.12-6.001-17.646c-1.193-5.856-1.787-12.241-1.787-19.146c0-17.48,3.976-25.03,3.976-25.03
	s16.72,8.454,63.108,13.313c54.987,5.738,109.285,4.12,109.285,4.12C468.023,458.747,469.311,490.231,450.736,510.306"/>
<path fill="#404041" d="M464.404,836.587l-20.837-7.003c0,0,6.72-78.111-19.337-157.197
	c-18.741-56.869-29.769-115.167-34.482-143.436c-0.335-1.88-0.62-3.643-0.882-5.262c-1.263-7.786-1.858-12.217-1.858-12.217
	l64.204-12.453c0,0-0.261,3.954-0.476,11.286c-0.762,25.578-0.952,92.353,12.597,177.895c0.978,6.238,1.858,12.265,2.62,18.074
	C477.502,794.672,464.404,836.587,464.404,836.587"/>
<path fill="#404041" d="M378.958,829.584l-18.144-8.478c0,0,4.428-77.23-21.624-156.293c-19.958-60.608-34.39-138.837-40.058-172.06
	c-0.881-5.286-1.57-9.43-1.999-12.19c-0.405-2.551-0.62-3.905-0.62-3.905l69.657,14.763c0,0-0.882,11.17-0.999,30.958
	c0,1.906-0.024,3.883-0.024,5.933c0.071,33.553,2.357,87.611,13.17,152.315C393.558,772.002,378.958,829.584,378.958,829.584"/>
<g>
	<defs>
		<rect id="SVGID_4_" x="358.147" y="213.011" width="87.54" height="185.105"/>
	</defs>
	<clipPath id="SVGID_7_">
		<use xlink:href="#SVGID_4_"  overflow="visible"/>
	</clipPath>
	<path clip-path="url(#SVGID_7_)" fill="#808083" d="M445.687,220.105c-0.905,2.382-6.905,16.79-25.933,30.936
		c0,0-1.81-9.218-7.906-12.193c0,0-6.098,5.74-9.075,8.621l-13.668,129.907l-19.361,20.741l-11.599-27.101l36.01-130.072
		l-1.788-10.215c0,0-12.312,9.31-14.478,15.551c0,0-2.216-18.266,9.595-30.864C410.156,210.033,431.042,214.605,445.687,220.105"/>
</g>
<path fill="#68C2DD" d="M168.543,293.708c0,0,7.252,6.956,7.633,10.374c0,0-0.122,15.688-16.166,15.283
	C143.966,318.961,168.543,293.708,168.543,293.708"/>
<path fill="#231F20" d="M296.515,432.662c0,0,46.735,21.406,167.889,16.941v8.337c0,0-113.234,15.778-169.735-17.563
	L296.515,432.662z"/>
<path fill="#6D6E70" d="M341.791,447.227l-0.919,7.454c-0.278,2.25,1.298,4.306,3.542,4.626l22.48,3.189
	c2.319,0.329,4.454-1.324,4.716-3.654l0.856-7.633c0.251-2.248-1.34-4.283-3.58-4.585l-22.413-3.011
	C344.176,443.307,342.071,444.932,341.791,447.227"/>
<path fill="#404041" d="M413.8,449.01c0,0,1.389,6.744,0,16.271h6.351c0,0,1.787-10.319,0-16.271H413.8z"/>
<path fill="#404041" d="M317.952,438.375c0,0-2.626,6.371-3.041,15.988l-6.239-1.188c0,0,0.175-10.469,3.042-15.986L317.952,438.375
	z"/>
<path fill="#353535" d="M431.413,462.896c0,0,0,26.358,18.249,42.533c0,0,13.274-14.929,10.787-45.854
	C460.449,459.575,450.078,462.896,431.413,462.896"/>
<g>
	<defs>
		<rect id="SVGID_3_" x="408.237" y="297.225" width="45.054" height="53.946"/>
	</defs>
	<clipPath id="SVGID_8_">
		<use xlink:href="#SVGID_3_"  overflow="visible"/>
	</clipPath>
	<path clip-path="url(#SVGID_8_)" fill="#808083" d="M414.807,297.254c0,0,17.844-0.954,38.484,7.827l-6.267,34.985
		c-0.727,4.062-3.877,7.258-7.929,8.043l-15.77,3.061l-10.499-6.739c-3.381-2.168-5.131-6.153-4.445-10.112L414.807,297.254z"/>
</g>
<path fill="#EAA688" d="M441.281,219.677c0,0-24.338,8.714-41.462,6.977c-4.024-0.427-6.787-0.785-8.597-1.262
	c-10.096-2.716,9.837-8.858,5.002-44.867L437.52,161.5c0,0-0.239,1.093-0.571,3.024c-0.548,3.213-1.407,8.692-1.952,15.073
	C433.852,193.148,434.042,210.842,441.281,219.677"/>
<path fill="#CC8569" d="M437.52,161.499c0,0-0.237,1.097-0.572,3.024c-0.547,3.214-1.406,8.691-1.951,15.073
	c-9.123,16.956-24.459,39.461-43.774,45.796c-10.093-2.713,9.838-8.858,5.003-44.867L437.52,161.499z"/>
<path fill="#1678FB" d="M364.671,225.03c0,0-50.687,57.426-55.73,100.664c0,0-16.183,51.251-53.945,53.058
	c-37.763,1.807-78.817-61.148-78.817-61.148s2.537-4.587,0-13.514c-0.054-0.243-0.026-0.568,0.136-0.973
	c11.004,14.918,37.17,48.633,52.841,54.866c22.172,8.819,48.553-5.263,73.233-59.963C334.54,226.784,364.671,225.03,364.671,225.03"
	/>
<path fill="#0B4BAA" d="M414.483,304.993c0,0,17.177-1.548,33.849,5.892l1.188-5.323c0,0-11.608-8.337-33.736-7.774L414.483,304.993
	z"/>
<path fill="#0B4BAA" d="M414.483,305.924c0,0,21.642,0.497,33.35,6.748c0,0-2.776,29.073-8.333,31.85
	c-5.558,2.778-15.678,4.961-15.678,4.961s-12.287-7.439-13.793-11.706C408.524,333.506,414.483,305.924,414.483,305.924"/>
<path fill="#353535" d="M355.256,462.537c0,0-6.147,39.483,14.44,66.114l-2.146-0.337c0,0-19.688-21.856-14.774-66.646
	L355.256,462.537z"/>
<path fill="#353535" d="M342.505,460.766c0,0-2.827,24.263,0,33.045c2.828,8.78,14.163,10.863,14.163,10.863l1.168,2.531
	c0,0-13.8-0.895-16.948-13.395c-3.144-12.504,0-34.235,0-34.235L342.505,460.766z"/>
<path fill="#353535" d="M464.404,836.587l-20.837-7.003c0,0,6.72-78.111-19.337-157.197
	c-18.741-56.869-29.769-115.167-34.482-143.436c-8.741,0.238-16.957,0.024-24.601-0.641c0.071,33.554,2.357,87.612,13.171,152.316
	c15.239,91.375,0.64,148.957,0.64,148.957l-18.146-8.478c0,0,4.429-77.23-21.624-156.293
	c-19.955-60.608-34.388-138.837-40.055-172.06c-2.691-5.237-4.716-11.12-6.002-17.646c1.239,1.765,2.572,3.596,4.002,5.455
	c11.262,14.692,28.434,31.385,51.534,38.103c5.808,1.689,11.311,2.905,16.503,3.713c8.858,1.407,16.79,1.691,23.694,1.311
	c20.527-1.071,32.077-7.811,32.077-7.811s-4.715,7.359-11.859,11.932c-2.904,1.832-6.215,3.238-9.764,3.501
	c0,0,6.74,9.502,18.052,13.906c0,0-7.288-0.166-15.455-4.834c0,0,8.502,148.958,58.13,163.627c2.049,0.62,4.025,1.358,5.906,2.264
	C477.502,794.672,464.404,836.587,464.404,836.587"/>
<path fill="#FE4543" d="M429.421,219.415c-3.785,3.452-7.358,6.501-10.572,9.144c-10.575,8.693-17.552,13.146-17.552,13.146
	c-0.119,0.62-0.262,1.333-0.38,2.096c-4.502,24.934-17.075,128.408-17.075,128.408l-18.577,22.62l-10-25.787
	c7.145-44.462,38.889-128.097,38.889-128.097c-1.836-4.073-3.025-8.004-3.789-11.505v-0.024c-1.784-8.192-1.262-14.097-1.262-14.097
	c0.19,1.953,0.645,3.619,1.286,5.024c4.025,9.122,16.172,7.525,25.863,4.453C423.206,222.629,428.874,219.699,429.421,219.415"/>
<path fill="#9E0404" d="M418.849,228.559c-10.575,8.693-17.552,13.146-17.552,13.146c-0.119,0.62-0.262,1.333-0.38,2.096
	c-1.596,0.954-2.763,1.572-3.191,1.594c-2.095,0.144-3.571-4.45-3.571-4.45c2.832,1.617,6.099,0.76,6.099,0.76l7.451-6.575
	c0,0-0.597-3.142-1.549-4.403c-0.953-1.287-7.525,0.691-7.525,0.691s-2.597-3.265-4.023-3.884c-1.453-0.617-4.241,1.906-4.241,1.906
	v-9.072l0.024-0.024c4.025,9.122,16.172,7.524,25.863,4.453L418.849,228.559z"/>
<path fill="#1067C6" d="M435.701,206.167c-9.645-2.286-35.746,19.353-35.746,19.353s-5.551-13.362-4.96-18.539
	c0,0-3.721-2.268-13.158,12.69c-5.081,8.05-3.819,20.112-3.819,20.112c6.049-13.19,15.047-17.409,16.831-13.737
	c1.586,3.261,3.771,5.359,3.771,5.359s3.42-1.833,6.249-4.117c1.89-1.521,9.708,2.719,14.929,14.426
	c0,0,22.504-12.238,26.021-21.969C445.817,219.747,439.821,207.145,435.701,206.167"/>
<path fill="#231F20" d="M383.064,820.357c-2.507-7.238-14.76-2.822-14.76-2.822c-3.027-7.939-11.259-7.939-11.259-7.939
	c-0.134,11.177-12.8,16.328-32.875,24.212c-15.354,6.029-15.235,14.072-15.235,14.072c23.337,5.827,60.786-5.247,60.786-5.247
	s-0.072,3.528,15.808,1.939c0,0,2.767-14.777-3.08-22.748C382.448,821.824,382.689,821.273,383.064,820.357"/>
<path fill="#231F20" d="M468.85,829.892c-2.505-7.241-14.76-2.824-14.76-2.824c-3.026-7.938-11.261-7.938-11.261-7.938
	c-0.134,11.172-12.796,16.327-32.874,24.209c-15.354,6.029-15.235,14.07-15.235,14.07c23.338,5.829,60.786-5.242,60.786-5.242
	s-0.07,3.524,15.808,1.939c0,0,2.769-14.777-3.08-22.75C468.233,831.356,468.477,830.804,468.85,829.892"/>
<path fill="#EAA688" d="M471.954,59.65c0,82.327-36.198,131.002-79.683,134.907c-2.405,0.215-4.857,0.31-7.335,0.237
	c-13.67-0.333-29.292-34.171-29.671-80.325c-0.265-31.672,2.952-74.039,42.292-89.471c2.12-0.831,4.335-1.594,6.668-2.26
	C446.02,10.759,471.954,36.907,471.954,59.65"/>
<path fill="#49260A" d="M375.892,41.522c-0.23-0.574-0.841-0.891-1.422-1.11c-3.4-1.292-7.378-0.965-10.522,0.861
	c-1.79,1.038-3.063,2.512-4.024,4.216c-1.763-0.16-3.947,1.604-4.957,3.17c-1.348,2.098-1.757,4.659-1.905,7.151
	c-0.506,8.569,1.693,17.044,3.872,25.35c0.143-0.698,0.287-1.394,0.43-2.092c0.426,6.158,1.401,12.275,3.42,18.045
	c3.633,10.362,6.833-6.583,7.377-9.702c0.995-5.704,1.693-11.461,2.31-17.217c0.267-2.519,0.639-5.068,0.748-7.599
	c0.154-3.531,0.618-5.014,2.205-8.287c0.791-1.622,1.106-3.428,1.411-5.205c0.358-2.081,0.718-4.16,1.074-6.241
	C375.985,42.417,376.06,41.943,375.892,41.522"/>
<path fill="#EAA688" d="M369.361,99.84c0,0-24.039-23.305-21.438,4.941c2.593,28.242,21.145,28.987,21.145,28.987L369.361,99.84z"/>
<path fill="#CC8569" d="M362.848,104.896c-8.771-16.915-11.705-2.935-11.705-2.935c2.334-7.167,7.379-1.007,10.166,6.612
	c-2.001-0.307-4.377,0.258-3.644,5.135c0,0,0.494-4.91,4.489-2.517c0.115,0.406,0.233,0.811,0.331,1.213
	c2.133,8.749-1.646,5.72-0.577,12.098C365.371,127.087,367.968,114.765,362.848,104.896"/>
<path fill="#FFBF9C" d="M452.807,64.435c0,69.848-26.078,115.499-60.534,130.122c-2.406,0.215-4.858,0.311-7.335,0.239
	c-13.671-0.335-29.293-34.175-29.674-80.327C355,82.795,358.216,40.432,397.558,25C431.97,20.926,452.807,44.051,452.807,64.435"/>
<path fill="#EAA688" d="M458.744,110.009c0,0,36.723-20.232,28.472,7.496c-8.235,27.723-33.712,26.22-33.712,26.22L458.744,110.009z
	"/>
<path fill="#CC8569" d="M466.806,115.814c14.797-15.734,16.48-1.498,16.48-1.498c-1.997-7.4-9.914-1.892-14.989,5.334
	c2.784-0.062,5.94,0.783,4.127,5.539c0,0,0.138-4.935-5.72-3.04c-0.222,0.387-0.449,0.774-0.652,1.164
	c-4.369,8.427,1.302,5.875-1.222,12.076C459.668,137.537,458.17,124.992,466.806,115.814"/>
<path fill="#49260A" d="M409.201,73.641c0,0,16.225-10.418,25.452,5.36c0,0-7.143-8.337-24.706-3.126L409.201,73.641z"/>
<path fill="#49260A" d="M382.941,69.171c0,0-12.731-11.761-22.161,3.144c0,0,6.911-7.679,21.305-0.988L382.941,69.171z"/>
<path fill="#FFBD5C" d="M484.027,88.131c-18.575-4.571-23.385-19.6-23.385-19.6c1,10.098,4.358,15.863,4.358,15.863
	c-15.172-8.004-28.078-35.866-22.625-42.318c5.477-6.432,21.148-12.599,21.148-12.599s17.456,2.785,23.027,27.005
	C489.242,68.223,487.027,79.557,484.027,88.131"/>
<path fill="#49260A" d="M432.82,38.44c0,0,1.354,47.515,27.822,48.951c-2.561,4.775-3.484,11.276-5.033,16.436
	c-2.683,8.926-5.548,17.576-8.789,26.308c1.258,0.549,2.515,1.097,3.771,1.646c4.365-6.308,8.723-12.615,13.085-18.924
	c2.151-3.112,3.729-5.701,6.71-7.885c5.418-3.966,10.248-8.732,13.736-14.508c4.705-7.793,6.501-16.877,5.638-25.906
	c-0.852-8.915-4.26-17.448-9.576-24.654c-3.903-5.291-10.236-11.268-21.268-10.426C458.543,28.374,432.82,38.44,432.82,38.44"/>
<path fill="#49260A" d="M447.378,7.777c-11.198-8.473-25.756-8.632-39.114-6.907c-8.945,1.157-17.84,2.727-26.639,4.711
	c-3.967,0.892-7.922,1.872-11.786,3.146c-3.5,1.157-8.211,2.465-11.096,4.85c-5.013,4.138-4.004,12.669-3.257,18.293
	c0.55,4.129,1.099,8.256,1.647,12.385c0.3,2.259,0.02,6.484,1.572,8.404c-0.533,0.337-1.072,0.668-1.629,0.977
	c0.95-0.01,1.894-0.066,2.884-0.133c-0.166,0.507-0.353,1.009-0.513,1.519l1.842-1.345c2.784-0.005,7.033-1.584,8.949-2.076
	c3.698-0.946,7.332-2.114,10.987-3.201c16.842-5.012,32.49-6.623,49.409-1.282c2.195,0.693,4.476,1.667,5.326,3.959
	c3.243-3.647,5.407-8.144,6.94-12.855l1.919-0.459l13.049-7.659C457.868,21.344,454.445,13.125,447.378,7.777"/>
<path fill="#58320E" d="M446.821,69.12c4.219,6.303,10.204,11.411,17.094,14.58c-5.197-3.086-8.899-8.278-11.164-13.884
	c-2.264-5.605-3.21-11.646-3.899-17.655c2.913,5.971,7.843,10.673,11.836,15.986c3.878,5.166,6.908,10.992,8.656,17.211
	c-1.407-9.137-4.038-18.088-7.799-26.532c2.547,2.32,5.104,4.681,7.054,7.519c3.538,5.156,4.824,11.509,5.566,17.716
	c1.618-10.44,0.626-21.277-2.858-31.251c4.212,4.47,6.561,10.467,7.417,16.546c1,7.113,1.471,14.37,2.331,21.521
	c1.943-7.651,2.563-15.636,1.823-23.494c1.459,4.161,2.188,8.572,2.152,12.98c1.584-14.168-2.298-28.877-10.669-40.416
	c1.158,2.339,1.662,5.004,1.438,7.608c-2.446-5.017-6.372-9.303-11.159-12.175c2.291,2.571,3.978,5.682,4.883,9.005
	c-3.21-4.252-8.639-5.37-12.351-8.719c3.687,3.325,6.449,7.662,7.903,12.407c-3.438-3.56-7.67-6.35-12.298-8.107
	c3.498,3.878,5.994,8.651,7.186,13.738c-3.085-3.227-6.531-6.113-10.254-8.579c2.503,3.597,4.356,7.642,5.443,11.887
	c-3.561-3.946-6.938-8.058-10.117-12.312c0.136,3.413,0.276,6.828,0.414,10.24c-0.027-0.638-1.461-2.136-1.804-2.758
	c-0.606-1.094-1.117-2.237-1.53-3.418c-0.424-1.205-0.454-3.417-1.295-4.31c-1.463,2.23-0.719,6.936-0.251,9.394
	C441.606,59.285,443.745,64.521,446.821,69.12"/>
<path fill="#58320E" d="M372.216,19.689c-2.784,0.136-5.477,1.373-7.349,3.773c-0.945,1.21-1.405,3.535-1.731,5.04
	c0.776-3.342,3.962-5.921,7.386-6.149c3.422-0.23,6.848,1.802,8.446,4.839c1.066,2.031,1.357,4.38,1.395,6.674
	c0.055,3.794-0.767,7.978-3.925,10.428c5.961-1.084,8.319-4.952,7.968-10.734c-0.273-4.462-1.532-9.271-5.422-11.934
	C376.949,20.232,374.548,19.575,372.216,19.689"/>
<path fill="#58320E" d="M388.12,22.359c-2.373-5.545-8.353-9.642-14.33-8.854c5.861-1.394,12.311-0.798,17.481,2.297
	c5.172,3.096,8.849,8.841,8.805,14.868c1.401-6.941-1.354-14.557-6.868-18.997c5.807,2.498,10.468,7.533,12.509,13.517
	c3.397-4.292,3.049-11.093-0.772-15.014c4.288,3.451,7.001,8.784,7.27,14.28c4.334-4.626,3.615-12.99-1.446-16.811
	c7.021,2.428,11.512,10.583,9.804,17.811c3.922-3.338,5.746-8.958,4.533-13.961c-0.65-2.689-2.441-5.406-5.166-5.88
	c7.313,1.394,10.7,9.907,9.617,16.792c3.814-4.745,1.313-12.388-2.339-16.103c5.118,4.436,10.622,9.603,11.095,16.36
	c0.362,5.157-2.346,9.978-4.963,14.439c0.426-2.533,0.338-5.148-0.258-7.647c-1.37,3.967-3.843,7.545-7.071,10.227
	c0.768-2.93-0.696-6.293-3.365-7.726c0.525,2.567,0,5.337-1.437,7.532c-0.255-2.239-1.849-4.152-3.757-5.354
	c-1.908-1.199-4.124-1.8-6.302-2.384c1.66,2.04,2.487,4.738,2.254,7.357c-2.394-3.324-6.554-5.293-10.642-5.042
	c1.8,1.773,2.95,4.187,3.199,6.699c-3.435-1.973-7.391-3.029-11.351-3.031c1.495,1.054,2.777,2.414,3.737,3.968
	c-5.176-0.608-10.492-0.007-15.406,1.739C390.218,40.859,390.529,27.991,388.12,22.359"/>
<path fill="#58320E" d="M376.021,36.868c-0.066-1.555-0.489-3.244-1.752-4.158c-0.529-0.384-1.167-0.595-1.804-0.746
	c-1.655-0.389-3.435-0.387-5.02,0.231c-2.541,0.986-4.323,3.518-4.715,6.213c-0.394,2.697,0.489,5.492,2.096,7.692
	c-0.622-1.787-1.021-3.694-0.781-5.573c0.238-1.877,1.193-3.727,2.798-4.73c1.606-0.999,3.888-0.97,5.269,0.323
	c0.765,0.711,1.193,1.711,1.467,2.715c0.365,1.333,0.484,2.755,0.155,4.096c-0.327,1.344-1.144,2.595-2.34,3.281
	C374.913,44.195,376.194,40.905,376.021,36.868"/>
<path fill="#49260A" d="M367.542,55.758c0.083,1.335,0.796,2.572,1.755,3.505c0.956,0.933,2.144,1.592,3.354,2.162
	c-1.073-1.021-1.94-2.293-2.328-3.723c-0.391-1.43-0.269-3.022,0.48-4.302c0.474-0.808,1.175-1.461,1.92-2.022
	c1.627-1.226,3.533-2.083,5.531-2.483c-0.432,0.088-1.416-0.382-1.919-0.412c-0.747-0.043-1.43,0.09-2.156,0.235
	c-0.887,0.177-1.844,0.149-2.651,0.579C369.463,50.396,367.396,53.384,367.542,55.758"/>
<path fill="#58320E" d="M433.639,7.795c4.209,2.702,7.528,6.766,9.332,11.43c-0.465-2.088-1.005-4.163-1.617-6.216
	c-0.486-1.635-1.08-3.352-2.404-4.425c4.635,3.093,7.023,8.547,8.978,13.766c0.096-3.932-1.311-7.883-3.865-10.873
	c3.311,3.867,6.724,7.96,7.81,12.936c0.521-2.613,0.211-5.387-0.873-7.818c2.39,4.604,3.569,9.826,3.392,15.011
	c-0.626-1.797-1.253-3.594-1.876-5.393c0.078,4.526-1.375,9.066-4.07,12.701c0.816-2.978,1.074-6.106,0.754-9.178
	c-0.62,3.08-2.395,5.914-4.895,7.818c1.133-2.209,1.499-4.796,1.021-7.229c-0.624,3.554-3.418,6.267-6.067,8.719
	c0.668-2.061,1.149-4.177,1.442-6.322c-1.016,3-3.735,5.994-6.908,6.705c0.909-2.033,2.166-3.62,3.525-5.34
	c1.333-1.688,1.886-3.782,2.253-5.875c0.806-4.619,0.225-9.475-1.618-13.782C436.909,11.989,435.461,9.724,433.639,7.795"/>
<path fill="#58320E" d="M356.21,61.264c0.421-1.315,1.054-2.563,1.866-3.68c-1.396,4.565-1.918,9.394-1.531,14.151
	c0.6-4.854,1.738-9.643,3.387-14.247c-0.411,0.398-0.731,0.891-0.93,1.429c0.112-2.411,1.199-4.426,2.723-6.223
	c-1.697-0.51-3.684-0.438-4.587,1.206C355.871,56.193,356.947,58.965,356.21,61.264"/>
<circle fill="none" stroke="#404041" stroke-miterlimit="10" cx="418.014" cy="100.917" r="20.332"/>
<circle fill="none" stroke="#404041" stroke-miterlimit="10" cx="370.171" cy="93.674" r="20.332"/>
<path fill="#F27864" d="M378.882,122.657c-0.116,2.026,0.297,4.444,2.323,5.411c1.264,0.602,2.668-0.237,3.729-0.905
	c1.25-0.785,2.241-0.851,3.719-0.437c1.137,0.318,2.303,0.75,3.467,0.545c1.133-0.196,2.078-0.972,2.887-1.791
	c0.317-0.318,0.627-0.658,0.812-1.067c0.337-0.751-0.023-2.058-0.034-2.883c-0.021-1.353-0.089-2.704-0.155-4.055
	c-0.449-9.013-1.08-17.984-1.794-26.979c-0.052-0.646-0.096-1.59-0.682-1.949c-2.27,2.658-3.517,6.427-4.989,9.563
	c-1.671,3.559-3.238,7.165-4.701,10.811c-1.803,4.494-4.219,8.614-4.572,13.58C378.886,122.552,378.883,122.606,378.882,122.657"/>
<path fill="none" stroke="#404041" stroke-miterlimit="10" d="M389.291,87.449c1.208-1.031,2.775-1.655,4.487-1.655
	c3.032,0,5.605,1.956,6.535,4.675"/>
<line fill="none" stroke="#404041" stroke-miterlimit="10" x1="351.429" y1="85.793" x2="356.547" y2="86.447"/>
<polygon fill="#404041" points="438.023,95.429 437.699,97.642 471.084,104.455 470.967,104.718 474.654,103.667 474.874,101.368 
	"/>
<path fill="#404041" d="M422.719,94.564c0,1.296-1.049,2.348-2.347,2.348c-1.293,0-2.345-1.052-2.345-2.348
	c0-1.297,1.052-2.346,2.345-2.346C421.67,92.218,422.719,93.267,422.719,94.564"/>
<path fill="#404041" d="M381.21,89.871c0,1.298-1.053,2.346-2.347,2.346c-1.295,0-2.347-1.048-2.347-2.346
	c0-1.295,1.052-2.346,2.347-2.346C380.157,87.525,381.21,88.575,381.21,89.871"/>
<path fill="#A52A16" d="M372.436,137.535c0,0,11.022,13.306,51.314-1.902c0,1.142-5.701,31.55-39.911,28.511
	C383.839,163.764,367.871,163.764,372.436,137.535"/>
<path fill="#E35F6C" d="M423.75,135.633c-11.859,4.476-21.168,6.472-28.421,7.073c-12.798,6.288-16.447,13.613-16.825,19.452
	c2.775,1.739,5.335,1.832,5.335,1.986C418.049,167.183,423.75,136.774,423.75,135.633"/>
<path fill="#FFFFFF" d="M420.634,144.978c2.403-4.915,3.116-8.942,3.116-9.345c-28.293,10.679-42.143,7.296-47.89,4.337v7.586
	C375.86,147.557,399.766,155.575,420.634,144.978"/>
<path fill="#FFBF9C" d="M172.846,303.188c0.372-0.915,0.659-1.866,0.856-2.86c0.707-3.587,0.859-7.615,0.543-11.246
	c-0.329-3.798-1.157-7.529-1.543-11.321c-0.653-6.372,0.063-13.19,3.755-18.426c1.101-1.56,2.445-2.952,3.387-4.612
	c0.943-1.66,1.447-3.722,0.707-5.483c-0.869-2.068-3.292-3.167-5.536-3.05c-2.244,0.116-4.315,1.223-6.151,2.517
	c-8.328,5.86-13.191,16.297-12.35,26.44c-0.214-0.295-0.44-0.583-0.672-0.858c-5.64-6.66-12.847-11.775-19.974-16.813
	c-0.735-0.521-1.489-1.033-2.252-1.525c-0.41-0.276-0.818-0.553-1.228-0.827c-1.379-0.919-2.924-1.882-4.564-1.651
	c-2.386,0.333-3.694,2.966-4.174,5.328c-0.335,1.66-0.491,3.424-1.424,4.838c-0.709,1.074-1.792,1.833-2.834,2.587
	c-2.5,1.814-5.103,4.138-5.291,7.22c-0.064,1.046,0.162,2.134-0.176,3.127c-0.589,1.731-2.587,2.477-3.875,3.775
	c-1.795,1.813-2.106,4.691-1.496,7.17c0.173,0.699,0.41,1.403,0.369,2.122c-0.111,1.913-2.122,3.293-2.287,5.203
	c-0.117,1.388,0.773,2.642,1.677,3.699c8.121,9.49,20.468,14.078,32.407,17.742c2.948,0.901,5.941,1.777,9.019,1.903
	c4.854,0.194,9.666-1.531,13.667-4.279C167.354,311.197,171.047,307.643,172.846,303.188"/>
<path fill="#EAA688" d="M133.515,273.417c3.742,2.781,8.952,8.286,13.159,3.078c1.445-1.787,1.88-4.265,1.45-6.524
	c1.253,1.711,0.889,4.136-0.005,6.057c-0.305,0.665-0.67,1.309-1.167,1.846c-3.118,3.375-8.245,1.626-11.146-0.877
	c-3.306-2.852-8.797-5.25-9.575-10.071C128.162,269.358,131.028,271.57,133.515,273.417"/>
<path fill="#EAA688" d="M127.22,284.212c1.327,0.938,2.698,1.783,3.998,2.509c2.386,1.335,5.362,2.295,7.797,1.057
	c1.299-0.662,2.248-1.874,2.863-3.197c0.617-1.319,0.932-2.758,1.24-4.181c0.862,2.144-0.133,4.589-1.468,6.469
	c-1.325,1.864-3.251,3.586-5.534,3.582c-1.768-0.001-3.13-1.017-4.568-1.883c-1.709-1.028-3.432-1.906-4.86-3.333
	c-1.651-1.648-4.264-2.957-4.574-5.522C123.506,281.341,125.319,282.869,127.22,284.212"/>
<path fill="#EAA688" d="M134.967,258.761c0.037,0.514,0.448,0.911,0.833,1.255c2.4,2.141,4.817,4.26,7.252,6.364
	c0.912,0.786,1.847,1.585,2.959,2.049c-0.293-0.124-0.81-1.396-1.024-1.703c-0.382-0.546-0.802-1.06-1.251-1.548
	c-0.642-0.695-1.366-1.292-2.064-1.93C139.658,261.416,137.461,259.872,134.967,258.761"/>
<path fill="#EAA688" d="M121.073,294.31c1.608,1.354,3.233,2.724,5.111,3.672c1.877,0.947,4.058,1.45,6.104,0.966
	c1.768-0.416,3.347-1.576,4.273-3.141c0.924-1.563,1.184-3.509,0.695-5.26c1.279,1.636,0.965,4.031,0.103,5.918
	c-0.957,2.108-2.698,4.043-4.978,4.44c-1.929,0.332-3.861-0.477-5.585-1.396c-3.931-2.091-7.496-4.861-10.498-8.146
	c-0.441-0.484-0.907-1.007-1.079-1.649C117.287,291.086,119.183,292.708,121.073,294.31"/>
<path fill="#EAA688" d="M120.417,306.481c3.131,1.658,6.996,2.91,10.119,1.236c2.832-1.516,4.06-5.44,2.6-8.301
	c1.001,1.75,1.42,3.873,0.928,5.829c-0.496,1.951-1.962,3.688-3.885,4.288c-1.813,0.565-3.776,0.119-5.573-0.49
	c-4.563-1.549-9.887-4.415-12.831-8.332C114.786,302.394,117.326,304.843,120.417,306.481"/>
<path fill="#EAA688" d="M152.915,271.122c1.326,6.073,3.702,11.999,6.708,17.243c-0.847-1.484-0.472-5.734-0.979-7.691
	c-0.681-2.611-1.418-5.21-2.107-7.821c-0.029-0.108-0.07-0.213-0.098-0.324c-0.012,0.875,0.003,1.748,0.074,2.619
	c-0.211-0.295-0.438-0.583-0.67-0.858C154.91,273.189,153.923,272.145,152.915,271.122"/>
<path fill="#FFBF9C" d="M452.934,451.059c4.889,1.518,10.15,0.815,15.262,1.035c0.817,0.037,1.696,0.118,2.317,0.651
	c0.632,0.542,0.846,1.41,1.076,2.211c1.085,3.746,3.386,7.126,6.468,9.517c-8.355,13.085-17.65,25.568-27.789,37.324
	c-10.227-8.935-16.731-22.006-17.692-35.555c2.271-1.123,4.544-2.245,6.815-3.37c0.389-2.548-1.856-4.813-4.268-5.726
	c-2.41-0.913-5.069-0.948-7.526-1.725c-2.621-0.824-4.967-2.505-6.59-4.725c-1.014-1.383-1.662-3.515-0.388-4.664
	c0.726-0.655,1.801-0.697,2.782-0.689c3.151,0.031,6.368,0.154,9.464,0.702c1.61,0.28,3.312,0.294,4.939,0.465
	c2.738,0.284,5.408,0.444,7.979,1.491C448.179,448.98,450.445,450.311,452.934,451.059"/>
<path fill="#1678FB" d="M468.098,232.688c-2.769-0.841-5.365-1.031-7.636-0.293c-1.726,0.563-3.09,2.064-4.243,3.633
	c-8.967,12.208-7.945,30.353,3.59,39.33c20.62,16.054,38.578,36.478,52.917,59.775c9.674,15.721,33.308,50.87,21.99,70.43
	c-3.371,5.822-8.484,10-13.571,13.879c-10.507,8.013-21.309,15.68-32.692,22.412c-5.616,3.323-11.374,6.416-17.289,9.18
	c-0.992,0.463-3.618,1.083-4.273,1.896c-0.682,0.844-0.383,2.585-0.265,3.7c0.557,5.224,2.641,10.289,5.154,14.861
	c0.045,0.084,0.098,0.177,0.189,0.215c0.083,0.038,0.176,0.023,0.262,0.006c1.22-0.234,2.407-0.597,3.548-1.084
	c2.87-1.226,5.596-2.226,8.564-3.158c2.895-0.906,5.701-2.085,8.445-3.362c4.928-2.29,9.636-4.991,14.41-7.578
	c0.535-0.29,1.074-0.574,1.615-0.854c14.328-7.319,27.865-16.18,40.262-26.439c8.708-7.207,22.659-17.123,21.202-31.272
	c-3.771-36.632-16.592-71.789-35.885-101.307c-9.779-14.965-21.234-28.518-34.056-40.125
	C493.696,250.518,479.446,236.136,468.098,232.688"/>
<path fill="#EAA688" d="M441.306,460.624c-1.39-0.959-3.121-2.143-4.897-2.831c1.854,1.12,3.302,2.998,2.982,5.079
	c-2.271,1.125-4.544,2.247-6.815,3.37c0.041,0.591,0.109,1.178,0.171,1.766c0.841-0.046,1.678-0.082,2.501-0.121
	c5.079-0.233,10.135-0.908,15.096-2.01C447.626,466.48,443.299,461.996,441.306,460.624"/>
<g>
	<defs>
		<rect id="SVGID_2_" x="421.604" y="446.331" width="7.912" height="6.337"/>
	</defs>
	<clipPath id="SVGID_9_">
		<use xlink:href="#SVGID_2_"  overflow="visible"/>
	</clipPath>
	<path clip-path="url(#SVGID_9_)" fill="#FFFFFF" d="M423.133,446.373c-0.186-0.033-0.381-0.066-0.562-0.012
		c-0.202,0.06-0.358,0.219-0.484,0.388c-0.521,0.705-0.631,1.697-0.273,2.501c0.258,0.581,0.728,1.041,1.224,1.436
		c1.764,1.391,4.044,2.104,6.283,1.966c-0.664-1.831,0.665-3.939,0.009-5.768C427.275,446.725,425.161,446.712,423.133,446.373"/>
</g>
<path fill="#EAA688" d="M436.724,455.474c0.645-1.133,1.237-2.312,1.519-3.583c0.279-1.273,0.217-2.659-0.403-3.804
	c-0.123,1.25,0.208,2.516,0.087,3.782C437.795,453.192,437.374,454.329,436.724,455.474"/>
<g>
	<defs>
		<rect id="SVGID_1_" x="450.228" y="231.96" width="98.416" height="235.215"/>
	</defs>
	<clipPath id="SVGID_10_">
		<use xlink:href="#SVGID_1_"  overflow="visible"/>
	</clipPath>
	<path clip-path="url(#SVGID_10_)" fill="#085FB7" d="M546.114,384.946c-1.97-10.167-3.836-21.671-7.999-31.113
		c-4.152-9.417-9.164-18.621-14.306-27.527c-10.213-17.691-22.578-34.471-38.817-47.096c-0.506-0.395-1.02-0.785-1.533-1.171
		c-6.487-4.873-13.459-9.055-20.522-13.037c-2.677-7.083-6.254-21.323,2.06-32.946c-1.608-0.184-3.139-0.116-4.534,0.339
		c-1.724,0.562-3.09,2.063-4.24,3.633c-8.97,12.208-7.948,30.353,3.587,39.33c20.62,16.055,38.578,36.478,52.917,59.776
		c9.674,15.72,33.308,50.867,21.99,70.425c-3.371,5.825-8.484,10.005-13.571,13.882c-10.507,8.013-21.308,15.68-32.692,22.412
		c-3.04,1.798-6.13,3.514-9.256,5.162v0.187c-0.008-0.059-0.024-0.112-0.037-0.168c-0.611,0.323-1.24,0.611-1.854,0.927
		c0.113,0.719,0.259,1.438,0.331,1.999c0.378,2.939,1.159,5.827,2.294,8.562c1.295,3.124,3.071,6.049,5.228,8.654
		c0.484-0.161,0.963-0.345,1.448-0.522c-2.65-4.325-4.692-9.016-6.095-13.887c8.97-4.027,63.87-29.547,67.979-52.651
		C549.266,395.745,546.937,389.178,546.114,384.946"/>
</g>
<path fill="#DD9F3A" d="M242.535,79.009v6.825c0,1.861-1.509,3.37-3.37,3.37h-40.361c-1.861,0-3.37-1.509-3.37-3.37v-6.825
	c0-1.86,1.509-3.369,3.37-3.369h40.361C241.026,75.64,242.535,77.149,242.535,79.009z"/>
<path fill="#DD9F3A" d="M236.481,92.574v6.825c0,1.861-1.509,3.37-3.371,3.37h-40.36c-1.861,0-3.37-1.508-3.37-3.37v-6.825
	c0-1.86,1.509-3.369,3.37-3.369h40.36C234.972,89.205,236.481,90.714,236.481,92.574z"/>
<path fill="#DD9F3A" d="M238.751,106.139v6.825c0,1.862-1.509,3.37-3.371,3.37H195.02c-1.861,0-3.37-1.508-3.37-3.37v-6.825
	c0-1.86,1.509-3.369,3.37-3.369h40.361C237.242,102.77,238.751,104.279,238.751,106.139z"/>
<path fill="#DD9F3A" d="M236.481,119.704v6.825c0,1.862-1.509,3.37-3.371,3.37h-40.36c-1.861,0-3.37-1.508-3.37-3.37v-6.825
	c0-1.86,1.509-3.369,3.37-3.369h40.36C234.972,116.335,236.481,117.844,236.481,119.704z"/>
<path id="SVGCleanerId_0_3_" fill="#F4B74A" d="M236.481,119.704v4.707c0,1.74-1.32,3.174-3.013,3.352
	c-0.118,0.012-0.236,0.019-0.357,0.019h-32.066c-1.86,0-3.369-1.509-3.369-3.37v-4.707c0-1.86,1.509-3.369,3.369-3.369h32.066
	C234.972,116.335,236.481,117.844,236.481,119.704z"/>
<path id="SVGCleanerId_0_2_" fill="#F4B74A" d="M236.481,119.704v4.707c0,1.74-1.32,3.174-3.013,3.352
	c-0.118,0.012-0.236,0.019-0.357,0.019h-32.066c-1.86,0-3.369-1.509-3.369-3.37v-4.707c0-1.86,1.509-3.369,3.369-3.369h32.066
	C234.972,116.335,236.481,117.844,236.481,119.704z"/>
<path fill="#F4B74A" d="M236.481,106.139v4.707c0,1.74-1.32,3.173-3.013,3.352c-0.118,0.012-0.236,0.018-0.357,0.018h-32.066
	c-1.86,0-3.369-1.508-3.369-3.37v-4.707c0-1.86,1.509-3.369,3.369-3.369h32.066C234.972,102.77,236.481,104.278,236.481,106.139z"/>
<path fill="#F4B74A" d="M236.481,92.574v4.707c0,1.741-1.32,3.174-3.013,3.353c-0.118,0.012-0.236,0.018-0.357,0.018h-32.066
	c-1.86,0-3.369-1.508-3.369-3.371v-4.707c0-1.859,1.509-3.368,3.369-3.368h32.066C234.972,89.206,236.481,90.715,236.481,92.574z"/>
<path fill="#F4B74A" d="M242.535,79.009v4.706c0,1.74-1.32,3.174-3.014,3.353c-0.118,0.012-0.236,0.018-0.356,0.018h-32.066
	c-1.86,0-3.369-1.509-3.369-3.371v-4.706c0-1.86,1.509-3.369,3.369-3.369h32.066C241.026,75.641,242.535,77.149,242.535,79.009z"/>
<path fill="#DD9F3A" d="M236.481,119.704v6.825c0,1.74-1.32,3.174-3.013,3.352c-0.307,0.012-0.615,0.018-0.922,0.018
	c-3.256,0-6.513-0.67-9.546-2.014c-2.036-0.9-3.967-2.105-5.731-3.611c-0.472-0.402-0.929-0.826-1.376-1.271
	c-1.993-1.993-3.553-4.254-4.682-6.668h21.899C234.972,116.335,236.481,117.845,236.481,119.704z"/>
<path fill="#DD9F3A" d="M236.481,106.139v6.825c0,1.861-1.509,3.37-3.37,3.37h-19.632c-1.993-4.26-2.641-8.996-1.942-13.564h21.574
	C234.972,102.77,236.481,104.279,236.481,106.139z"/>
<path fill="#DD9F3A" d="M236.481,65.443v6.825c0,1.862-1.509,3.371-3.371,3.371h-40.36c-1.861,0-3.37-1.509-3.37-3.371v-6.825
	c0-1.859,1.509-3.368,3.37-3.368h40.36C234.972,62.075,236.481,63.584,236.481,65.443z"/>
<path fill="#F4B74A" d="M236.481,65.443v4.707c0,1.74-1.32,3.173-3.013,3.352c-0.118,0.013-0.236,0.019-0.357,0.019h-32.066
	c-1.86,0-3.369-1.509-3.369-3.37v-4.707c0-1.86,1.509-3.369,3.369-3.369h32.066C234.972,62.075,236.481,63.584,236.481,65.443z"/>
<rect x="225.998" y="62.075" fill="#F9C662" width="4.942" height="11.445"/>
<rect x="219.895" y="62.075" fill="#F9C662" width="2.471" height="11.445"/>
<rect x="231.951" y="75.641" fill="#F9C662" width="4.943" height="13.565"/>
<rect x="225.847" y="75.641" fill="#F9C662" width="2.472" height="13.565"/>
<path fill="#DD9F3A" d="M242.535,83.629v2.205c0,1.861-1.509,3.37-3.37,3.37h-18.979C226.343,83.399,234.863,81.541,242.535,83.629z
	"/>
<path fill="#DD9F3A" d="M236.481,92.574V99.4c0,1.861-1.509,3.37-3.37,3.37h-23.844c0.73-4.785,2.94-9.387,6.625-13.072
	c0.167-0.168,0.337-0.332,0.509-0.492h16.71C234.972,89.206,236.481,90.715,236.481,92.574z"/>
<path fill="#F4B74A" d="M256.161,123.002c-7.084,7.083-17.556,8.711-26.199,4.882c-2.035-0.901-3.967-2.104-5.731-3.61
	c-0.472-0.403-0.93-0.827-1.376-1.272c-9.196-9.198-9.196-24.108,0-33.306c9.198-9.197,24.108-9.197,33.306,0
	c0.446,0.446,0.87,0.905,1.271,1.376c1.507,1.762,2.71,3.695,3.611,5.731C264.871,105.445,263.243,115.918,256.161,123.002z"/>
<path fill="#F9C662" d="M261.042,96.805l-31.081,31.08c-2.035-0.901-3.967-2.104-5.731-3.61l33.201-33.202
	C258.939,92.835,260.142,94.769,261.042,96.805z"/>
<path fill="#FFD488" d="M256.161,106.35c0,9.197-7.457,16.653-16.653,16.653c-5.191,0-9.828-2.375-12.882-6.098
	c-2.357-2.873-3.771-6.549-3.771-10.555c0-9.197,7.456-16.652,16.653-16.652c4.006,0,7.683,1.415,10.554,3.772
	C253.785,96.523,256.161,101.159,256.161,106.35z"/>
<path fill="#F9C662" d="M250.062,93.47l-23.435,23.435l-0.001,0c-0.688-0.839-1.296-1.746-1.811-2.71
	c-0.586-1.095-1.053-2.262-1.384-3.486c-0.375-1.389-0.577-2.852-0.577-4.358c0-9.197,7.456-16.653,16.653-16.653
	c1.508,0,2.97,0.201,4.358,0.576c1.225,0.331,2.392,0.799,3.487,1.385C248.316,92.173,249.223,92.782,250.062,93.47z"/>
<path fill="#FFD488" d="M247.353,91.658l-22.537,22.536c-0.587-1.095-1.054-2.262-1.384-3.486l20.435-20.435
	C245.09,90.604,246.257,91.072,247.353,91.658z"/>
<path fill="#E0A33F" d="M240.643,105.306v-6.251c1.655,0.386,2.866,1.591,2.866,3.015c0,0.626,0.508,1.135,1.135,1.135
	c0.627,0,1.135-0.508,1.135-1.135c0-2.651-2.219-4.861-5.136-5.324v-0.667c0-0.627-0.508-1.135-1.135-1.135
	c-0.627,0-1.135,0.508-1.135,1.135v0.667c-2.918,0.463-5.136,2.673-5.136,5.324c0,2.651,2.218,4.862,5.136,5.324v6.25
	c-1.655-0.386-2.866-1.591-2.866-3.015c0-0.627-0.508-1.135-1.135-1.135s-1.135,0.508-1.135,1.135c0,2.65,2.218,4.861,5.136,5.323
	v0.668c0,0.626,0.508,1.135,1.135,1.135c0.627,0,1.135-0.508,1.135-1.135v-0.668c2.917-0.462,5.136-2.673,5.136-5.323
	C245.778,107.979,243.56,105.768,240.643,105.306z M235.506,102.07c0-1.424,1.211-2.629,2.866-3.015v6.03
	C236.718,104.7,235.506,103.494,235.506,102.07z M240.643,113.645v-6.03c1.655,0.386,2.866,1.591,2.866,3.016
	C243.508,112.054,242.297,113.259,240.643,113.645z"/>
<path fill="#E0A33F" d="M239.508,124.137c-5.349,0-10.364-2.374-13.76-6.514c-2.597-3.165-4.028-7.169-4.028-11.273
	c0-9.808,7.979-17.788,17.788-17.788c4.103,0,8.107,1.431,11.275,4.03c4.139,3.395,6.513,8.409,6.513,13.757
	C257.295,116.158,249.315,124.137,239.508,124.137z M239.508,90.832c-8.557,0-15.518,6.961-15.518,15.518
	c0,3.581,1.248,7.073,3.513,9.834c2.962,3.612,7.338,5.684,12.005,5.684c8.556,0,15.517-6.961,15.517-15.518
	c0-4.666-2.071-9.041-5.683-12.002C246.58,92.08,243.087,90.832,239.508,90.832z"/>
<path fill="#595965" d="M89.578,177.418v31.281c0,3.141-2.547,5.688-5.688,5.688H7.109c-3.141,0-5.688-2.547-5.688-5.688v-31.281
	c0-3.141,2.547-5.688,5.688-5.688h76.781C87.031,171.73,89.578,174.277,89.578,177.418z"/>
<path fill="#44454E" d="M83.891,171.73h-7.109c3.141,0,5.688,2.547,5.688,5.688v31.281c0,3.141-2.547,5.688-5.688,5.688h7.109
	c3.141,0,5.688-2.547,5.688-5.688v-31.281C89.578,174.277,87.031,171.73,83.891,171.73z"/>
<path fill="#595965" d="M22.75,171.73h-8.531V156.09c0-0.785,0.637-1.422,1.422-1.422h5.688c0.785,0,1.422,0.637,1.422,1.422V171.73
	z"/>
<path fill="#44454E" d="M21.328,154.668h-4.266c0.785,0,1.422,0.637,1.422,1.422v15.641h4.266V156.09
	C22.75,155.305,22.113,154.668,21.328,154.668z"/>
<path fill="#595965" d="M76.781,171.73H68.25V156.09c0-0.785,0.637-1.422,1.422-1.422h5.688c0.785,0,1.422,0.637,1.422,1.422V171.73
	z"/>
<path fill="#44454E" d="M73.938,154.668h-4.266c-0.785,0-1.422,0.637-1.422,1.422v15.641h4.266V156.09
	C72.516,155.305,73.152,154.668,73.938,154.668z"/>
<path fill="#EDEBFD" d="M68.25,171.73h-45.5v-25.594c0-1.571,1.273-2.844,2.844-2.844h39.813c1.571,0,2.844,1.273,2.844,2.844
	V171.73z"/>
<path fill="#D2D2FC" d="M65.406,143.293h-7.109c1.57,0,2.844,1.273,2.844,2.844v25.594h7.109v-25.594
	C68.25,144.566,66.977,143.293,65.406,143.293z"/>
<path fill="#EDEBFD" d="M65.406,231.449H25.594c-1.571,0-2.844-1.273-2.844-2.844v-25.594h45.5v25.594
	C68.25,230.176,66.977,231.449,65.406,231.449z"/>
<path fill="#D2D2FC" d="M61.141,203.012v25.594c0,1.57-1.273,2.844-2.844,2.844h7.109c1.57,0,2.844-1.273,2.844-2.844v-25.594
	H61.141z"/>
<circle fill="#79CB9C" cx="81.047" cy="180.262" r="2.844"/>
<circle fill="#CC5B6F" cx="69.672" cy="180.262" r="2.844"/>
<path d="M83.891,170.309h-5.688V156.09c0-1.568-1.276-2.844-2.844-2.844h-5.688v-7.109c0-2.352-1.914-4.266-4.266-4.266H25.594
	c-2.352,0-4.266,1.914-4.266,4.266v7.109h-5.688c-1.568,0-2.844,1.276-2.844,2.844v14.219H7.109c-3.92,0-7.109,3.189-7.109,7.109
	v31.281c0,3.92,3.189,7.109,7.109,7.109h14.219v12.797c0,2.352,1.914,4.266,4.266,4.266h39.813c2.352,0,4.266-1.914,4.266-4.266
	v-12.797h14.219c3.92,0,7.109-3.189,7.109-7.109v-31.281C91,173.498,87.811,170.309,83.891,170.309z M75.359,156.09v14.219h-5.688
	V156.09H75.359z M24.172,146.137c0-0.784,0.638-1.422,1.422-1.422h39.813c0.784,0,1.422,0.638,1.422,1.422v24.172H24.172
	C24.172,170.018,24.172,147.166,24.172,146.137z M15.641,156.09h5.688v14.219h-5.688V156.09z M66.828,228.605
	c0,0.784-0.638,1.422-1.422,1.422H25.594c-0.784,0-1.422-0.638-1.422-1.422v-24.172h42.656V228.605z M88.156,208.699
	c0,2.352-1.914,4.266-4.266,4.266H69.672v-8.531h2.844c0.785,0,1.422-0.637,1.422-1.422s-0.637-1.422-1.422-1.422
	c-5.093,0-51.7,0-54.031,0c-0.785,0-1.422,0.637-1.422,1.422s0.637,1.422,1.422,1.422h2.844v8.531H7.109
	c-2.352,0-4.266-1.914-4.266-4.266v-31.281c0-2.352,1.914-4.266,4.266-4.266h76.781c2.352,0,4.266,1.914,4.266,4.266V208.699z"/>
<path d="M81.047,175.996c-2.352,0-4.266,1.914-4.266,4.266s1.914,4.266,4.266,4.266s4.266-1.914,4.266-4.266
	S83.399,175.996,81.047,175.996z M81.047,181.684c-0.784,0-1.422-0.638-1.422-1.422s0.638-1.422,1.422-1.422
	s1.422,0.638,1.422,1.422S81.831,181.684,81.047,181.684z"/>
<path d="M69.672,175.996c-2.352,0-4.266,1.914-4.266,4.266s1.914,4.266,4.266,4.266s4.266-1.914,4.266-4.266
	S72.024,175.996,69.672,175.996z M69.672,181.684c-0.784,0-1.422-0.638-1.422-1.422s0.638-1.422,1.422-1.422
	s1.422,0.638,1.422,1.422S70.456,181.684,69.672,181.684z"/>
<path d="M61.141,208.699H31.281c-0.785,0-1.422,0.637-1.422,1.422s0.637,1.422,1.422,1.422h29.859c0.785,0,1.422-0.637,1.422-1.422
	S61.926,208.699,61.141,208.699z"/>
<path d="M61.141,215.809H31.281c-0.785,0-1.422,0.637-1.422,1.422s0.637,1.422,1.422,1.422h29.859c0.785,0,1.422-0.637,1.422-1.422
	S61.926,215.809,61.141,215.809z"/>
<path d="M61.141,222.918H31.281c-0.785,0-1.422,0.637-1.422,1.422s0.637,1.422,1.422,1.422h29.859c0.785,0,1.422-0.637,1.422-1.422
	S61.926,222.918,61.141,222.918z"/>
<path fill="#F6A7C5" d="M105.354,350.114l-74.813,14.507c-0.898,0.175-1.485,1.044-1.311,1.942l15.453,79.691
	c0.174,0.898,1.043,1.486,1.942,1.313l53.806-10.434l18.245-27.023l-11.38-58.685C107.122,350.528,106.252,349.94,105.354,350.114z"
	/>
<path fill="#F082A6" d="M100.43,437.133l18.245-27.023l-21.007,4.073c-0.898,0.175-1.485,1.044-1.311,1.942L100.43,437.133z"/>
<polygon fill="#F082A6" points="42.712,362.261 51.139,378.508 69.363,375.196 70.673,356.838 "/>
<path fill="#FCDE76" d="M71.801,342.258c-0.539-0.288-1.192-0.257-1.7,0.082l-4.051,2.701l-4.051-2.701
	c-0.557-0.371-1.282-0.371-1.838,0l-4.051,2.701l-4.051-2.701c-1.082-0.721-2.576,0.082-2.576,1.378v33.134
	c0,0.915,0.742,1.656,1.657,1.656h19.88c0.915,0,1.656-0.742,1.656-1.656v-33.134C72.676,343.108,72.339,342.546,71.801,342.258z"/>
<path fill="#F4FBFF" d="M502.729,196.477v70.125c0,5.527,4.48,10.007,10.007,10.007h78.536c5.526,0,10.007-4.48,10.007-10.007
	v-93.01c0-5.527-4.48-10.007-10.007-10.007h-55.651c-3.317,0-6.499,1.318-8.845,3.664l-20.384,20.384
	C504.047,189.978,502.729,193.16,502.729,196.477L502.729,196.477z"/>
<path fill="#E4F6FF" d="M502.729,196.479v2.136c0-4.042,3.277-7.318,7.318-7.318h10.386c5.525,0,10.006-4.48,10.006-10.006v-10.386
	c0-4.042,3.277-7.318,7.318-7.318h-2.136c-3.318,0-6.499,1.319-8.846,3.664l-20.384,20.383
	C504.048,189.979,502.729,193.161,502.729,196.479L502.729,196.479z"/>
<path fill="#B3E59F" d="M600.216,287.938c-2.289,0-4.464-1.056-5.878-2.881l-12.438-16.044c-2.517-3.247-1.926-7.919,1.321-10.436
	c3.247-2.518,7.92-1.926,10.437,1.321l5.584,7.202l10.896-19.293c2.021-3.577,6.559-4.839,10.136-2.819s4.839,6.558,2.818,10.135
	l-16.396,29.034c-1.226,2.169-3.454,3.581-5.938,3.762C600.576,287.931,600.396,287.938,600.216,287.938L600.216,287.938z"/>
<path d="M519.038,214.827c1.037,0,1.877-0.84,1.877-1.876v-6.65l5.146,7.452c0.541,0.781,1.446,1.111,2.307,0.842
	c0.877-0.274,1.442-1.087,1.442-2.09l-0.118-12.266c-0.01-1.03-0.849-1.858-1.876-1.858c-0.006,0-0.013,0-0.02,0
	c-1.036,0.01-1.867,0.858-1.857,1.894l0.065,6.79l-5.421-7.85c-0.467-0.676-1.318-0.969-2.104-0.725
	c-0.784,0.245-1.317,0.97-1.317,1.792v12.669C517.162,213.987,518.002,214.827,519.038,214.827z"/>
<path d="M564.477,214.827c1.036,0,1.876-0.84,1.876-1.876v-12.693c0-1.037-0.84-1.877-1.876-1.877s-1.877,0.84-1.877,1.877v12.693
	C562.6,213.987,563.44,214.827,564.477,214.827z"/>
<path d="M512.184,214.827c1.037,0,1.877-0.84,1.877-1.876v-12.693c0-1.037-0.84-1.877-1.877-1.877c-1.036,0-1.876,0.84-1.876,1.877
	v12.693C510.308,213.987,511.147,214.827,512.184,214.827z"/>
<path d="M584.648,200.373v12.578c0,1.037,0.839,1.876,1.876,1.876h5.3c1.037,0,1.876-0.84,1.876-1.876
	c0-1.036-0.839-1.876-1.876-1.876h-3.423v-2.536h3.032c1.036,0,1.876-0.84,1.876-1.876c0-1.037-0.84-1.876-1.876-1.876h-3.032
	v-2.536h3.423c1.037,0,1.876-0.84,1.876-1.876c0-1.037-0.839-1.876-1.876-1.876h-5.3
	C585.488,198.497,584.648,199.336,584.648,200.373L584.648,200.373z"/>
<path d="M576.304,214.827c1.82,0,3.456-0.6,4.733-1.736c0.249-0.222,0.485-0.467,0.703-0.727c0.666-0.794,0.563-1.978-0.231-2.644
	s-1.978-0.563-2.644,0.232c-0.103,0.121-0.211,0.234-0.325,0.336c-0.586,0.521-1.338,0.785-2.236,0.785
	c-2.465,0-4.47-2.005-4.47-4.47s2.006-4.47,4.47-4.47c0.896,0,1.761,0.264,2.499,0.763c0.858,0.58,2.024,0.354,2.604-0.504
	c0.58-0.859,0.354-2.026-0.504-2.606c-1.361-0.919-2.952-1.406-4.6-1.406c-4.534,0-8.224,3.689-8.224,8.224
	S571.77,214.827,576.304,214.827L576.304,214.827z"/>
<path d="M535.715,213.388c0.307,0.862,1.124,1.439,2.038,1.439h0.015c0.92-0.006,1.737-0.596,2.038-1.479l4.145-12.477
	c0.326-0.983-0.206-2.045-1.189-2.372c-0.982-0.327-2.046,0.206-2.373,1.189l-2.667,8.031l-2.805-8.079
	c-0.339-0.979-1.409-1.497-2.388-1.157c-0.979,0.339-1.497,1.409-1.158,2.388L535.715,213.388z"/>
<path d="M552.116,214.827c4.535,0,8.224-3.689,8.224-8.223s-3.688-8.224-8.224-8.224c-4.534,0-8.223,3.689-8.223,8.224
	S547.582,214.827,552.116,214.827z M552.116,202.134c2.466,0,4.471,2.005,4.471,4.47s-2.005,4.47-4.471,4.47
	c-2.465,0-4.47-2.005-4.47-4.47S549.651,202.134,552.116,202.134z"/>
<path d="M595.47,219.729h-67.283c-1.036,0-1.876,0.84-1.876,1.876c0,1.037,0.84,1.876,1.876,1.876h67.283
	c1.037,0,1.877-0.84,1.877-1.876C597.347,220.569,596.507,219.729,595.47,219.729z"/>
<path d="M522.567,221.605c0-1.036-0.84-1.876-1.877-1.876h-12.152c-1.036,0-1.876,0.84-1.876,1.876c0,1.037,0.84,1.876,1.876,1.876
	h12.152C521.728,223.482,522.567,222.642,522.567,221.605z"/>
<path d="M561.949,230.113h-39.78c-1.036,0-1.877,0.84-1.877,1.876c0,1.037,0.841,1.877,1.877,1.877h39.78
	c1.036,0,1.876-0.84,1.876-1.877C563.825,230.953,562.985,230.113,561.949,230.113L561.949,230.113z"/>
<path d="M581.839,230.113h-5.418c-1.036,0-1.877,0.84-1.877,1.876c0,1.037,0.841,1.877,1.877,1.877h5.418
	c1.036,0,1.877-0.84,1.877-1.877C583.716,230.953,582.875,230.113,581.839,230.113z"/>
<path d="M561.949,239.816h-39.78c-1.036,0-1.877,0.84-1.877,1.877c0,1.036,0.841,1.876,1.877,1.876h39.78
	c1.036,0,1.876-0.84,1.876-1.876C563.825,240.656,562.985,239.816,561.949,239.816L561.949,239.816z"/>
<path d="M581.839,239.816h-5.418c-1.036,0-1.877,0.84-1.877,1.877c0,1.036,0.841,1.876,1.877,1.876h5.418
	c1.036,0,1.877-0.84,1.877-1.876C583.716,240.656,582.875,239.816,581.839,239.816z"/>
<path d="M561.949,249.52h-39.78c-1.036,0-1.877,0.84-1.877,1.876s0.841,1.876,1.877,1.876h39.78c1.036,0,1.876-0.84,1.876-1.876
	S562.985,249.52,561.949,249.52L561.949,249.52z"/>
<path d="M581.839,249.52h-5.418c-1.036,0-1.877,0.84-1.877,1.876s0.841,1.876,1.877,1.876h5.418c1.036,0,1.877-0.84,1.877-1.876
	S582.875,249.52,581.839,249.52z"/>
<path d="M561.949,259.224h-39.78c-1.036,0-1.877,0.839-1.877,1.876c0,1.036,0.841,1.876,1.877,1.876h39.78
	c1.036,0,1.876-0.84,1.876-1.876C563.825,260.063,562.985,259.224,561.949,259.224L561.949,259.224z"/>
<path d="M625.589,248.968c-0.667-2.397-2.229-4.391-4.396-5.615c-2.165-1.223-4.679-1.529-7.075-0.863
	c-2.397,0.667-4.392,2.228-5.614,4.394l-5.347,9.467v-82.76c0-6.552-5.331-11.882-11.885-11.882h-55.65
	c-3.787,0-7.495,1.536-10.172,4.213l-20.385,20.384c-2.677,2.677-4.213,6.384-4.213,10.171v2.118c0,0.007,0,0.013,0,0.02
	c0,0.003,0,0.006,0,0.01v67.979c0,6.552,5.332,11.882,11.885,11.882h74.131l5.987,7.724c1.753,2.258,4.504,3.605,7.359,3.605
	c0.213,0,0.433-0.008,0.679-0.024c3.117-0.227,5.896-1.987,7.436-4.709l6.918-12.25c0.51-0.903,0.191-2.047-0.711-2.557
	c-0.903-0.51-2.048-0.191-2.558,0.711l-6.917,12.25c-0.919,1.626-2.579,2.677-4.433,2.812c-0.152,0.011-0.288,0.016-0.414,0.016
	c-1.705,0-3.349-0.805-4.395-2.153l-12.438-16.046c-0.911-1.173-1.309-2.631-1.123-4.105c0.188-1.475,0.937-2.788,2.11-3.698
	c2.424-1.879,5.925-1.435,7.804,0.988l5.585,7.204c0.385,0.497,0.992,0.768,1.619,0.722c0.627-0.045,1.188-0.402,1.498-0.949
	l10.896-19.294c0.73-1.293,1.921-2.225,3.353-2.623c1.431-0.398,2.931-0.215,4.224,0.516c1.294,0.73,2.227,1.921,2.625,3.352
	c0.398,1.432,0.215,2.933-0.516,4.227l-5.811,10.286c-0.51,0.902-0.191,2.047,0.711,2.557c0.903,0.509,2.048,0.191,2.557-0.711
	l5.811-10.286C625.949,253.879,626.256,251.366,625.589,248.968L625.589,248.968z M528.104,168.575
	c0.33-0.331,0.683-0.634,1.053-0.917c-0.383,1.01-0.594,2.103-0.594,3.245v10.386c0,4.483-3.647,8.13-8.13,8.13h-10.386
	c-1.142,0-2.235,0.21-3.245,0.593c0.282-0.37,0.587-0.723,0.917-1.053L528.104,168.575z M598.995,263.72l-3.855-4.973
	c-3.146-4.057-9.01-4.8-13.068-1.654c-0.788,0.611-1.459,1.331-2.004,2.131h-3.647c-1.036,0-1.876,0.84-1.876,1.876
	c0,1.037,0.84,1.877,1.876,1.877h2.163c-0.016,0.103-0.033,0.205-0.046,0.308c-0.313,2.469,0.354,4.911,1.879,6.876l3.542,4.57
	h-71.221c-4.484,0-8.132-3.647-8.132-8.129v-68.008c0.011-2.992,2.447-5.422,5.441-5.422h10.386c6.553,0,11.883-5.331,11.883-11.883
	v-10.386c0-3.001,2.441-5.442,5.442-5.442c0.003,0,0.006,0,0.009,0h53.506c4.483,0,8.132,3.647,8.132,8.129v89.405L598.995,263.72z"
	/>
<path d="M577.831,188.981c1.097,0.717,1.936,1.054,2.884,1.204v0.295c0,1.036,0.841,1.876,1.877,1.876s1.877-0.84,1.877-1.876
	v-0.502c2.143-0.732,3.515-2.643,3.833-4.534c0.44-2.623-0.979-4.992-3.534-5.895c-1.285-0.454-2.702-1-3.471-1.603
	c-0.111-0.088-0.188-0.388-0.123-0.738c0.035-0.183,0.193-0.794,0.794-0.975c1.333-0.402,2.188,0.265,2.281,0.342
	c0.796,0.663,1.979,0.555,2.643-0.242s0.555-1.98-0.242-2.643c-0.547-0.455-1.296-0.867-2.181-1.11v-0.26
	c0-1.037-0.841-1.876-1.877-1.876c-1.037,0-1.877,0.84-1.877,1.876v0.377c-1.659,0.569-2.89,2.014-3.229,3.815
	c-0.324,1.727,0.248,3.408,1.495,4.386c1.192,0.936,2.885,1.604,4.536,2.188c1.072,0.379,1.182,1.152,1.083,1.733
	c-0.137,0.818-0.823,1.702-2.007,1.717c0,0,0,0-0.001,0c-0.006,0-0.012,0.001-0.018,0.001c-1.344,0.009-1.691-0.047-2.688-0.699
	c-0.868-0.567-2.031-0.325-2.599,0.543C576.72,187.25,576.964,188.414,577.831,188.981L577.831,188.981z"/>
<path fill="#FFD54F" d="M642.864,21.945l-34.737,25.113l-5.7,4.131c-3.019,2.23-7.142,2.23-10.161,0l-5.699-4.131l-34.778-25.072
	c1.933-2.705,5.06-4.308,8.385-4.295h74.349C637.82,17.691,640.923,19.273,642.864,21.945z"/>
<path fill="#FFC107" d="M551.788,21.986l34.778,25.072l-33.705,33.704c-1.938-1.941-3.02-4.572-3.015-7.311V28.018
	C549.838,25.849,550.516,23.738,551.788,21.986z"/>
<path fill="#FFC107" d="M644.847,28.018v45.435c0.004,2.738-1.078,5.369-3.015,7.311l-33.705-33.704l34.737-25.113
	C644.152,23.705,644.847,25.832,644.847,28.018z"/>
<path fill="#455A64" d="M611.803,92.039c-2.742,0-4.13-2.065-4.13-6.195c0.065-5.771-4.556-10.504-10.326-10.57
	s-10.504,4.556-10.569,10.326c-0.066,5.771,4.555,10.504,10.325,10.57c3.095,0.037,6.043-1.302,8.055-3.647
	c1.372,2.351,3.929,3.755,6.646,3.647c8.262,0,8.262-7.774,8.262-10.326c0-12.549-10.17-22.718-22.718-22.718
	s-22.718,10.169-22.718,22.713c0,12.545,10.17,22.718,22.718,22.718c5.894,0,11.558-2.292,15.795-6.39
	c0.821-0.797,0.839-2.11,0.042-2.929c-0.798-0.821-2.111-0.838-2.934-0.041l0,0c-7.389,7.125-19.156,6.914-26.281-0.475
	c-7.125-7.39-6.915-19.157,0.475-26.282s19.156-6.915,26.281,0.475c3.346,3.47,5.213,8.104,5.209,12.924
	C615.934,90.474,614.893,92.039,611.803,92.039z M597.347,92.039c-3.42,0-6.196-2.775-6.196-6.195s2.776-6.195,6.196-6.195
	s6.195,2.771,6.195,6.195C603.543,89.268,600.767,92.039,597.347,92.039z"/>
<path fill="#FFA000" d="M608.127,47.059l-5.7,4.131c-3.019,2.23-7.142,2.23-10.161,0l-5.699-4.131l-33.705,33.704
	c1.941,1.938,4.572,3.02,7.312,3.016h10.429c1.12-14.771,13.998-25.836,28.766-24.721c13.217,1,23.721,11.504,24.721,24.721h10.434
	c2.738,0.004,5.369-1.078,7.311-3.016L608.127,47.059z"/>
<path d="M634.521,83.778h-8.261c-1.141,0-2.064-0.925-2.064-2.065c0-1.14,0.924-2.064,2.064-2.064h8.261
	c3.416,0,6.196-2.78,6.196-6.196V28.018c0-3.416-2.78-6.196-6.196-6.196h-74.348c-3.416,0-6.196,2.776-6.196,6.196v45.435
	c0,3.416,2.78,6.196,6.196,6.196h8.261c1.141,0,2.065,0.921,2.065,2.064c0,1.145-0.925,2.065-2.065,2.065h-8.261
	c-5.692,0-10.326-4.635-10.326-10.326V28.018c0-5.692,4.634-10.326,10.326-10.326h74.349c5.695,0,10.325,4.63,10.325,10.326v45.435
	C644.847,79.144,640.217,83.778,634.521,83.778z"/>
<path d="M597.352,54.927c-2.211,0-4.42-0.689-6.308-2.069L558.967,29.69c-0.93-0.669-1.137-1.958-0.467-2.883
	c0.665-0.93,1.953-1.137,2.883-0.467l32.094,23.176c2.325,1.697,5.428,1.697,7.736,0.008l32.098-23.184
	c0.925-0.665,2.214-0.463,2.883,0.462c0.67,0.926,0.459,2.219-0.463,2.884l-32.094,23.175
	C601.762,54.237,599.557,54.927,597.352,54.927z"/>
<path d="M560.173,75.518c-0.528,0-1.058-0.203-1.462-0.604c-0.806-0.806-0.806-2.114,0-2.92l20.652-20.652
	c0.805-0.805,2.114-0.805,2.92,0c0.805,0.806,0.805,2.115,0,2.921l-20.652,20.651C561.23,75.314,560.701,75.518,560.173,75.518z"/>
<path d="M634.521,75.518c-0.528,0-1.058-0.203-1.462-0.604l-20.652-20.652c-0.805-0.805-0.805-2.114,0-2.92
	c0.806-0.806,2.115-0.806,2.92,0l20.652,20.652c0.806,0.806,0.806,2.114,0,2.92C635.578,75.314,635.049,75.518,634.521,75.518z"/>
<path d="M597.359,108.564c-0.129,0-0.256,0-0.385-0.003c-6.067-0.1-11.73-2.558-15.951-6.919
	c-8.711-9.005-8.472-23.411,0.528-32.119c4.362-4.221,10.202-6.492,16.171-6.39c6.063,0.1,11.73,2.557,15.951,6.915
	c4.118,4.259,6.391,9.867,6.391,15.795c0,1.14-0.926,2.064-2.065,2.064s-2.065-0.925-2.065-2.064c0-4.85-1.858-9.438-5.233-12.925
	c-3.452-3.563-8.087-5.575-13.052-5.658c-4.865,0-9.661,1.78-13.23,5.233c-7.364,7.125-7.559,18.913-0.43,26.278
	c3.453,3.568,8.088,5.58,13.053,5.658c4.981,0.174,9.657-1.776,13.23-5.229c0.817-0.788,2.127-0.772,2.92,0.05
	s0.771,2.127-0.05,2.92C608.875,106.302,603.286,108.564,597.359,108.564z"/>
<path d="M597.347,96.17c-5.692,0-10.326-4.635-10.326-10.326s4.634-10.326,10.326-10.326c5.691,0,10.326,4.63,10.326,10.326
	C607.673,91.539,603.039,96.17,597.347,96.17z M597.347,79.648c-3.416,0-6.196,2.779-6.196,6.195s2.78,6.195,6.196,6.195
	s6.195-2.779,6.195-6.195C603.543,82.428,600.763,79.648,597.347,79.648z"/>
<path d="M611.803,96.17c-5.171,0-8.261-3.862-8.261-10.326c0-1.141,0.925-2.065,2.065-2.065s2.064,0.921,2.064,2.065
	c0,4.109,1.393,6.195,4.131,6.195c3.09,0,4.131-1.565,4.131-6.195c0-1.141,0.926-2.065,2.064-2.065c1.141,0,2.066,0.921,2.066,2.065
	C620.064,88.396,620.064,96.17,611.803,96.17z"/>
</svg>
