<?xml version="1.0" encoding="utf-8"?>
<!-- Generator: Adobe Illustrator 15.0.0, SVG Export Plug-In  -->
<!DOCTYPE svg PUBLIC "-//W3C//DTD SVG 1.1//EN" "http://www.w3.org/Graphics/SVG/1.1/DTD/svg11.dtd" [
	<!ENTITY ns_flows "http://ns.adobe.com/Flows/1.0/">
]>
<svg version="1.1"
	 xmlns="http://www.w3.org/2000/svg" xmlns:xlink="http://www.w3.org/1999/xlink" xmlns:a="http://ns.adobe.com/AdobeSVGViewerExtensions/3.0/"
	 x="0px" y="0px" width="1060px" height="1060px" viewBox="0 0 1060 1060" enable-background="new 0 0 1060 1060"
	 xml:space="preserve">
<defs>
</defs>
<rect fill="#EBEBEB" width="1060" height="723.524"/>
<rect x="42.296" y="41.3" fill="#FFFFFF" width="473.529" height="640.924"/>
<rect x="55.025" y="436.644" fill="#EBEBEB" width="48.766" height="245.58"/>
<rect x="369.525" y="436.644" fill="#EBEBEB" width="48.766" height="245.58"/>
<rect x="124.692" y="512.322" fill="#EBEBEB" width="48.766" height="169.902"/>
<rect x="445.164" y="512.322" fill="#EBEBEB" width="48.767" height="169.902"/>
<rect x="200.33" y="456.326" fill="#EBEBEB" width="66.683" height="225.898"/>
<polygon fill="#EBEBEB" points="348.623,682.224 281.94,682.224 281.94,521.043 348.623,456.325 "/>
<rect x="33.129" y="625.282" fill="#EBEBEB" width="482.697" height="56.939"/>
<rect x="553.341" y="41.3" fill="#FFFFFF" width="473.53" height="640.924"/>
<rect x="566.071" y="436.644" fill="#EBEBEB" width="48.766" height="245.58"/>
<rect x="880.568" y="436.644" fill="#EBEBEB" width="48.768" height="245.58"/>
<rect x="635.737" y="512.322" fill="#EBEBEB" width="48.768" height="169.902"/>
<rect x="956.209" y="512.322" fill="#EBEBEB" width="48.767" height="169.902"/>
<rect x="711.376" y="456.326" fill="#EBEBEB" width="66.683" height="225.898"/>
<polygon fill="#EBEBEB" points="859.668,682.224 792.987,682.224 792.987,521.043 859.668,456.325 "/>
<rect x="544.174" y="625.282" fill="#EBEBEB" width="482.697" height="56.939"/>
<rect y="692.228" fill="#D4D4D4" width="1060" height="31.297"/>
<g>
	<defs>
		<rect id="SVGID_1_" width="1060" height="1060"/>
	</defs>
	<clipPath id="SVGID_2_">
		<use xlink:href="#SVGID_1_"  overflow="visible"/>
	</clipPath>
	<path clip-path="url(#SVGID_2_)" fill="#96665B" d="M179.007,747.122c0,2.196-16.517,3.977-36.89,3.977
		c-20.376,0-36.893-1.78-36.893-3.977s16.517-3.978,36.893-3.978C162.491,743.145,179.007,744.926,179.007,747.122"/>
	<path clip-path="url(#SVGID_2_)" fill="#7894BA" d="M134.118,760.051c3.171,0.064,3.784-21.465-0.373-42.938
		c-4.753-24.561-11.789-28.598-16.81-53.883c-4.571-23.005,0.196-24.982-4.406-41.75c-8.709-31.744-33.5-52.747-34.931-50.05
		c-0.854,1.611,7.314,10.356,10.594,26.322c3.763,18.306-3.591,23.278-2.37,40.307c1.4,19.527,11.98,25.666,27.121,61.475
		C127.915,734.934,134.118,760.051,134.118,760.051"/>
	<path clip-path="url(#SVGID_2_)" fill="#333F4F" d="M134.118,760.051c0,0-24.758-45.578-44.9-107.399
		C89.218,652.651,121.485,697.693,134.118,760.051"/>
	<path clip-path="url(#SVGID_2_)" fill="#333F4F" d="M136.691,780.144c0.729-12.271-2.334-26.779-2.363-26.925
		c-2.828-27.011-8.812-50.701-17.767-70.31c-0.837-1.836-1.712-3.664-2.601-5.518c-4.19-8.747-8.527-17.792-10.333-30.473
		c-0.979-6.863-0.727-11.412-0.485-15.809c0.248-4.475,0.481-8.702-0.541-14.946c-1.997-12.196-7.761-24.804-17.132-37.477
		l-0.633,0.861c9.19,12.43,14.838,24.757,16.784,36.639c0.988,6.039,0.759,10.171,0.518,14.544c-0.249,4.486-0.505,9.123,0.5,16.169
		c1.853,12.984,6.254,22.173,10.511,31.057c0.882,1.841,1.753,3.658,2.587,5.482c8.863,19.413,14.788,42.895,17.608,69.794
		c0.046,0.244,3.055,14.507,2.342,26.525L136.691,780.144z"/>
	<path clip-path="url(#SVGID_2_)" fill="#333F4F" d="M129.334,781.39l-1.389-0.586c15.886-75.529-4.036-162.022-4.24-162.886
		l1.377-0.648C125.285,618.142,145.352,705.229,129.334,781.39"/>
	<path clip-path="url(#SVGID_2_)" fill="#7894BA" d="M123.908,620.138c0,0-20.901-49.626-25.726-89.494
		c-1.667-13.757-1.834-26.18-1.428-36.388C96.755,494.256,127.64,553.078,123.908,620.138"/>
	<path clip-path="url(#SVGID_2_)" fill="#333F4F" d="M96.756,494.256c0,0,0.593,29.417,14.02,58.313
		c13.426,28.896,27.1,47.76,15.542,107.867C126.317,660.436,91.384,544.254,96.756,494.256"/>
	<path clip-path="url(#SVGID_2_)" fill="#7894BA" d="M160.558,749.42c0,0,22.472-49.185,28.563-88.942
		c2.102-13.716,2.665-26.134,2.582-36.345C191.703,624.133,158.959,682.305,160.558,749.42"/>
	<path clip-path="url(#SVGID_2_)" fill="#333F4F" d="M191.703,624.133c0,0-3.894,28.705-15.868,58.006
		c-20.439,50.017-33.749,42.635-24.105,102.957C151.73,785.096,195.485,674.225,191.703,624.133"/>
	<path clip-path="url(#SVGID_2_)" fill="#7894BA" d="M138.64,746.702c-4.609,0.764-12.593-30.533-13.596-62.758
		c-1.147-36.854,7.793-44.232,6.797-82.202c-0.905-34.545-8.514-36.425-7.321-61.873c2.263-48.178,31.535-84.069,34.514-80.434
		c1.776,2.171-7.268,16.661-6.799,40.66c0.536,27.516,12.908,33.221,16.733,58.336c4.386,28.8-9.036,40-19.347,95.46
		C139.426,708.73,138.64,746.702,138.64,746.702"/>
	<path clip-path="url(#SVGID_2_)" fill="#333F4F" d="M138.64,746.702c0,0,21.129-71.758,30.174-166.255
		C168.813,580.447,136.547,653.008,138.64,746.702"/>
	<path clip-path="url(#SVGID_2_)" fill="#333F4F" d="M141.499,776.576c-5.103-17.759-5.411-39.584-5.413-39.802
		c-4.77-40.025-3.836-75.87,2.777-106.385c0.617-2.855,1.296-5.71,1.98-8.603c3.239-13.655,6.587-27.773,5.05-46.665
		c-0.831-10.225-2.695-16.811-4.496-23.179c-1.836-6.48-3.568-12.6-4.132-21.929c-1.1-18.226,3.162-37.849,12.667-58.326
		l1.208,1.125c-9.322,20.083-13.505,39.27-12.433,57.024c0.544,9.027,2.238,15.008,4.032,21.341
		c1.84,6.494,3.742,13.21,4.594,23.707c1.574,19.345-1.827,33.686-5.116,47.553c-0.68,2.874-1.354,5.712-1.971,8.551
		c-6.547,30.208-7.462,65.734-2.723,105.598c0.013,0.369,0.318,21.819,5.314,39.214L141.499,776.576z"/>
	<path clip-path="url(#SVGID_2_)" fill="#333F4F" d="M138.958,762.701c0,0,33.901-91.744,64.738-148.659l-36.502,28.674
		l-23.529,67.505L138.958,762.701z"/>
	<path clip-path="url(#SVGID_2_)" fill="#7894BA" d="M138.958,762.701c-1.656-30.98,1.942-52.466,5.49-66.296
		c5.133-19.995,10.66-25.916,17.255-53.031c5.881-24.177,4.547-32.052,7.845-43.754c5.145-18.26,19.487-38.433,60.789-44.414
		c0,0-6.275,1.253-10.59,8.581c-4.313,7.329-8.628,47.922-25.883,64.418c-17.257,16.494-34.903,31.877-43.923,71.252
		C140.918,738.835,138.958,762.701,138.958,762.701"/>
	<path clip-path="url(#SVGID_2_)" fill="#333F4F" d="M139.681,779.066h-1.448v-16.365c0-50.157,15.264-84.055,30.025-116.836
		c5.771-12.812,11.219-24.912,15.53-37.57c15.172-44.569,33.149-48.255,33.906-48.39l0.182,2.033
		c-0.178,0.033-17.99,3.789-32.785,47.247c-4.348,12.768-9.818,24.918-15.611,37.781c-14.649,32.534-29.799,66.175-29.799,115.734
		V779.066z"/>
	<path clip-path="url(#SVGID_2_)" fill="#333F4F" d="M151.802,794.406c3.926-27.829,8.921-46.802,9.028-47.203l-1.352-0.676
		c-0.108,0.406-5.152,19.551-9.107,47.632C150.849,794.236,151.324,794.319,151.802,794.406"/>
	<path clip-path="url(#SVGID_2_)" fill="#FF9775" d="M142.117,751.099c-20.373,0-36.89-1.78-36.89-3.977l9.472,77.223h54.836
		l9.472-77.223C179.006,749.318,162.489,751.099,142.117,751.099"/>
	<path clip-path="url(#SVGID_2_)" fill="#ABABAB" d="M636.048,694.549h-209.15v42.362c0,4.697,3.807,8.507,8.505,8.507h198.345
		c9.12,0,17.936-3.279,24.838-9.237l12.751-11.006c1.869-1.615,2.946-3.965,2.946-6.438v-46.363l-17.335,14.563
		C651.093,691.855,643.693,694.549,636.048,694.549"/>
	<rect x="550.69" y="563.245" clip-path="url(#SVGID_2_)" fill="#ABABAB" width="22.089" height="110.107"/>
	<rect x="524.481" y="708.894" clip-path="url(#SVGID_2_)" fill="#ABABAB" width="22.089" height="202.489"/>
	<path clip-path="url(#SVGID_2_)" fill="#455B82" d="M637.176,656.432c0,0-157.758-5.892-181.822,4.178
		c-24.064,10.07-28.457,33.939-28.457,33.939h213.595c4.774,0,9.396-1.684,13.052-4.756l20.738-17.42
		C666.526,654.407,637.176,656.432,637.176,656.432"/>
	<path clip-path="url(#SVGID_2_)" fill="#455B82" d="M654.422,629.52H487.605c-7.096,0-12.849-5.753-12.849-12.85V433.359
		c0-33.091,26.827-59.918,59.917-59.918h72.683c33.092,0,59.919,26.827,59.919,59.918V616.67
		C667.274,623.767,661.519,629.52,654.422,629.52"/>
	<polygon clip-path="url(#SVGID_2_)" fill="#ABABAB" points="526.493,887.059 386.913,952.632 411.924,955.368 541.904,907.84 	"/>
	<path clip-path="url(#SVGID_2_)" fill="#ABABAB" d="M408.421,981.115h-18.255c-3.621,0-6.558-2.937-6.558-6.56v-20.833
		c0-3.621,2.937-6.557,6.558-6.557h18.255c3.621,0,6.557,2.936,6.557,6.557v20.833C414.978,978.179,412.042,981.115,408.421,981.115
		"/>
	<polygon clip-path="url(#SVGID_2_)" fill="#ABABAB" points="544.966,887.059 684.547,952.632 659.537,955.368 529.554,907.84 	"/>
	<path clip-path="url(#SVGID_2_)" fill="#ABABAB" d="M663.038,981.115h18.256c3.621,0,6.557-2.937,6.557-6.56v-20.833
		c0-3.621-2.936-6.557-6.557-6.557h-18.256c-3.621,0-6.557,2.936-6.557,6.557v20.833
		C656.481,978.179,659.417,981.115,663.038,981.115"/>
	<path clip-path="url(#SVGID_2_)" fill="#ABABAB" d="M525.696,994.808h18.254c3.623,0,6.559-2.936,6.559-6.559v-22.506
		c0-3.623-2.936-6.56-6.559-6.56h-18.254c-3.621,0-6.558,2.937-6.558,6.56v22.506C519.138,991.872,522.075,994.808,525.696,994.808"
		/>
	<polygon clip-path="url(#SVGID_2_)" fill="#ABABAB" points="522.487,904.026 525.192,971.982 545.01,971.982 548.566,903.716 	"/>
	<path clip-path="url(#SVGID_2_)" fill="#383534" d="M286.538,847.475c0,0-11.209,12.622-8.143,19.566
		c3.063,6.943,17.312,25.317,17.114,31.638c-0.195,6.321-0.949,10.159,7.662,15.118c8.611,4.956,31.252,9.971,37.897,9.647
		c6.644-0.323-13.136-25.901-13.136-25.901L286.538,847.475z"/>
	<path clip-path="url(#SVGID_2_)" fill="#383534" d="M278.003,865.411v32.188l6.623,0.387l2.311-2.977
		c1.188-6.019,1.756-17.451,2.178-18.169C289.736,875.792,278.003,865.411,278.003,865.411"/>
	<path clip-path="url(#SVGID_2_)" fill="#FAB39B" d="M310.138,852.923l17.795,44.62c0,0-9.79,4.455-17.783-3.854
		c-6.255-6.507-17.063-27.746-20.379-36.139c-0.676-1.713-3.233-10.076-3.233-10.076L310.138,852.923z"/>
	<path clip-path="url(#SVGID_2_)" fill="#FAB39B" d="M286.538,847.475l9.434-35.088l26.233,3.316l-12.068,37.22
		C310.137,852.923,295.798,861.154,286.538,847.475"/>
	<path clip-path="url(#SVGID_2_)" fill="#FAB39B" d="M191.576,870.953c0,0,7.361,15.954,4.859,39.883
		c-2.5,23.933,21.491,38.293,21.491,38.293s8.583-3.19,11.047-19.145c2.462-15.954-9.523-9.438-10.887-49.301L191.576,870.953z"/>
	<path clip-path="url(#SVGID_2_)" fill="#383534" d="M196.611,919.132l14.972,8.693c4.874,2.83,11.2,1.598,14.532-2.824l1.815-5.24
		c0,0,18.194,25.08,10.381,30.764c-7.813,5.683-38.417,2.302-43.416,0.507C189.897,949.236,196.611,919.132,196.611,919.132"/>
	<path clip-path="url(#SVGID_2_)" fill="#383534" d="M240.599,454.063c0,0-34.051,17.437-41.813,31.923
		c-15.128,28.226-48.242,244.267-9.046,396.231c0,0,13.869,9.648,34.374,0c0,0,1.884-138.698,5.191-167.644
		c3.305-28.944,18.131-114.372,18.131-114.372l39.811-55.683l24.313-78.396L240.599,454.063z"/>
	<path clip-path="url(#SVGID_2_)" fill="#383534" d="M325.496,471.622c0,0,54.2,185.732,54.2,198.663
		c0,12.932-54.2,151.63-54.2,151.63s-16.121,7.638-38.249-7.64l33.352-166.553L240.6,536.076l29.444-71.159L325.496,471.622z"/>
	<path clip-path="url(#SVGID_2_)" fill="#FFC375" d="M391.456,340.994c-66.984-36.75-113.202-10.495-139.905,11.458
		c-13.708,11.271-19.147,29.754-13.797,46.676l8.974,40.462l-6.129,14.472c44.326,50.657,84.898,17.561,84.898,17.561
		c9.205-4.61,17.148-11.14,24.01-18.835c28.756-3.081,26.439-31.066,24.599-41.302C388.354,376.5,391.456,340.994,391.456,340.994"
		/>
	<path clip-path="url(#SVGID_2_)" fill="#FFFFFF" d="M305.891,335.787c0,0-24.817,5.51-14.853,27.821
		c9.961,22.313,20.521,33.987,20.521,33.987l27.734-16.8l21.497,7.84C360.79,388.635,388.27,310.076,305.891,335.787"/>
	<polygon clip-path="url(#SVGID_2_)" fill="#FFC375" points="391.456,340.994 457.94,447.789 433.971,464.919 379.696,384.577 	"/>
	<path clip-path="url(#SVGID_2_)" fill="#FAB39B" d="M305.774,353.011c0,0-1.578,22.624,33.519,27.782
		c0,0,23.421-14.006,12.724-35.506C341.32,323.789,305.774,353.011,305.774,353.011"/>
	<path clip-path="url(#SVGID_2_)" fill="#DE937A" d="M352.017,345.288c-10.697-21.499-46.126-9.5-46.126-9.5
		s-1.434,13.197,0.116,17.948c6.566,6.59,14.753,11.813,24.845,13.622c10.78,1.931,18.542-2.682,24.06-10.768
		C354.894,353.17,354.063,349.396,352.017,345.288"/>
	<path clip-path="url(#SVGID_2_)" fill="#FAB39B" d="M287.461,311.633c0,0,25.925,58.041,57.596,49.449
		c15.588-4.229,24.416-22.915,24.847-59.411c0.31-26.479-47.833-73.073-74.272-35.008
		C278.427,291.43,287.461,311.633,287.461,311.633"/>
	<path clip-path="url(#SVGID_2_)" fill="#383534" d="M307.936,274.745c-9.688,12.202-27.435,14.243-39.638,4.554
		c-12.205-9.686-14.244-27.433-4.556-39.637c9.689-12.204,27.435-14.243,39.64-4.554
		C315.585,244.796,317.622,262.542,307.936,274.745"/>
	<path clip-path="url(#SVGID_2_)" fill="#383534" d="M350.383,278.128c0,0,15.372,0.812,19.521,23.542
		c0,0,13.74-61.444-51.386-50.041c-65.127,11.405-28.866,70.804-28.866,70.804l12.932,1.307v-13.177
		C302.583,310.563,345.852,314.975,350.383,278.128"/>
	<path clip-path="url(#SVGID_2_)" fill="#FAB39B" d="M287.678,330.776c0.415,7.711,6.4,13.657,13.365,13.282
		c6.963-0.378,12.275-6.933,11.857-14.644c-0.415-7.709-6.398-13.655-13.365-13.279C292.571,316.51,287.263,323.066,287.678,330.776
		"/>
	<path clip-path="url(#SVGID_2_)" fill="#38261F" d="M299.236,335.024c0.572-2.007,4.064-3.21,5.363-3.504l0.857-0.195l-0.396-0.782
		c-1.543-3.051-3.485-4.885-5.771-5.453c-2.894-0.718-5.221,0.897-5.316,0.967l0.789,1.119c0.017-0.013,1.933-1.323,4.214-0.753
		c1.696,0.429,3.193,1.771,4.463,3.999c-1.576,0.492-4.823,1.78-5.521,4.228L299.236,335.024z"/>
	<path clip-path="url(#SVGID_2_)" fill="#FFFFFF" d="M303.73,337.818c-2.167-0.354-4.212,1.117-4.564,3.285
		c-0.354,2.169,1.117,4.213,3.286,4.567c2.167,0.352,4.212-1.12,4.564-3.289C307.37,340.213,305.899,338.172,303.73,337.818"/>
	<path clip-path="url(#SVGID_2_)" fill="#FAB39B" d="M404.287,420.978l39.934,59.016l29.247-8.141l-44.5-70.604
		C420.176,401.249,409.107,409.975,404.287,420.978"/>
	<path clip-path="url(#SVGID_2_)" fill="#383534" d="M309.783,264.042l-1.533-1.094c1.596-2.242,5.175-8.291,3.908-16.036
		c-1.98-12.089-14.207-16.863-14.332-16.909l0.672-1.761c0.545,0.207,13.365,5.215,15.519,18.367
		C315.398,255.044,311.517,261.61,309.783,264.042"/>
	<path clip-path="url(#SVGID_2_)" fill="#383534" d="M316.524,314.405l-0.358-1.851c3.602-0.698,21.969-4.952,29.871-20.27
		c3.589-6.953,3.702-13.689,3.164-18.113l1.869-0.227c0.819,6.72-0.343,13.363-3.358,19.205
		C339.411,309.238,320.276,313.678,316.524,314.405"/>
	<path clip-path="url(#SVGID_2_)" fill="#FAB39B" d="M350.751,555.146l-49.929-70.253l-5.995-41.179
		c-15.51-14.925-38.152-3.22-42.547,2.207l10.727,47.039l62.487,75.076c1.715,0,3.35-0.187,4.934-0.462l4.613-1.166
		C346.623,562.463,350.751,555.146,350.751,555.146"/>
	<path clip-path="url(#SVGID_2_)" fill="#FFFFFF" d="M406.817,427.091l-7.8-9.167c-0.184-0.215-0.239-0.508-0.138-0.775
		c1.232-3.235,9.706-23.651,26.613-21.991c0.225,0.022,0.435,0.154,0.559,0.354l6.337,10.123c0.259,0.416,0.089,0.969-0.356,1.12
		c-3.977,1.35-20.259,7.572-24.003,20.042C407.861,427.36,407.195,427.534,406.817,427.091"/>
	<path clip-path="url(#SVGID_2_)" fill="#FFFFFF" d="M252.075,445.931l-3.613-14.16c-0.085-0.333,0.03-0.644,0.313-0.82
		c3.454-2.133,26.061-15.084,45.097-1.38c0.252,0.18,0.42,0.456,0.445,0.729l1.29,14c0.053,0.573-0.487,0.969-1.112,0.789
		c-5.547-1.601-28.687-7.503-40.801,1.44C253.146,446.932,252.251,446.616,252.075,445.931"/>
	<path clip-path="url(#SVGID_2_)" fill="#38261F" d="M345.424,345.915c3.002-0.494,4.8-1.57,4.958-1.668l-0.75-1.216
		c-0.322,0.194-8.023,4.748-18.946-1.906l-0.745,1.218C336.359,346.257,341.78,346.516,345.424,345.915"/>
	<path clip-path="url(#SVGID_2_)" fill="#38261F" d="M351.761,336.927c0.148-0.04,3.657-1.011,4.513-3.975
		c0.655-2.27-0.449-4.976-3.286-8.039l-1.052,0.971c2.436,2.631,3.459,4.936,2.964,6.667c-0.625,2.185-3.483,2.986-3.51,2.996
		L351.761,336.927z"/>
	<path clip-path="url(#SVGID_2_)" fill="#38261F" d="M333.724,325.338c0.275,1.755,1.329,3.048,2.353,2.887
		c1.021-0.158,1.628-1.712,1.353-3.47s-1.329-3.048-2.353-2.888C334.055,322.027,333.449,323.581,333.724,325.338"/>
	<path clip-path="url(#SVGID_2_)" fill="#38261F" d="M361.025,319.808c0.263,1.711,1.285,2.972,2.281,2.819
		c0.996-0.155,1.592-1.667,1.327-3.375c-0.263-1.71-1.285-2.974-2.282-2.819C361.355,316.585,360.76,318.096,361.025,319.808"/>
	<path clip-path="url(#SVGID_2_)" fill="#383534" d="M336.915,312.801c-0.551-0.097-1.194-0.01-1.711,0.034
		c-3,0.263-5.938,1.62-8.202,3.602c-4.69,4.109,1.975,0.147,5.959-0.862c1.1-0.277,2.209-0.577,3.266-0.995
		c0.46-0.183,1.056-0.387,1.404-0.763c0.362-0.39,0.155-0.68-0.27-0.88C337.224,312.874,337.074,312.832,336.915,312.801"/>
	<path clip-path="url(#SVGID_2_)" fill="#383534" d="M358.653,308.734c0.291-0.229,0.708-0.32,1.034-0.415
		c1.894-0.556,4.169-0.141,6.278,0.992c4.372,2.349-1.126,0.643-3.89,0.803c-0.766,0.044-1.539,0.075-2.332-0.013
		c-0.344-0.038-0.781-0.061-1.132-0.297c-0.362-0.243-0.35-0.551-0.174-0.835C358.495,308.878,358.568,308.8,358.653,308.734"/>
	
		<rect x="277.77" y="414.285" transform="matrix(0.1441 0.9896 -0.9896 0.1441 659.6918 67.7496)" clip-path="url(#SVGID_2_)" fill="#383534" width="25.822" height="1.885"/>
	<path clip-path="url(#SVGID_2_)" fill="#383534" d="M310.841,457.271c-0.445,0-0.689-0.004-0.708-0.004l0.032-1.885
		c0.173,0.004,17.699,0.255,39.503-3.9l0.354,1.851C330.5,457.05,314.358,457.271,310.841,457.271"/>
	
		<rect x="386.875" y="378.902" transform="matrix(0.4111 0.9116 -0.9116 0.4111 579.2432 -126.8727)" clip-path="url(#SVGID_2_)" fill="#383534" width="1.884" height="11.951"/>
	<path clip-path="url(#SVGID_2_)" fill="#7894BA" d="M279.585,284.705c0,0-3.801-24.798,34.021-32.421
		C313.607,252.284,274.451,248.315,279.585,284.705"/>
	<path clip-path="url(#SVGID_2_)" fill="#704C44" d="M516.806,280.078c0,0.905-4.699,43.689,2.284,47.832
		c6.981,4.141,12.368-46.492,12.368-46.492L516.806,280.078z"/>
	<path clip-path="url(#SVGID_2_)" fill="#DE937A" d="M512.596,336.094c1.143,6.337,6.71,10.636,12.431,9.604
		c5.725-1.033,9.439-7.005,8.296-13.344c-1.144-6.334-6.71-10.635-12.434-9.601C515.165,323.782,511.451,329.757,512.596,336.094"/>
	
		<rect x="518.145" y="327.243" transform="matrix(0.1866 0.9824 -0.9824 0.1866 746.542 -241.4438)" clip-path="url(#SVGID_2_)" fill="#FFFFFF" width="1.886" height="5.8"/>
	<path clip-path="url(#SVGID_2_)" d="M528.482,961.697c0,0-7.475,15.44-21.821,33.432c-10.786,13.521-22.751,23.856-17.405,30.879
		c4.038,5.302,26.792,4.52,55.499-14.793c13.771-9.265,25.173-17.132,33.119-20.537c1.983-0.849,3.372-2.603,3.534-4.695
		c0.416-5.399,0.78-15.971-1.717-24.269C576.187,950.061,528.482,961.697,528.482,961.697"/>
	<path clip-path="url(#SVGID_2_)" d="M428.906,941.652c0,0-57.064,35.622-70.221,43.771c-13.157,8.147,2.484,7.044,13.956,6.839
		c11.472-0.207,67.172-16.161,77.05-13.267c9.875,2.896,23.873-1.686,23.873-1.686s9.619-29.127-0.121-47.181
		C463.706,912.076,428.906,941.652,428.906,941.652"/>
	<path clip-path="url(#SVGID_2_)" fill="#383534" d="M652.206,623.65c0,0,7.64,44.802-2.948,55.99
		c-6.594,6.971-68.605,55.202-68.605,55.202l3.923,233.361l-62.191,6.915c0,0-23.601-239.061-21.724-261.096
		c1.811-21.258,72.448-74.491,72.448-74.491L652.206,623.65z"/>
	<path clip-path="url(#SVGID_2_)" fill="#383534" d="M495.32,617.822c-62.489,50.205-62.88,49.563-78.319,65.128
		c-10.77,10.853,5.385,257.796,5.385,257.796s40.768,5.428,59.229-10.854l-1.167-191.455l92.662-92.573L495.32,617.822z"/>
	<polygon clip-path="url(#SVGID_2_)" fill="#383534" points="647.813,577.234 652.206,623.652 550.142,673.39 489.553,627.905 
		489.398,582.49 	"/>
	<path clip-path="url(#SVGID_2_)" fill="#FFFFFF" d="M559.487,629.309c0,0,13.612,7.342,17.844,15.03l55.915-26.077L559.487,629.309
		z"/>
	<path clip-path="url(#SVGID_2_)" fill="#FFFFFF" d="M517.49,626.079c0,0-15.378,5.277-16.886,11.608l-16.583-19.428L517.49,626.079
		z"/>
	<path clip-path="url(#SVGID_2_)" fill="#7894BA" d="M545.18,387.259c0,0-58.211,18.944-70.422,37.974
		c-12.214,19.029,6.177,64.897,6.177,64.897l-0.544,129.467l26.053,6.758c19.631,5.091,40.079,6.228,60.156,3.337l85.607-14.023
		l-4.95-57.882c0,0,29.583-120.575,22.801-127.712c-6.784-7.135-47.604-39.425-90.754-45.499L545.18,387.259z"/>
	<polygon clip-path="url(#SVGID_2_)" fill="#FFFFFF" points="536.939,409.459 553.028,451.932 579.978,411.201 556.138,402.866 	"/>
	<path clip-path="url(#SVGID_2_)" fill="#383534" d="M545.61,410.417c0,0,1.316,14.764,4.143,15.811
		c3.275,1.213,9.488,2.605,13.012-0.203c3.523-2.808,5.528-15.108,5.528-15.108l-11.49-5.495L545.61,410.417z"/>
	<polygon clip-path="url(#SVGID_2_)" fill="#383534" points="551.888,423.483 545.585,432.283 553.028,451.93 565.694,432.789 
		560.02,423.992 	"/>
	<path clip-path="url(#SVGID_2_)" fill="#7894BA" d="M670.057,430.074c0,0,15.442,83.193,24.069,114.758
		c1.441,5.281-1.847,10.679-7.205,11.813l-96.464,20.438l-10.101-44.323l50.503-12.931L670.057,430.074z"/>
	
		<rect x="618.253" y="503.152" transform="matrix(0.2411 0.9705 -0.9705 0.2411 972.5703 -235.5699)" clip-path="url(#SVGID_2_)" fill="#383534" width="37.319" height="1.886"/>
	
		<rect x="634.424" y="503.495" transform="matrix(0.3725 0.928 -0.928 0.3725 886.3684 -259.9019)" clip-path="url(#SVGID_2_)" fill="#383534" width="1.883" height="43.936"/>
	<path clip-path="url(#SVGID_2_)" fill="#B3B3B3" d="M618.288,568.036H438.305l-7.343-104.949c-0.255-3.649,2.43-6.756,5.834-6.756
		h183.002c3.403,0,6.089,3.107,5.834,6.756L618.288,568.036z"/>
	<path clip-path="url(#SVGID_2_)" fill="#D4D4D4" d="M550.662,521.591c0,5.197-10.015,9.407-22.366,9.407
		c-12.351,0-22.364-4.21-22.364-9.407c0-5.196,10.013-9.406,22.364-9.406C540.647,512.185,550.662,516.395,550.662,521.591"/>
	<path clip-path="url(#SVGID_2_)" fill="#D4D4D4" d="M436.795,462.26h183.002c2.656,0,4.854,1.904,5.579,4.471l0.255-3.644
		c0.255-3.649-2.431-6.758-5.834-6.758H436.795c-3.404,0-6.091,3.109-5.834,6.758l0.254,3.644
		C431.94,464.164,434.139,462.26,436.795,462.26"/>
	<path clip-path="url(#SVGID_2_)" fill="#FFFFFF" d="M528.296,392.18c0,0,0.655-13.171,32.2-13.185
		c31.543-0.01,31.449,8.091,31.449,8.091s3.11,18.255-11.589,28.707l-23.554-10.372l-20.714,9.243
		C536.089,414.665,527.645,403.792,528.296,392.18"/>
	<path clip-path="url(#SVGID_2_)" fill="#FAB39B" d="M578.085,358.908v34.37c0,1.096-0.488,2.146-1.354,2.822
		c-3.996,3.123-16.466,10.764-32.297-0.065c-0.97-0.661-1.526-1.792-1.526-2.965v-23.255L578.085,358.908z"/>
	<path clip-path="url(#SVGID_2_)" fill="#DE937A" d="M542.906,381.1c7.861,0.516,26.266-0.21,35.179-16.677v-5.515l-35.179,10.906
		V381.1z"/>
	<path clip-path="url(#SVGID_2_)" fill="#FAB39B" d="M521.137,294.046c0,0.006-9.864,81.035,23.587,82.419
		c23.801,0.983,33.875-4.354,39.101-24.405c3.679-14.126,6.267-37.338,2.812-52.072c-1.414-6.036,6.206-14.071,1.78-18.41
		c-10.126-9.922-27.167-15.08-40.891-13.322C533,270.118,523.168,279.433,521.137,294.046"/>
	<path clip-path="url(#SVGID_2_)" fill="#704C44" d="M582.813,325.897l-2.457-27.115c0,0-44.841,9.36-60.752-3.797
		c-32.324-26.725,0.905-59.203,51.411-27.068c11.667,7.422,21.675,10.337,25.633,12.697c2.859,1.7,4.774,4.63,5.105,7.94
		c0.681,6.807,0.383,40.562-5.18,52.569L582.813,325.897z"/>
	<path clip-path="url(#SVGID_2_)" fill="#FAB39B" d="M603.681,335.924c-1.294,7.174-7.599,12.044-14.078,10.873
		c-6.48-1.167-10.686-7.932-9.392-15.107c1.294-7.173,7.597-12.044,14.078-10.873C600.77,321.984,604.975,328.75,603.681,335.924"/>
	<path clip-path="url(#SVGID_2_)" fill="#38261F" d="M593.376,337.666c-0.904-1.751-4.361-2.211-5.618-2.241l-0.828-0.019
		l0.217-0.799c0.861-3.113,2.314-5.17,4.325-6.125c2.544-1.206,4.998-0.144,5.102-0.097l-0.522,1.183
		c-0.019-0.008-2.037-0.865-4.043,0.091c-1.486,0.712-2.623,2.234-3.383,4.532c1.553,0.162,4.797,0.747,5.9,2.882L593.376,337.666z"
		/>
	<path clip-path="url(#SVGID_2_)" fill="#704C44" d="M554.297,311.32c1.181-1.807,5.818-0.672,8.392,0.421
		c3.237,1.378,6.062,3.91,5.683,4.67c-0.257,0.518-1.762-0.243-5.211-0.474c-4.681-0.317-6.277,0.79-7.793-0.491
		C554.158,314.426,553.598,312.391,554.297,311.32"/>
	<path clip-path="url(#SVGID_2_)" fill="#704C44" d="M533.66,310.606c-1.331-1.671-5.798-0.121-8.233,1.2
		c-3.068,1.663-5.615,4.42-5.168,5.136c0.3,0.484,1.714-0.407,5.094-0.955c4.588-0.749,6.263,0.194,7.637-1.211
		C534.087,313.657,534.451,311.596,533.66,310.606"/>
	<path clip-path="url(#SVGID_2_)" d="M499.615,718.419c-0.506-6.983-2.818-42.007,1.543-45.745
		c3.749-3.214,26.96-20.507,32.744-24.809l-19.445-9.128l0.799-1.708l22.3,10.467l-1.265,0.94
		c-0.299,0.222-29.759,22.113-33.908,25.672c-2.812,2.407-2.038,28.373-0.888,44.176L499.615,718.419z"/>
	
		<rect x="579.806" y="712.205" transform="matrix(1 0.0078 -0.0078 1 5.6436 -4.4939)" clip-path="url(#SVGID_2_)" width="1.884" height="22.638"/>
	
		<rect x="470.165" y="733.162" transform="matrix(0.5161 0.8565 -0.8565 0.5161 865.2915 -43.4583)" clip-path="url(#SVGID_2_)" width="1.885" height="21.818"/>
	<path clip-path="url(#SVGID_2_)" fill="#383534" d="M589.198,947.228l3.052,25.418c0.074,0.598-0.185,1.15-0.702,1.451
		c-6.26,3.644-47.052,25.713-76.138,0.399c-0.386-0.335-0.609-0.834-0.593-1.325l0.822-25.027c0.032-1.027,1.025-1.706,2.035-1.356
		c8.989,3.107,46.646,14.693,68.931-0.7C587.61,945.392,589.05,945.996,589.198,947.228"/>
	<path clip-path="url(#SVGID_2_)" fill="#383534" d="M483.902,912.751l2.895,24.055c0.067,0.565-0.178,1.087-0.669,1.367
		c-5.942,3.397-44.664,23.953-72.266-0.197c-0.367-0.318-0.579-0.793-0.561-1.257l0.781-23.655c0.034-0.971,0.975-1.606,1.936-1.267
		c8.528,3.004,44.27,14.241,65.42-0.143C482.397,911.004,483.763,911.588,483.902,912.751"/>
	<path clip-path="url(#SVGID_2_)" d="M552.274,955.3c-17.519,0-28.958-5.718-29.129-5.803l0.861-1.679
		c0.25,0.13,25.227,12.568,57.925-0.04l0.677,1.758C571.402,953.857,561.071,955.3,552.274,955.3"/>
	<path clip-path="url(#SVGID_2_)" d="M452.948,920.54c-16.568,0-29.294-5.342-29.479-5.421l0.741-1.732
		c0.263,0.111,26.335,11.028,52.138,1.12l0.672,1.756C468.751,919.442,460.455,920.54,452.948,920.54"/>
	<path clip-path="url(#SVGID_2_)" fill="#FFFFFF" d="M567.222,339.246h-15.436c-2.249,0-4.079-1.832-4.079-4.08v-9.385
		c0-2.247,1.83-4.08,4.079-4.08h15.436c2.249,0,4.079,1.833,4.079,4.08v9.385C571.301,337.414,569.471,339.246,567.222,339.246
		 M551.786,323.587c-1.209,0-2.194,0.986-2.194,2.194v9.385c0,1.209,0.985,2.194,2.194,2.194h15.436c1.21,0,2.195-0.985,2.195-2.194
		v-9.385c0-1.208-0.985-2.194-2.195-2.194H551.786z"/>
	<path clip-path="url(#SVGID_2_)" fill="#FFFFFF" d="M530.784,339.246h-11.666c-2.249,0-4.078-1.832-4.078-4.08v-9.385
		c0-2.247,1.829-4.08,4.078-4.08h11.666c2.251,0,4.081,1.833,4.081,4.08v9.385C534.865,337.414,533.035,339.246,530.784,339.246
		 M519.118,323.587c-1.208,0-2.194,0.986-2.194,2.194v9.385c0,1.209,0.986,2.194,2.194,2.194h11.666
		c1.212,0,2.195-0.985,2.195-2.194v-9.385c0-1.208-0.983-2.194-2.195-2.194H519.118z"/>
	<path clip-path="url(#SVGID_2_)" fill="#38261F" d="M545.021,355.667c-3.454-0.185-5.619-1.179-5.81-1.271l0.695-1.469
		c0.39,0.182,9.656,4.372,21.167-4.505l0.992,1.287C555.301,354.925,549.21,355.892,545.021,355.667"/>
	<path clip-path="url(#SVGID_2_)" fill="#38261F" d="M539.813,343.895c-0.172-0.028-4.255-0.687-5.592-3.929
		c-1.023-2.484-0.11-5.677,2.714-9.493l1.307,0.969c-2.425,3.273-3.294,6.004-2.52,7.899c0.979,2.391,4.306,2.943,4.339,2.947
		L539.813,343.895z"/>
	<path clip-path="url(#SVGID_2_)" fill="#38261F" d="M560.249,331.025c-0.391,1.982-1.646,3.402-2.799,3.176
		c-1.155-0.229-1.774-2.021-1.383-4.003s1.646-3.404,2.799-3.176C560.021,327.252,560.641,329.043,560.249,331.025"/>
	<path clip-path="url(#SVGID_2_)" fill="#38261F" d="M529.052,330.392c-0.356,1.806-1.501,3.101-2.553,2.894
		c-1.052-0.208-1.615-1.84-1.259-3.647c0.356-1.806,1.499-3.101,2.552-2.894C528.844,326.953,529.408,328.585,529.052,330.392"/>
	<path clip-path="url(#SVGID_2_)" fill="#FFFFFF" d="M548.101,330.369c-8.134-5.84-13.581-0.35-13.811-0.115l-1.364-1.299
		c0.067-0.069,6.775-6.935,16.274-0.117L548.101,330.369z"/>
	
		<rect x="575.864" y="320.533" transform="matrix(0.3288 0.9444 -0.9444 0.3288 696.308 -325.012)" clip-path="url(#SVGID_2_)" fill="#FFFFFF" width="1.883" height="13.651"/>
	<path clip-path="url(#SVGID_2_)" fill="#704C44" d="M580.338,277.007c-5.767-7.685-18.447-21.109-38.605-24.664
		c-6.995-1.23-14.183-1.13-21.364,0.298l-0.366-1.848c7.405-1.474,14.828-1.578,22.055-0.305
		c20.798,3.667,33.854,17.48,39.787,25.386L580.338,277.007z"/>
	<path clip-path="url(#SVGID_2_)" fill="#704C44" d="M544.476,359.134c0,0-13.019,12.765-21.516-7.634c0,0-2.36,20.419,8.497,31.696
		c7.218,7.494,42.286,10.157,51.793-4.2c9.51-14.354,5.397-40.694,5.397-40.694l-8.923,2.089c-2.07,0.907-3.569,2.743-4.07,4.948
		c-1.745,7.669-7.701,24.641-25.016,13.343L544.476,359.134z"/>
	<path clip-path="url(#SVGID_2_)" fill="#704C44" d="M533.089,384.491c-4.422-3.032-8.815-6.635-10.999-12.449
		c-2.167-5.766-1.853-13.048,0.775-18.124l1.675,0.864c-2.363,4.561-2.646,11.383-0.686,16.598
		c1.999,5.324,6.131,8.699,10.299,11.555L533.089,384.491z"/>
	<path clip-path="url(#SVGID_2_)" fill="#704C44" d="M737.475,178.807c0,0,33.114-16.417,54.819,16.65
		c21.707,33.068,47.052,108.169,47.052,108.169s-58.979,3.327-118.001-13.186c0,0-18.616-57.889-15.688-87.868
		C708.585,172.598,737.475,178.807,737.475,178.807"/>
	<path clip-path="url(#SVGID_2_)" fill="#FAB39B" d="M785.108,575.338c0,0,4.109,140.005,25.351,149.05
		c0,0,5.143,80.517-3.952,141.604c0,0,10.486,2.004,25.997-7.839c0,0,38.122-98.488,10.987-155.474c0,0,26.293-104.93,7.267-138.396
		C831.731,530.813,785.108,575.338,785.108,575.338"/>
	<path clip-path="url(#SVGID_2_)" fill="#383534" d="M828.531,857.919c0,0,16.724,9.563,12.629,16.809
		c-4.096,7.246-21.629,25.755-22.102,32.674c-0.468,6.917-0.06,11.19-9.993,15.668c-9.933,4.48-35.183,7.503-42.399,6.431
		c-7.216-1.07,19.862-26.931,19.862-26.931L828.531,857.919z"/>
	<path clip-path="url(#SVGID_2_)" fill="#383534" d="M837.659,874.728l-3.48,35.125l-7.267-0.294l-2.203-3.499
		c-0.644-6.695-0.027-19.235-0.41-20.062C823.733,884.787,837.659,874.728,837.659,874.728"/>
	<path clip-path="url(#SVGID_2_)" fill="#FAB39B" d="M808.927,861.561l-22.398,41.011c0,0,11.956,4.656,21.577-3.546
		c7.529-6.423,17.14-27.084,21.665-35.883c0.924-1.797,4.617-10.647,4.617-10.647L808.927,861.561z"/>
	<path clip-path="url(#SVGID_2_)" fill="#383534" d="M691.644,845.944c0,0,17.635,7.89,14.267,15.525
		c-3.372,7.635-19.038,27.839-18.823,34.791c0.216,6.95,1.044,11.17-8.424,16.623c-9.47,5.451-34.367,10.964-41.674,10.608
		c-7.306-0.356,14.967-28.479,14.967-28.479L691.644,845.944z"/>
	<path clip-path="url(#SVGID_2_)" fill="#383534" d="M705.908,861.47v35.396l-7.279,0.423l-2.544-3.271
		c-1.307-6.618-1.93-19.191-2.394-19.979C693.008,872.885,705.908,861.47,705.908,861.47"/>
	<path clip-path="url(#SVGID_2_)" fill="#FAB39B" d="M702.956,681.4c8.745-28.461,19.899-150.916,51.305-221.233l83.398,9.431
		c0,0-29.42,115.81-91.929,224.73c0,0,2.07,32.084-9.322,50.228c-33.572,53.479-30.5,74.413-42.92,104.464
		c-5.126,1.035-8.653,10.391-22.624,6.505C670.686,809.174,683.466,744.826,702.956,681.4"/>
	<path clip-path="url(#SVGID_2_)" fill="#FAB39B" d="M672.31,848.183l-20.354,46.828c0,0,10.241,4.898,19.03-4.238
		c6.882-7.152,18.77-30.51,22.413-39.737c0.743-1.882,3.555-11.08,3.555-11.08L672.31,848.183z"/>
	<path clip-path="url(#SVGID_2_)" fill="#383534" d="M740.079,421.101v37.384c0,0-42.707,119.226-40.293,192.995
		c0,0,56.946,50.388,180.204-9.908c0,0-17.916-176.127-24.685-189.217c-15.96-30.887-42.261-39.788-42.261-39.788
		S771.436,445.105,740.079,421.101"/>
	<path clip-path="url(#SVGID_2_)" fill="#7894BA" d="M841.23,300.082L841.23,300.082c4.271,1.614,8.629,3.854,11.014,7.747
		c15.716,25.651,53.373,87.345,53.373,87.345l-24.76,23.166l-54.395-69.335C826.463,349.005,801.464,319.884,841.23,300.082"/>
	<path clip-path="url(#SVGID_2_)" fill="#7894BA" d="M714.751,292.316c0,0-11.194,6.642-12.1,31.021
		c-0.902,24.38-8.49,75.612-8.49,75.612l-54.516,36.214c0,0,16.093,6.458,20.271,21.434l63.153-30.916
		c2.279-1.118,3.834-3.312,4.128-5.83l10.167-86.677L714.751,292.316z"/>
	<path clip-path="url(#SVGID_2_)" fill="#FFFFFF" d="M642.072,431.84l8.813-7.06c0.207-0.168,0.48-0.203,0.721-0.091
		c2.919,1.365,21.313,10.657,18.979,26.933c-0.031,0.216-0.164,0.411-0.353,0.522l-9.625,5.59c-0.396,0.232-0.896,0.038-1.015-0.403
		c-1.054-3.922-6.004-20.011-17.31-24.301C641.772,432.834,641.646,432.182,642.072,431.84"/>
	<path clip-path="url(#SVGID_2_)" fill="#383534" d="M713.914,412.996c-6.679-12.979-19.455-13.104-19.74-13.104h-0.007
		l-0.014-1.884c0.056-0.046,14.177,0.023,21.434,14.128L713.914,412.996z"/>
	<path clip-path="url(#SVGID_2_)" fill="#7894BA" d="M714.751,292.316c0,0,71.158-30.986,136.286,13.379l-21.709,31.098
		c0,0-1.207,54.179-16.886,78.949c0,0-32.564,32.98-72.363,5.359c0,0-22.917-48.699-20.505-69.517L714.751,292.316z"/>
	<path clip-path="url(#SVGID_2_)" fill="#FAB39B" d="M663.395,457.915c0.479-0.947,6.362-8.276,6.215-9.392
		c-1.656-12.635-29.587-22.417-36.144-11.562c-3.52,5.823-4.327,12.317-4.396,14.227c-0.344,9.595,6.041,6.667,6.041,6.667
		s-0.481,5.033,3.299,6.309c4.708,1.592,3.908-4.497,3.908-4.497s-2.472,7.738,0.418,11.058c2.468,2.838,5.521-2.281,6.105-2.86
		c0,0,0.162,5.284,5.893,2.284C660.38,467.192,661.746,461.167,663.395,457.915"/>
	<path clip-path="url(#SVGID_2_)" fill="#383534" d="M636.039,458.021l-1.854-0.333l2.015-11.208c0.18-1.003,0.529-1.94,1.035-2.788
		l3.354-5.616l1.617,0.966l-3.353,5.615c-0.389,0.652-0.66,1.38-0.799,2.155L636.039,458.021z"/>
	<path clip-path="url(#SVGID_2_)" fill="#383534" d="M642.389,464.169l-1.801-0.562l3.81-12.207
		c0.283-0.902,0.703-1.726,1.248-2.453l4.766-6.351l1.506,1.129l-4.765,6.354c-0.418,0.556-0.738,1.189-0.958,1.885L642.389,464.169
		z"/>
	<path clip-path="url(#SVGID_2_)" fill="#383534" d="M649.729,468.189l-1.772-0.642l3.859-10.624c0.285-0.795,0.691-1.533,1.2-2.188
		l4.952-6.377l1.486,1.155l-4.952,6.377c-0.387,0.5-0.695,1.062-0.917,1.673L649.729,468.189z"/>
	<path clip-path="url(#SVGID_2_)" fill="#FAB39B" d="M667.428,443.808c0,0,4.457,10.297,8.759,10.753
		c10.549,1.115,7.466,5.011,2.876,6.306c-2.932,0.827-3.198,0.127-7.636-0.271c-4.44-0.4-10.289,1.643-10.289,1.643L667.428,443.808
		z"/>
	<path clip-path="url(#SVGID_2_)" fill="#383534" d="M729.99,399.62l-5.939-10.066c-5.615-2.365-9.336-6.203-11.06-11.414
		c-4.344-13.112,5.231-30.603,7.02-33.695l-8.361-16.729l1.683-0.841l8.826,17.651l-0.268,0.445
		c-0.117,0.19-11.519,19.281-7.111,32.579c1.576,4.753,5.033,8.245,10.277,10.382l0.294,0.119l6.265,10.61L729.99,399.62z"/>
	<path clip-path="url(#SVGID_2_)" fill="#383534" d="M827.709,352.119c-2.772-3.534-10.44-12.823-10.518-12.917l1.453-1.201
		c0.079,0.094,7.758,9.402,10.547,12.956L827.709,352.119z"/>
	<path clip-path="url(#SVGID_2_)" fill="#FAB39B" d="M752.329,267.771l2.204,15.826c0,0-9.894,9.05-4.465,12.216
		c5.426,3.166,18.063,6.358,37.061-13.267l-8.076-46.239L752.329,267.771z"/>
	<path clip-path="url(#SVGID_2_)" fill="#FAB39B" d="M753.871,177.941c-45.524-0.81-38.133,50.358-38.048,51.647
		c1.563,23.882,19.55,49.537,30.208,47.709c32.297-5.542,30.916-38.285,30.916-38.285c0.324-2.031,9.32-23.45,9.343-25.562
		C786.555,188.679,780.475,178.417,753.871,177.941"/>
	<path clip-path="url(#SVGID_2_)" fill="#FAB39B" d="M792.275,238.124c-0.377,6.979-5.793,12.358-12.095,12.019
		c-6.302-0.339-11.107-6.273-10.73-13.25c0.377-6.977,5.791-12.357,12.093-12.019C787.847,225.216,792.65,231.147,792.275,238.124"
		/>
	<path clip-path="url(#SVGID_2_)" fill="#38261F" d="M782.684,241.009c-1.068-1.558-4.412-1.584-5.61-1.463l-0.793,0.081
		l0.118-0.787c0.445-3.061,1.581-5.195,3.381-6.339c2.275-1.449,4.734-0.731,4.838-0.701l-0.354,1.186
		c-0.021-0.004-2.042-0.579-3.832,0.568c-1.332,0.855-2.23,2.438-2.68,4.715c1.495-0.034,4.65,0.137,5.954,2.037L782.684,241.009z"
		/>
	<path clip-path="url(#SVGID_2_)" fill="#FFFFFF" d="M777.748,244.497c1.963-0.32,3.813,1.011,4.133,2.974
		c0.318,1.961-1.013,3.813-2.976,4.13c-1.961,0.32-3.812-1.011-4.13-2.972C774.456,246.666,775.787,244.816,777.748,244.497"/>
	<path clip-path="url(#SVGID_2_)" fill="#704C44" d="M728.23,194.788c0,0,6.03,30.072,44.802,24.162l1.695,9.224l8.84-2.976
		c0,0,11.141-23.681,0.183-37.939c-6.939-9.032-22.018-10.168-24.585-10.405c-2.911-0.27-5.135-0.174-6.433-0.112
		c-4.708,0.221-16.121,0.684-26.034,8.215c-15.391,11.689-16.801,32.114-17.082,35.878
		C709.616,220.834,721.45,226.391,728.23,194.788"/>
	<path clip-path="url(#SVGID_2_)" fill="#38261F" d="M744.941,254.664c-3.004,0.49-5.049,0.042-5.231,0l0.323-1.393
		c0.368,0.082,9.12,1.944,17.352-7.846l1.093,0.92C753.642,252.097,748.588,254.071,744.941,254.664"/>
	<path clip-path="url(#SVGID_2_)" fill="#38261F" d="M736.07,248.165c-0.153,0.009-3.786,0.208-5.544-2.328
		c-1.346-1.944-1.159-4.859,0.551-8.668l1.304,0.585c-1.468,3.271-1.703,5.781-0.685,7.266c1.294,1.872,4.256,1.721,4.285,1.719
		L736.07,248.165z"/>
	<path clip-path="url(#SVGID_2_)" fill="#38261F" d="M749.499,231.708c0.035,1.776-0.776,3.235-1.81,3.256
		c-1.037,0.019-1.907-1.403-1.942-3.182c-0.035-1.777,0.776-3.236,1.812-3.254C748.594,228.508,749.464,229.932,749.499,231.708"/>
	<path clip-path="url(#SVGID_2_)" fill="#38261F" d="M724.38,235.144c0.033,1.62-0.706,2.949-1.65,2.966
		c-0.944,0.02-1.737-1.278-1.768-2.897c-0.033-1.62,0.705-2.947,1.649-2.969C723.556,232.227,724.347,233.524,724.38,235.144"/>
	<path clip-path="url(#SVGID_2_)" fill="#704C44" d="M742.451,220.566c0.491-0.269,1.129-0.392,1.632-0.513
		c2.927-0.708,6.146-0.358,8.923,0.799c5.753,2.4-1.826,0.768-5.923,1.084c-1.133,0.085-2.277,0.155-3.414,0.097
		c-0.493-0.025-1.124-0.032-1.574-0.275c-0.466-0.254-0.362-0.598-0.024-0.92C742.18,220.733,742.311,220.645,742.451,220.566"/>
	<path clip-path="url(#SVGID_2_)" fill="#704C44" d="M722.011,224.435c-0.35-0.115-0.771-0.079-1.111-0.071
		c-1.969,0.054-3.981,1.042-5.603,2.597c-3.357,3.229,1.271,0.238,3.936-0.394c0.737-0.174,1.479-0.365,2.199-0.66
		c0.311-0.129,0.714-0.269,0.969-0.57c0.265-0.31,0.151-0.569-0.107-0.761C722.208,224.513,722.112,224.469,722.011,224.435"/>
	<path clip-path="url(#SVGID_2_)" fill="#DE937A" d="M773.027,254.371c-4.272,13.645-14.995,18.728-19.678,20.723l0.983,7.058
		C771.086,275.51,773.027,254.371,773.027,254.371"/>
	<path clip-path="url(#SVGID_2_)" fill="#383534" d="M772.684,387.935c-4.256,0-7.14-0.761-7.229-0.787l0.504-1.814
		c1.024,0.285,25.266,6.602,36.261-21.085l1.752,0.696C796.128,384.683,781.482,387.935,772.684,387.935"/>
	<path clip-path="url(#SVGID_2_)" fill="#7894BA" d="M880.814,376.787c0,0-37.752,14.486-58.019,17.579l16.028,22.334
		c0,0,0.843,1.695,16.481,4.768c27.616,5.424,49.576,3.375,54.025-11.279C914.705,392.477,880.814,376.787,880.814,376.787"/>
	<path clip-path="url(#SVGID_2_)" fill="#FAB39B" d="M825.463,426.099c1.06-0.182,12.062-6.125,12.707-7.889
		c0.841-2.306,6.817-24.282-19.276-22.98c-7.898,0.395-21.714,8.403-23.269,9.388c-7.812,4.931-1.815,7.477-1.815,7.477
		s-8.246,3.288-6.813,6.566c1.789,4.083,11.536-0.283,11.536-0.283s-7.399,3.172-4.971,6.475c2.008,2.733,10.716-0.59,11.55-0.501
		c0,0-2.946,4.205,3.673,4.853C813.989,429.714,821.825,426.72,825.463,426.099"/>
	
		<rect x="802.832" y="397.109" transform="matrix(0.3879 0.9217 -0.9217 0.3879 867.9927 -491.1534)" clip-path="url(#SVGID_2_)" fill="#383534" width="1.883" height="21.609"/>
	
		<rect x="806.958" y="404.151" transform="matrix(0.3969 0.9178 -0.9178 0.3969 867.517 -491.65)" clip-path="url(#SVGID_2_)" fill="#383534" width="1.887" height="20.401"/>
	
		<rect x="811.688" y="413.416" transform="matrix(0.3594 0.9332 -0.9332 0.3594 913.8833 -488.3406)" clip-path="url(#SVGID_2_)" fill="#383534" width="1.886" height="16.106"/>
	<path clip-path="url(#SVGID_2_)" fill="#FAB39B" d="M828.568,396.36c0,0-7.815-2.994-12.248-9.548
		c-6.122-9.055-9.196-9.631-9.48-6.025c-0.24,3.051,0.557,6.102,2.166,7.978c3.867,4.518-1.092,10.181-1.092,10.181
		S826.729,399.167,828.568,396.36"/>
	<path clip-path="url(#SVGID_2_)" fill="#383534" d="M889.65,388.738c-21.761-11.212-33.645-2.314-33.765-2.226l-1.161-1.484
		c0.516-0.402,12.871-9.767,35.789,2.033L889.65,388.738z"/>
	<path clip-path="url(#SVGID_2_)" fill="#FFFFFF" d="M787.129,282.546l-0.68,0.142c-11.134,2.356-21.411,7.715-29.717,15.494
		c0,0,11.051,0,17.115,11.476l29.247-24.592c0,0-1.732-12.819-17.763-12.801L787.129,282.546z"/>
	<path clip-path="url(#SVGID_2_)" fill="#FFFFFF" d="M756.732,298.181l-2.199-14.583l-1-6.73c0,0-17.391,9.686-15.132,26.76
		C738.401,303.627,748.784,294.505,756.732,298.181"/>
	<path clip-path="url(#SVGID_2_)" fill="#FFFFFF" d="M823.191,392.7l10.252-4.732c0.242-0.113,0.516-0.083,0.721,0.083
		c2.507,2.029,18.126,15.471,11.943,30.708c-0.08,0.202-0.257,0.358-0.466,0.419l-10.688,3.113
		c-0.438,0.129-0.878-0.178-0.887-0.634c-0.078-4.06-1.014-20.87-10.956-27.753C822.661,393.592,822.694,392.929,823.191,392.7"/>
	<path clip-path="url(#SVGID_2_)" fill="#704C44" d="M703.026,205.113c-2.29-9.322,1.246-18.942,9.006-24.51
		c9.703-6.955,24.012-6.44,34.023,1.224l-1.145,1.497c-9.37-7.173-22.738-7.675-31.779-1.189
		c-7.133,5.116-10.381,13.96-8.275,22.531L703.026,205.113z"/>
	<path clip-path="url(#SVGID_2_)" fill="#704C44" d="M836.135,283.863c-4.76-11.401-9.925-22.847-15.355-34.021
		c-22.813-46.937-32.938-53.526-36.752-56.006c-10.828-7.039-24.225-10.335-39.859-9.799l-0.063-1.885
		c16.028-0.538,29.796,2.852,40.946,10.104c3.934,2.559,14.381,9.354,37.421,56.761c5.447,11.207,10.627,22.687,15.399,34.122
		L836.135,283.863z"/>
	<polygon clip-path="url(#SVGID_2_)" fill="#96665B" points="310.592,590.649 340.4,590.649 318.542,992.674 310.592,992.674 	"/>
	<polygon clip-path="url(#SVGID_2_)" fill="#96665B" points="888.153,590.649 858.35,590.649 880.206,992.674 888.153,992.674 	"/>
	<polygon clip-path="url(#SVGID_2_)" fill="#96665B" points="928.357,598.188 893.953,598.188 919.182,1030.363 928.357,1030.363 	
		"/>
	<polygon clip-path="url(#SVGID_2_)" fill="#96665B" points="270.044,598.188 304.45,598.188 279.22,1030.363 270.044,1030.363 	"/>
	<rect x="270.043" y="568.036" clip-path="url(#SVGID_2_)" fill="#96665B" width="658.314" height="40.203"/>
	<path clip-path="url(#SVGID_2_)" fill="#FAB39B" d="M356.278,569.394c-0.172-1.244,1.641-12.664,0.75-13.649
		c-10.106-11.163-43.828-1.89-42.902,13.066c0.496,8.026,4.079,14.881,5.296,16.783c6.116,9.557,10.354,2.416,10.354,2.416
		s2.915,5.218,7.448,3.917c5.645-1.618,0.775-6.999,0.775-6.999s2.799,9.182,7.842,10.467c4.306,1.098,3.83-5.931,4.011-6.886
		c0,0,4.924,5.534,7.261-1.743C358.865,581.303,356.863,573.661,356.278,569.394"/>
	<path clip-path="url(#SVGID_2_)" fill="#383534" d="M328.918,588.399l-5.578-12.246c-0.49-1.07-0.776-2.196-0.855-3.346
		l0.289-6.771l1.88,0.083l-0.286,6.664c0.059,0.808,0.299,1.736,0.688,2.59l5.577,12.248L328.918,588.399z"/>
	<path clip-path="url(#SVGID_2_)" fill="#383534" d="M339.132,589.869l-4.507-14.428c-0.326-1.039-0.471-2.102-0.431-3.161
		l0.36-9.379l1.883,0.07l-0.36,9.381c-0.032,0.843,0.084,1.693,0.346,2.525l4.507,14.429L339.132,589.869z"/>
	<path clip-path="url(#SVGID_2_)" fill="#383534" d="M348.94,588.749l-3.395-12.919c-0.25-0.952-0.35-1.921-0.299-2.879l0.526-9.53
		l1.883,0.104l-0.526,9.53c-0.042,0.762,0.04,1.533,0.239,2.293l3.395,12.919L348.94,588.749z"/>
	<path clip-path="url(#SVGID_2_)" fill="#FAB39B" d="M351.542,552.225c0,0,10.464,2.998,12.425,4.808
		c1.959,1.808,8.734,4.063,12.061,3.847c6.935-0.451,7.99,5.047-0.877,6.751c-6.742,1.296-9.825-0.936-12.689-0.634
		c-2.864,0.303-6.184,2.397-6.184,2.397L351.542,552.225z"/>
	<polygon clip-path="url(#SVGID_2_)" fill="#704C44" points="310.592,644.339 337.48,644.339 339.441,608.239 310.592,608.239 	"/>
	<polygon clip-path="url(#SVGID_2_)" fill="#704C44" points="888.153,608.239 859.304,608.239 861.269,644.339 888.153,644.339 	"/>
	<polygon clip-path="url(#SVGID_2_)" fill="#704C44" points="896.645,644.339 928.357,644.339 928.357,608.239 894.536,608.239 	"/>
	<polygon clip-path="url(#SVGID_2_)" fill="#704C44" points="303.865,608.239 270.044,608.239 270.044,644.339 301.755,644.339 	"/>
	<rect x="795.089" y="535.884" clip-path="url(#SVGID_2_)" fill="#6C8ECC" width="121.002" height="32.152"/>
	<path clip-path="url(#SVGID_2_)" fill="#383534" d="M818.432,551.96c0,4.037-3.273,7.311-7.311,7.311
		c-4.039,0-7.31-3.273-7.31-7.311s3.271-7.311,7.31-7.311C815.158,544.649,818.432,547.923,818.432,551.96"/>
	<circle clip-path="url(#SVGID_2_)" fill="none" stroke="#FFFFFF" stroke-miterlimit="10" cx="811.122" cy="551.96" r="7.31"/>
	<rect x="880.016" y="546.936" clip-path="url(#SVGID_2_)" fill="#FFFFFF" width="24.463" height="9.666"/>
	<rect x="795.089" y="471.577" clip-path="url(#SVGID_2_)" fill="#FFC375" width="121.002" height="32.154"/>
	<path clip-path="url(#SVGID_2_)" fill="#383534" d="M818.432,487.655c0,4.036-3.273,7.311-7.311,7.311
		c-4.039,0-7.31-3.274-7.31-7.311s3.271-7.309,7.31-7.309C815.158,480.346,818.432,483.619,818.432,487.655"/>
	<circle clip-path="url(#SVGID_2_)" fill="none" stroke="#FFFFFF" stroke-miterlimit="10" cx="811.122" cy="487.655" r="7.31"/>
	<rect x="880.016" y="482.628" clip-path="url(#SVGID_2_)" fill="#FFFFFF" width="24.463" height="9.667"/>
	<rect x="775.597" y="503.729" clip-path="url(#SVGID_2_)" fill="#FF9775" width="121.002" height="32.155"/>
	<path clip-path="url(#SVGID_2_)" fill="#383534" d="M798.938,519.808c0,4.036-3.273,7.31-7.311,7.31c-4.039,0-7.31-3.274-7.31-7.31
		c0-4.036,3.271-7.31,7.31-7.31C795.664,512.499,798.938,515.772,798.938,519.808"/>
	<circle clip-path="url(#SVGID_2_)" fill="none" stroke="#FFFFFF" stroke-miterlimit="10" cx="791.627" cy="519.808" r="7.31"/>
	<rect x="860.523" y="514.782" clip-path="url(#SVGID_2_)" fill="#FFFFFF" width="24.461" height="9.665"/>
</g>
</svg>
